<svg width="120" height="120" viewBox="0 0 120 120" fill="none" xmlns="http://www.w3.org/2000/svg">
  <mask id="mask0_715_5872" style="mask-type:alpha" maskUnits="userSpaceOnUse" x="0" y="0" width="120" height="120">
    <circle cx="60" cy="60" r="59.5" fill="#D9D9D9" stroke="black"/>
  </mask>
  <g mask="url(#mask0_715_5872)">
    <circle cx="60" cy="60" r="59" fill="#E9F0FD" stroke="#6785F4" stroke-width="2"/>
    <path d="M67.8666 58.0938L59.8041 59.0237L51.7416 58.0938C51.7416 58.0938 51.9441 64.8062 49.2891 69.0662C49.2891 69.0662 49.6716 76.5513 59.8041 76.5513C69.9366 76.5513 70.3191 69.0662 70.3191 69.0662C67.6641 64.8062 67.8666 58.0938 67.8666 58.0938Z" fill="url(#paint0_linear_715_5872)"/>
    <g style="mix-blend-mode:multiply">
      <path d="M51.5622 61.5212C51.5622 61.5212 53.6022 68.3088 59.8047 68.5938C66.0072 68.8787 68.0847 61.8587 68.0847 61.8587L67.8672 58.0938H51.7347L51.5547 61.5212H51.5622Z" fill="#C98BC2"/>
    </g>
    <g style="mix-blend-mode:soft-light" opacity="0.6">
      <path d="M60.8768 75.4368C59.3318 74.3643 64.3193 66.5943 66.9443 65.7393C69.5693 64.8843 68.7518 70.8918 67.9043 71.6868C67.0568 72.4818 63.5168 75.5193 60.8768 75.4368Z" fill="#FFC7AC"/>
    </g>
    <path d="M38.1986 113.429C38.1986 113.429 37.2611 116.061 37.1636 116.339C37.0661 116.624 27.1211 114.179 20.9861 111.419C14.8511 108.674 13.5761 104.339 13.5011 103.559C13.4261 102.779 17.1236 100.431 20.1836 93.8989C23.2361 87.3589 24.1436 83.8789 25.0061 83.7364C25.8686 83.5939 31.7636 91.0564 35.2736 95.6989C38.7761 100.341 38.1986 113.436 38.1986 113.436V113.429Z" fill="url(#paint1_linear_715_5872)"/>
    <path style="mix-blend-mode:multiply" d="M38.1966 113.427C38.1966 113.427 36.2091 110.119 34.7991 106.062C33.3891 101.997 32.7891 100.047 32.7891 100.047C32.7891 100.047 33.2691 104.157 33.6591 107.944C34.0491 111.732 36.8766 115.204 37.0191 115.774C37.1616 116.344 38.1966 113.427 38.1966 113.427Z" fill="url(#paint2_linear_715_5872)"/>
    <g style="mix-blend-mode:multiply" opacity="0.3">
      <path d="M13.9844 102.748C13.9844 102.748 20.5394 110.188 22.5269 106.348C28.1069 95.5853 23.6594 85.8203 23.6594 85.8203C23.6594 85.8203 21.7169 91.4153 19.0694 96.1553C16.4144 100.895 13.9844 102.748 13.9844 102.748Z" fill="#C486E8"/>
    </g>
    <path d="M81.2944 113.429C81.2944 113.429 82.2319 116.061 82.3294 116.339C82.4269 116.624 92.3719 114.179 98.5069 111.419C104.642 108.666 105.917 104.331 105.992 103.551C106.059 102.771 102.369 100.424 99.3094 93.8911C96.2569 87.3511 95.3494 83.8711 94.4869 83.7286C93.6244 83.5861 87.7294 91.0486 84.2194 95.6911C80.7094 100.334 81.2944 113.429 81.2944 113.429Z" fill="url(#paint3_linear_715_5872)"/>
    <path style="mix-blend-mode:multiply" d="M81.2969 113.427C81.2969 113.427 83.2844 110.119 84.6944 106.062C86.1044 101.997 86.7044 100.047 86.7044 100.047C86.7044 100.047 86.7044 103.362 85.3919 107.944C84.3419 111.604 82.6169 115.204 82.4744 115.774C82.3319 116.344 81.2969 113.427 81.2969 113.427Z" fill="url(#paint4_linear_715_5872)"/>
    <g style="mix-blend-mode:multiply" opacity="0.3">
      <path d="M105.503 102.756C105.503 102.756 98.9479 110.196 96.9604 106.356C91.3804 95.5931 95.8279 85.8281 95.8279 85.8281C95.8279 85.8281 97.7704 91.4231 100.418 96.1631C103.073 100.903 105.503 102.756 105.503 102.756Z" fill="#C486E8"/>
    </g>
    <path d="M74.9504 25.4031C72.7829 19.7181 59.4029 18.0156 59.4029 18.0156C59.4029 18.0156 46.8104 19.7181 44.6429 25.4031C42.4754 31.0881 45.8579 50.2206 46.7279 52.7856C47.5979 55.3431 55.3904 60.5706 56.0429 60.8181C56.6954 61.0656 59.8004 61.2606 59.8004 61.2606C59.8004 61.2606 63.0854 61.0881 63.7379 60.8406C64.3904 60.5931 72.0029 55.3431 72.8729 52.7856C73.7429 50.2281 77.1254 31.0881 74.9579 25.4031H74.9504Z" fill="url(#paint5_radial_715_5872)"/>
    <g style="mix-blend-mode:soft-light" opacity="0.5">
      <path d="M49.7202 24.7536C47.8452 25.9836 52.9452 30.3411 59.7027 30.8661C66.4677 31.3911 70.0827 24.9711 70.2552 24.4686C70.4277 23.9736 61.7202 16.8636 49.7127 24.7536H49.7202Z" fill="#FFC7AC"/>
    </g>
    <path style="mix-blend-mode:multiply" d="M55.9868 39.4543C55.9868 39.4543 56.3693 34.6168 55.4843 33.0118C54.5993 31.4143 47.3168 32.3818 46.4618 32.4943C45.6068 32.6068 45.3743 36.6868 45.3668 37.8268C45.3668 38.9668 45.0293 36.5068 48.9068 35.5993C52.7843 34.6993 54.5618 36.0118 55.9793 39.4543H55.9868Z" fill="url(#paint6_linear_715_5872)"/>
    <path style="mix-blend-mode:multiply" d="M63.5744 39.4543C63.5744 39.4543 63.1919 34.6168 64.0769 33.0118C64.9619 31.4143 72.2444 32.3818 73.0994 32.4943C73.9544 32.5993 74.1869 36.6868 74.1944 37.8268C74.1944 38.9668 74.5319 36.5068 70.6544 35.5993C66.7769 34.6993 64.9994 36.0118 63.5819 39.4543H63.5744Z" fill="url(#paint7_linear_715_5872)"/>
    <path d="M44.4071 40.0879C44.4071 40.0879 42.9521 38.4079 41.4146 38.4379C39.8771 38.4604 38.5946 41.6329 39.1196 44.5729C39.6371 47.5129 42.3071 48.8704 43.2671 49.7629C44.2271 50.6479 45.6221 50.5954 45.8696 49.2604L44.4146 40.0954L44.4071 40.0879Z" fill="url(#paint8_linear_715_5872)"/>
    <path style="mix-blend-mode:multiply" opacity="0.88" d="M45.0199 43.969C45.0199 43.969 43.5649 41.539 41.7874 41.3665C40.0099 41.2015 39.9649 43.924 40.1524 45.394C40.3399 46.864 42.5449 48.499 42.5449 48.499C42.5449 48.499 40.5799 46.7365 40.5049 44.929C40.4374 43.1215 41.1199 42.694 41.9974 42.649C42.8749 42.604 41.8774 43.1965 42.0649 45.349C42.2524 47.5015 43.0174 47.9815 43.7749 47.9815C44.5324 47.9815 44.1274 46.654 44.0074 45.5665C43.8874 44.479 45.0124 43.9765 45.0124 43.9765L45.0199 43.969Z" fill="url(#paint9_linear_715_5872)"/>
    <g style="mix-blend-mode:multiply">
      <path d="M44.8175 43.9072C44.9225 43.3822 43.73 42.7447 42.6875 43.4347C41.645 44.1247 42.2375 46.2997 43.2575 46.7722C44.2775 47.2447 44.0225 46.3522 44.0075 45.3922C43.9925 44.4322 44.8175 43.9072 44.8175 43.9072Z" fill="#C98BC2"/>
    </g>
    <g style="mix-blend-mode:multiply" opacity="0.5">
      <path d="M43.2578 49.76C44.0753 50.645 45.7103 48.3125 45.7103 48.3125L45.8603 49.2575C45.8603 49.2575 45.4628 51.38 43.2578 49.76Z" fill="#EA8BC2"/>
    </g>
    <path d="M74.8062 40.0879C74.8062 40.0879 76.2613 38.4079 77.7988 38.4379C79.3363 38.4604 80.6188 41.6329 80.0938 44.5729C79.5763 47.5129 76.9063 48.8704 75.9463 49.7629C74.9863 50.6479 73.5913 50.5954 73.3438 49.2604L74.7988 40.0954L74.8062 40.0879Z" fill="url(#paint10_linear_715_5872)"/>
    <path style="mix-blend-mode:multiply" opacity="0.88" d="M74.1953 43.969C74.1953 43.969 75.6503 41.539 77.4278 41.3665C79.2053 41.2015 79.2503 43.924 79.0628 45.394C78.8753 46.864 76.6703 48.499 76.6703 48.499C76.6703 48.499 78.6353 46.7365 78.7103 44.929C78.7778 43.1215 78.0953 42.694 77.2178 42.649C76.3403 42.604 77.3378 43.1965 77.1503 45.349C76.9628 47.5015 76.1978 47.9815 75.4403 47.9815C74.6828 47.9815 75.0878 46.654 75.2078 45.5665C75.3278 44.479 74.2028 43.9765 74.2028 43.9765L74.1953 43.969Z" fill="url(#paint11_linear_715_5872)"/>
    <g style="mix-blend-mode:multiply">
      <path d="M74.3893 43.9072C74.2843 43.3822 75.4768 42.7447 76.5193 43.4347C77.5618 44.1247 76.9693 46.2997 75.9493 46.7722C74.9293 47.2447 75.1843 46.3522 75.1993 45.3922C75.2143 44.4322 74.3893 43.9072 74.3893 43.9072Z" fill="#C98BC2"/>
    </g>
    <g style="mix-blend-mode:multiply" opacity="0.5">
      <path d="M75.9541 49.76C75.1366 50.645 73.5016 48.3125 73.5016 48.3125L73.3516 49.2575C73.3516 49.2575 73.7491 51.38 75.9541 49.76Z" fill="#EA8BC2"/>
    </g>
    <path d="M60.7414 22.584C60.2989 22.6815 61.1989 21.459 56.3239 21.399C51.4489 21.339 46.5814 23.5965 45.4414 30.3915C44.7139 34.7565 44.9239 42.774 44.9239 42.774C44.9239 42.774 41.6389 35.064 41.0239 29.5215C40.4089 23.979 43.4614 19.104 48.1714 16.9665C48.1714 16.9665 52.6339 12.4365 57.2764 12.024C61.9189 11.6115 65.3389 16.659 65.3389 16.659C65.3389 16.659 67.7989 14.3865 70.5964 14.454C73.3939 14.5215 75.8839 22.1715 75.8839 22.1715C75.8839 22.1715 77.1739 23.334 77.8339 27.879C78.3664 31.5615 74.7589 42.0915 74.7589 42.0915C74.7589 42.0915 74.4439 29.6115 71.5264 24.5865C68.6089 19.5615 65.4214 23.1015 65.1514 23.1465C64.8814 23.1915 64.8814 22.2015 64.8814 22.2015C64.8814 22.2015 62.8414 23.0565 62.0914 23.019C61.3414 22.9815 61.2064 22.0965 61.2064 22.0965C61.2064 22.0965 61.1239 22.5015 60.7414 22.584Z" fill="url(#paint12_linear_715_5872)"/>
    <path d="M63.9763 33.0227C63.9763 33.0227 65.0187 30.8927 65.7762 30.2252C66.5337 29.5652 67.7863 29.4452 67.9663 29.4827C68.1463 29.5202 66.1512 31.2527 66.1512 31.2527C66.1512 31.2527 67.9288 30.0152 69.2788 29.7302C70.6288 29.4452 72.4063 30.3377 72.9763 30.4727C73.5463 30.6152 73.7188 33.4952 73.7188 33.4952C73.7188 33.4952 73.4712 32.3927 70.4112 32.7152C67.3512 33.0377 67.7263 33.2627 63.9688 33.0227H63.9763Z" fill="url(#paint13_linear_715_5872)"/>
    <path style="mix-blend-mode:multiply" opacity="0.88" d="M64.4844 33.0551C64.4844 33.0551 67.1319 30.1826 68.8494 29.8526C70.5594 29.5226 71.6769 30.1601 71.6769 30.1601C71.6769 30.1601 70.0569 30.3701 68.0844 31.7501C68.0844 31.7501 70.1919 30.3251 72.1719 30.4976C73.4469 30.6101 73.5219 31.7951 73.5219 31.7951C73.5219 31.7951 71.6094 32.2076 69.7644 32.8001C67.9119 33.3926 64.4919 33.0626 64.4919 33.0626L64.4844 33.0551Z" fill="url(#paint14_linear_715_5872)"/>
    <path d="M55.4925 33.0227C55.4925 33.0227 54.45 30.8927 53.6925 30.2252C52.935 29.5652 51.6825 29.4452 51.5025 29.4827C51.3225 29.5202 53.3175 31.2527 53.3175 31.2527C53.3175 31.2527 51.54 30.0152 50.19 29.7302C48.84 29.4452 47.0625 30.3377 46.4925 30.4727C45.9225 30.6152 45.75 33.4952 45.75 33.4952C45.75 33.4952 45.9975 32.3927 49.0575 32.7152C52.1175 33.0377 51.7425 33.2627 55.5 33.0227H55.4925Z" fill="url(#paint15_linear_715_5872)"/>
    <path style="mix-blend-mode:multiply" opacity="0.88" d="M54.9828 33.0551C54.9828 33.0551 52.3353 30.1826 50.6178 29.8526C48.9003 29.5226 47.7903 30.1601 47.7903 30.1601C47.7903 30.1601 49.4103 30.3701 51.3828 31.7501C51.3828 31.7501 49.2753 30.3251 47.2953 30.4976C46.0203 30.6101 45.9453 31.7951 45.9453 31.7951C45.9453 31.7951 47.8578 32.2076 49.7028 32.8001C51.5553 33.3926 54.9753 33.0626 54.9753 33.0626L54.9828 33.0551Z" fill="url(#paint16_linear_715_5872)"/>
    <path d="M64.8103 41.198C65.0203 41.2805 66.6928 41.648 68.7928 41.3705C70.8853 41.093 72.3628 39.4655 72.4528 39.173C72.6328 38.603 71.8453 36.968 70.7128 36.4055C69.5728 35.8355 66.4528 36.5105 65.7778 37.403C65.1028 38.2955 64.6453 41.138 64.8178 41.2055L64.8103 41.198Z" fill="url(#paint17_linear_715_5872)"/>
    <path d="M64.8077 40.57C64.8077 40.57 64.6427 41.2375 64.8077 41.365C64.9727 41.5 65.8577 41.3875 65.8577 41.3875C65.8577 41.3875 64.9802 41.005 64.8077 40.5625V40.57Z" fill="#E24C5B"/>
    <path d="M68.0391 41.4787C68.0391 41.4787 69.4341 41.5237 70.4991 41.1337C71.5641 40.7437 72.3741 39.2812 72.3741 39.2812C72.3741 39.2812 70.8741 40.9538 68.0391 41.4787Z" fill="#E24C5B"/>
    <path d="M67.8938 41.3734C69.1985 41.3734 70.2563 40.3157 70.2563 39.0109C70.2563 37.7062 69.1985 36.6484 67.8938 36.6484C66.589 36.6484 65.5312 37.7062 65.5312 39.0109C65.5312 40.3157 66.589 41.3734 67.8938 41.3734Z" fill="url(#paint18_linear_715_5872)"/>
    <g style="mix-blend-mode:multiply" opacity="0.79">
      <path d="M67.8962 40.1831C68.5466 40.1831 69.0737 39.6559 69.0737 39.0056C69.0737 38.3553 68.5466 37.8281 67.8962 37.8281C67.2459 37.8281 66.7188 38.3553 66.7188 39.0056C66.7188 39.6559 67.2459 40.1831 67.8962 40.1831Z" fill="#975995"/>
    </g>
    <g style="mix-blend-mode:soft-light" opacity="0.5">
      <path d="M66.535 40.9431C66.2875 40.7406 67.0225 40.1631 67.12 40.1181C67.2175 40.0731 67.45 40.3056 68.035 40.2531C68.62 40.2006 68.845 39.7881 68.98 39.6981C69.115 39.6081 69.73 40.1181 69.7525 40.2681C69.775 40.4181 68.7325 42.0681 66.5275 40.9356L66.535 40.9431Z" fill="#FFC7AC"/>
    </g>
    <g style="mix-blend-mode:multiply" opacity="0.5">
      <path d="M72.2625 39.4609C72.2625 39.4609 72.165 40.8034 71.88 41.3359C71.595 41.8759 68.625 41.5909 68.625 41.5909C68.625 41.5909 70.83 41.3059 72.2625 39.4609Z" fill="#EA8BC2"/>
    </g>
    <g style="mix-blend-mode:multiply">
      <path d="M64.5547 38.7139C64.5547 38.7139 64.9597 37.1989 65.8372 36.2239C66.7147 35.2564 68.8522 35.0239 70.1722 35.4889C71.4922 35.9539 71.8297 37.1014 71.8297 37.1014C71.8297 37.1014 71.0797 35.6989 69.0247 35.5939C66.6322 35.4739 65.5822 36.5539 64.5622 38.7064L64.5547 38.7139Z" fill="#EA8BC2"/>
    </g>
    <path d="M64.8828 40.0892C64.8828 40.0892 65.5803 37.9967 66.6228 37.2242C67.6653 36.4517 69.6753 36.3017 70.5828 36.5642C71.4903 36.8342 72.2778 38.2067 72.2778 38.2067C72.2778 38.2067 71.7903 36.2042 71.4153 35.8742C70.8978 35.4242 68.1903 34.6967 66.0003 37.0742C65.4153 37.7117 64.8828 40.0817 64.8828 40.0817V40.0892Z" fill="#560A35"/>
    <path d="M70.2885 37.5585C69.771 37.506 69.5835 38.0085 69.681 38.2035C69.7785 38.3985 70.5735 37.9335 70.626 37.8435C70.686 37.761 70.791 37.6035 70.2885 37.5585Z" fill="white"/>
    <path d="M55.1056 41.1948C54.8956 41.2773 53.2231 41.6448 51.1231 41.3673C49.0306 41.0898 47.5531 39.4623 47.4631 39.1698C47.2831 38.5998 48.0706 36.9648 49.2031 36.4023C50.3356 35.8398 53.4631 36.5073 54.1381 37.3998C54.8131 38.2848 55.2706 41.1348 55.0981 41.2023L55.1056 41.1948Z" fill="url(#paint19_linear_715_5872)"/>
    <path d="M55.1125 40.57C55.1125 40.57 55.2775 41.2375 55.1125 41.365C54.9475 41.5 54.0625 41.3875 54.0625 41.3875C54.0625 41.3875 54.94 41.005 55.1125 40.5625V40.57Z" fill="#E24C5B"/>
    <path d="M51.8819 41.4787C51.8819 41.4787 50.4869 41.5237 49.4219 41.1337C48.3569 40.7437 47.5469 39.2812 47.5469 39.2812C47.5469 39.2812 49.0544 40.9538 51.8819 41.4787Z" fill="#E24C5B"/>
    <path d="M52.0187 41.3734C53.3235 41.3734 54.3812 40.3157 54.3812 39.0109C54.3812 37.7062 53.3235 36.6484 52.0187 36.6484C50.714 36.6484 49.6562 37.7062 49.6562 39.0109C49.6562 40.3157 50.714 41.3734 52.0187 41.3734Z" fill="url(#paint20_linear_715_5872)"/>
    <g style="mix-blend-mode:multiply" opacity="0.79">
      <path d="M52.0212 40.1831C52.6716 40.1831 53.1987 39.6559 53.1987 39.0056C53.1987 38.3553 52.6716 37.8281 52.0212 37.8281C51.3709 37.8281 50.8438 38.3553 50.8438 39.0056C50.8438 39.6559 51.3709 40.1831 52.0212 40.1831Z" fill="#975995"/>
    </g>
    <g style="mix-blend-mode:soft-light" opacity="0.5">
      <path d="M53.3819 40.9431C53.6294 40.7406 52.8944 40.1631 52.7969 40.1181C52.6994 40.0731 52.4669 40.3056 51.8819 40.2531C51.2969 40.2006 51.0719 39.7881 50.9369 39.6981C50.8019 39.6081 50.1869 40.1181 50.1644 40.2681C50.1419 40.4181 51.1844 42.0681 53.3894 40.9356L53.3819 40.9431Z" fill="#FFC7AC"/>
    </g>
    <g style="mix-blend-mode:multiply" opacity="0.5">
      <path d="M47.6562 39.4609C47.6562 39.4609 47.7538 40.8034 48.0388 41.3359C48.3238 41.8759 51.2938 41.5909 51.2938 41.5909C51.2938 41.5909 49.0888 41.3059 47.6562 39.4609Z" fill="#EA8BC2"/>
    </g>
    <g style="mix-blend-mode:multiply">
      <path d="M55.3609 38.7139C55.3609 38.7139 54.9559 37.1989 54.0784 36.2239C53.2009 35.2564 51.0634 35.0239 49.7434 35.4889C48.4234 35.9539 48.0859 37.1014 48.0859 37.1014C48.0859 37.1014 48.8359 35.6989 50.8909 35.5939C53.2834 35.4739 54.3334 36.5539 55.3534 38.7064L55.3609 38.7139Z" fill="#EA8BC2"/>
    </g>
    <path d="M55.0356 40.0893C55.0356 40.0893 54.3381 37.9968 53.2956 37.2243C52.2531 36.4518 50.2431 36.3018 49.3356 36.5643C48.4281 36.8343 47.6406 38.2068 47.6406 38.2068C47.6406 38.2068 48.1281 36.2043 48.5031 35.8743C49.0206 35.4243 51.8856 34.5168 53.9181 37.0743C54.4581 37.7493 55.0356 40.0818 55.0356 40.0818V40.0893Z" fill="#560A35"/>
    <path d="M49.624 37.5585C50.1415 37.506 50.329 38.0085 50.2315 38.2035C50.134 38.3985 49.339 37.9335 49.2865 37.8435C49.2265 37.761 49.1215 37.6035 49.624 37.5585Z" fill="white"/>
    <g style="mix-blend-mode:multiply">
      <path d="M64.7073 44.9375C64.7073 44.9375 65.2398 46.7 64.6248 47.03C64.0098 47.36 63.6123 47.135 62.3523 47.435C61.0923 47.735 60.3273 47.7575 60.3273 47.7575C60.3273 47.7575 59.5623 47.7425 58.3023 47.435C57.0423 47.135 56.6448 47.36 56.0298 47.03C55.4148 46.7 55.9473 44.9375 55.9473 44.9375C55.9473 44.9375 55.2348 46.7525 55.3998 47.2775C55.5648 47.795 56.5698 47.5775 57.1623 47.7425C57.7548 47.9075 59.0448 49.0175 60.3273 49.1225C61.6098 49.0175 62.6823 47.795 63.2748 47.63C63.8673 47.465 65.0898 47.795 65.2548 47.2775C65.4198 46.76 64.7073 44.9375 64.7073 44.9375Z" fill="#EA8BC2"/>
    </g>
    <g style="mix-blend-mode:multiply" opacity="0.2">
      <path d="M64.4822 44.4063C64.2047 43.8963 62.2697 42.6063 60.2372 42.7713C58.1972 42.9363 56.4197 44.0088 55.9922 44.7663C55.9922 44.7663 57.1997 42.0964 59.2847 40.3789C61.3697 38.6614 63.4097 41.9988 64.4822 44.4063Z" fill="#EA8BC2"/>
    </g>
    <g style="mix-blend-mode:multiply" opacity="0.3">
      <path d="M56.6836 47.2309C56.2111 47.1184 57.0661 43.7959 56.9011 43.9009C56.7436 44.0134 55.3411 45.3709 55.4086 46.7284C55.4761 48.0859 56.6836 47.2309 56.6836 47.2309Z" fill="#E08BC2"/>
    </g>
    <g style="mix-blend-mode:multiply" opacity="0.3">
      <path d="M63.9655 47.2309C64.438 47.1184 63.583 43.7959 63.748 43.9009C63.913 44.0059 65.308 45.3709 65.2405 46.7284C65.173 48.0859 63.9655 47.2309 63.9655 47.2309Z" fill="#E08BC2"/>
    </g>
    <g style="mix-blend-mode:multiply">
      <path d="M55.4766 47.4091C55.7766 47.7991 57.4341 50.5666 60.3291 50.5666C63.2241 50.5666 65.1366 47.7691 65.2566 47.2741C65.2566 47.2741 63.2841 46.5391 60.2391 46.5391C57.1941 46.5391 55.4766 47.4091 55.4766 47.4091Z" fill="#C977C2"/>
    </g>
    <g style="mix-blend-mode:soft-light" opacity="0.8">
      <path d="M61.6078 43.5216C60.4603 43.2741 62.0878 46.0041 62.8753 46.3941C63.6628 46.7841 64.0303 44.4666 63.3403 43.8891C62.6503 43.3116 61.6078 43.5216 61.6078 43.5216Z" fill="#FFC7AC"/>
    </g>
    <path d="M55.4744 53.6491C55.4744 53.6491 55.9394 54.3466 60.2369 54.3466C64.5344 54.3466 65.0669 53.7391 65.0669 53.7391C65.0669 53.7391 65.0369 53.7616 64.5869 53.5741C64.1369 53.3866 62.6894 52.7341 60.0194 52.7266C57.3419 52.7191 56.1344 53.4766 55.7594 53.4991C55.3769 53.5216 55.4819 53.6416 55.4819 53.6416L55.4744 53.6491Z" fill="#FA7763"/>
    <path style="mix-blend-mode:multiply" opacity="0.3" d="M55.7369 47.0385C55.2419 45.651 58.5794 39.891 60.7094 40.191C62.8394 40.491 65.1569 46.3335 64.9244 46.911C64.6919 47.4885 63.6044 47.2785 62.4569 47.811C61.3094 48.3435 60.3269 48.6735 59.4194 48.3135C58.5119 47.9535 56.0669 47.6085 55.7369 47.031V47.0385Z" fill="url(#paint21_linear_715_5872)"/>
    <path d="M64.78 52.7309C64.33 52.6634 63.505 52.2509 62.5075 51.9434C61.51 51.6359 60.3625 51.7334 60.3625 51.7334C60.3625 51.7334 59.215 51.6359 58.2175 51.9434C57.22 52.2509 56.14 52.6634 55.69 52.7309C55.24 52.7984 54.0625 52.0034 54.0625 52.0034C54.0625 52.0034 55.2775 53.6984 55.66 53.7434C56.0425 53.7884 56.11 53.5559 56.845 53.3534C57.58 53.1509 60.3625 52.9184 60.3625 52.9184C60.3625 52.9184 63.145 53.1509 63.88 53.3534C64.615 53.5559 64.6825 53.7959 65.065 53.7434C65.4475 53.6984 66.715 52.1459 66.715 52.1459C66.715 52.1459 65.2225 52.8059 64.7725 52.7309H64.78Z" fill="url(#paint22_linear_715_5872)"/>
    <g style="mix-blend-mode:multiply">
      <path d="M56.6406 54.7188C56.6406 54.7188 57.8706 56.8337 60.3231 56.8337C62.7756 56.8337 64.0656 54.7188 64.0656 54.7188C64.0656 54.7188 60.3606 55.7763 56.6406 54.7188Z" fill="#C977C2"/>
    </g>
    <path style="mix-blend-mode:multiply" opacity="0.88" d="M44.9219 41.3356C44.9219 41.3356 45.4094 43.2931 47.5994 49.1206C49.7819 54.9481 53.3594 59.0581 53.3594 59.0581C53.3594 59.0581 47.9519 55.4506 46.7219 52.7656C45.4919 50.0806 44.9294 41.3281 44.9294 41.3281L44.9219 41.3356Z" fill="url(#paint23_linear_715_5872)"/>
    <path style="mix-blend-mode:multiply" opacity="0.88" d="M74.5469 41.3356C74.5469 41.3356 73.8494 43.7731 71.6594 49.5931C69.4769 55.4206 66.1094 59.0581 66.1094 59.0581C66.1094 59.0581 71.5169 55.4506 72.7469 52.7656C73.9769 50.0806 74.5394 41.3281 74.5394 41.3281L74.5469 41.3356Z" fill="url(#paint24_linear_715_5872)"/>
    <g style="mix-blend-mode:multiply">
      <path d="M55.6254 60.5004C55.2354 59.9079 62.0904 59.1504 63.5004 59.4129C64.9104 59.6754 63.5004 60.8979 63.5004 60.8979C63.5004 60.8979 58.8204 61.8279 55.6254 60.5079V60.5004Z" fill="#EEB4C9"/>
    </g>
    <g style="mix-blend-mode:soft-light" opacity="0.8">
      <path d="M57.0529 59.2802C55.1479 59.0552 57.8854 56.4527 60.8779 56.7227C63.8704 56.9927 65.6554 60.3002 57.0529 59.2802Z" fill="#FFC7AC"/>
    </g>
    <g style="mix-blend-mode:multiply" opacity="0.2">
      <path d="M46.4688 41.3356C45.9438 41.3206 46.8513 46.5031 49.8138 49.3381C52.7763 52.1731 55.2513 45.4981 54.8988 44.3956C54.5463 43.2931 49.5888 41.4331 46.4688 41.3281V41.3356Z" fill="#EA8BC2"/>
    </g>
    <g style="mix-blend-mode:multiply" opacity="0.2">
      <path d="M73.1745 41.3356C73.6995 41.3206 72.792 46.5031 69.8295 49.3381C66.867 52.1731 64.392 45.4981 64.7445 44.3956C65.097 43.2931 70.0545 41.4331 73.1745 41.3281V41.3356Z" fill="#EA8BC2"/>
    </g>
    <g style="mix-blend-mode:soft-light" opacity="0.8">
      <path d="M68.6303 24.919C68.2703 24.154 67.0703 26.4715 67.5353 27.004C68.0003 27.5365 69.5078 26.764 68.6303 24.919Z" fill="#FFC7AC"/>
    </g>
    <path d="M62.0782 45.3547C61.3882 45.5647 61.7557 46.2772 62.3332 46.1872C62.9107 46.0972 62.7082 45.1597 62.0782 45.3547Z" fill="#FFC7AC"/>
    <path style="mix-blend-mode:multiply" opacity="0.8" d="M66.0309 22.5485C66.0309 22.5485 70.3734 19.1885 72.2859 19.406C74.2059 19.616 75.8934 22.1735 75.8934 22.1735C75.8934 22.1735 74.9334 19.6235 74.5659 18.8885C74.1984 18.1535 70.5459 17.4485 66.0234 22.541L66.0309 22.5485Z" fill="url(#paint25_linear_715_5872)"/>
    <path style="mix-blend-mode:multiply" opacity="0.8" d="M60.5097 22.365C60.5097 22.365 56.6322 16.29 48.1797 16.9575L50.2422 15.1875C50.2422 15.1875 49.4622 16.8075 55.1247 17.0775C60.7947 17.3475 60.5172 22.365 60.5172 22.365H60.5097Z" fill="url(#paint26_linear_715_5872)"/>
    <path style="mix-blend-mode:multiply" opacity="0.8" d="M61.2172 22.0996C61.2172 22.0996 63.0322 18.5446 60.9922 15.1996C58.9522 11.8546 51.8047 14.1121 51.8047 14.1121C51.8047 14.1121 58.1197 12.7546 60.0022 15.1996C61.8847 17.6371 61.2247 22.0996 61.2247 22.0996H61.2172Z" fill="url(#paint27_linear_715_5872)"/>
    <path style="mix-blend-mode:multiply" opacity="0.8" d="M69 22.0789C69 22.0789 74.04 21.6964 76.4175 23.9689C78.795 26.2414 77.295 33.5164 76.6575 35.7964C76.0275 38.0765 75.06 40.0864 75.06 40.0864C75.06 40.0864 75.795 33.5014 73.515 27.8089C71.235 22.1164 69 22.0864 69 22.0864V22.0789Z" fill="url(#paint28_linear_715_5872)"/>
    <path style="mix-blend-mode:multiply" opacity="0.8" d="M54.0596 21.3668C54.0596 21.3668 50.6621 19.5668 46.3271 21.6968C41.9921 23.8268 41.7071 33.4043 42.2021 35.0318C42.6971 36.6593 44.7146 41.6693 44.7146 41.6693C44.7146 41.6693 44.4146 31.7693 46.9196 26.7218C49.4246 21.6743 54.0596 21.3668 54.0596 21.3668Z" fill="url(#paint29_linear_715_5872)"/>
    <g style="mix-blend-mode:multiply">
      <path d="M64.8903 22.2057C64.8903 22.2057 67.4403 20.5632 69.0003 18.0057C70.5603 15.4482 69.6678 14.8332 69.6678 14.8332C69.6678 14.8332 67.9503 14.5482 65.3403 16.6557C65.3403 16.6557 65.7603 17.3982 65.8353 18.6207C65.8803 19.3857 64.8828 22.2057 64.8828 22.2057H64.8903Z" fill="#CC839F"/>
    </g>
    <path d="M60.7371 22.5824C60.7371 22.5824 57.8346 18.6749 54.3846 18.3749C50.9346 18.0749 47.9721 26.6699 48.0321 27.1649C48.0921 27.6599 51.5946 24.6974 55.3596 22.7624C59.1246 20.8274 60.7371 22.5749 60.7371 22.5749V22.5824Z" fill="url(#paint30_linear_715_5872)"/>
    <path style="mix-blend-mode:multiply" opacity="0.8" d="M60.7363 22.5782C60.7363 22.5782 59.1988 20.2757 56.1538 20.6507C53.1163 21.0257 48.0313 27.1607 48.0313 27.1607C48.0313 27.1607 47.9863 28.0532 52.7788 25.5257C57.5713 23.0057 60.7288 22.5707 60.7288 22.5707L60.7363 22.5782Z" fill="url(#paint31_linear_715_5872)"/>
    <g style="mix-blend-mode:soft-light" opacity="0.3">
      <path d="M67.3984 21.8088C67.3984 21.8088 70.8259 21.8463 73.3159 22.4463L75.8059 23.0538C75.8059 23.0538 75.0334 19.8363 72.2584 19.8438C69.4834 19.8513 67.3984 21.8088 67.3984 21.8088Z" fill="#FF868D"/>
    </g>
    <g style="mix-blend-mode:soft-light" opacity="0.3">
      <path d="M66.1169 21.6638C66.1169 21.6638 67.9994 19.9913 69.5219 17.5088C71.0444 15.0263 73.7144 17.7338 73.7144 17.7338C73.7144 17.7338 72.6419 17.8688 70.1744 19.3238C67.7069 20.7788 66.1094 21.6713 66.1094 21.6713L66.1169 21.6638Z" fill="#FF868D"/>
    </g>
    <g style="mix-blend-mode:soft-light" opacity="0.3">
      <path d="M51.0859 15.8354C51.0859 15.8354 52.1509 16.7204 55.7359 17.1329C59.3284 17.5454 60.2884 17.1329 60.2884 17.1329C60.2884 17.1329 60.8509 14.7554 57.9259 13.9979C54.9934 13.2404 51.0859 15.8354 51.0859 15.8354Z" fill="#FF868D"/>
    </g>
    <g style="mix-blend-mode:soft-light" opacity="0.3">
      <path d="M49.9585 22.3641C49.5235 23.7891 54.1285 21.2541 56.1685 20.6541C58.2085 20.0466 58.516 20.4591 58.516 20.4591C58.516 20.4591 53.446 15.4041 49.9585 22.3716V22.3641Z" fill="#FF868D"/>
    </g>
    <g style="mix-blend-mode:soft-light" opacity="0.3">
      <path d="M54.9844 13.1385C54.9844 13.1385 58.4644 12.396 60.5194 14.601C62.5744 16.806 64.1719 16.941 64.1719 16.941C64.1719 16.941 62.4694 9.90601 54.9919 13.1385H54.9844Z" fill="#FF868D"/>
    </g>
    <g style="mix-blend-mode:soft-light" opacity="0.5">
      <path d="M53.6414 16.9307C52.7864 16.6907 54.5864 15.8357 56.3189 15.1832C58.0514 14.5382 58.6889 15.3407 58.8989 15.5732C59.1089 15.8057 57.7589 16.7357 56.6039 16.9232C55.4414 17.1107 53.6414 16.9232 53.6414 16.9232V16.9307Z" fill="#FFE2C5"/>
    </g>
    <g style="mix-blend-mode:soft-light" opacity="0.5">
      <path d="M53.2186 18.9363C52.6861 19.0788 53.0536 21.0963 54.4036 20.8788C55.7536 20.6688 56.5711 20.4588 56.5711 20.4588C56.5711 20.4588 54.7786 18.5088 53.2186 18.9363Z" fill="#FFE2C5"/>
    </g>
    <path style="mix-blend-mode:multiply" opacity="0.88" d="M65.5391 51.7105C65.5391 51.7105 66.2291 51.538 66.7241 52.138C67.2191 52.7455 66.7241 53.743 66.7241 53.743C66.7241 53.743 66.4991 52.723 65.5391 51.7105Z" fill="url(#paint32_linear_715_5872)"/>
    <path style="mix-blend-mode:multiply" opacity="0.88" d="M54.7644 51.7105C54.7644 51.7105 54.0744 51.538 53.5794 52.138C53.0844 52.7455 53.5794 53.743 53.5794 53.743C53.5794 53.743 53.4369 52.8505 54.7644 51.7105Z" fill="url(#paint33_linear_715_5872)"/>
    <g style="mix-blend-mode:multiply">
      <path d="M58.0515 52.0056C57.0165 52.2156 59.4615 53.1531 61.224 53.0031C62.9865 52.8531 63.0915 52.1481 63.0915 52.1481C63.0915 52.1481 61.659 51.2856 58.059 52.0056H58.0515Z" fill="#DD7FC2"/>
    </g>
    <g style="mix-blend-mode:multiply">
      <path d="M57.897 53.3533C56.862 53.5633 59.412 54.1633 60.837 54.1558C62.262 54.1483 63.072 53.4658 63.072 53.4658C63.072 53.4658 61.6095 52.6033 57.897 53.3533Z" fill="#EC95C2"/>
    </g>
    <path d="M89.9122 79.8906C87.1747 78.2556 74.6647 71.1306 73.7497 70.4406C72.8347 69.7506 71.8147 67.6956 71.4472 67.5306C71.0797 67.3656 69.4297 67.3281 69.4297 67.3281L70.2022 68.8806C65.4697 75.9156 59.7997 75.5181 59.7997 75.5181C59.7997 75.5181 54.1372 75.9156 49.3972 68.8806L50.1697 67.3281C50.1697 67.3281 48.5272 67.3656 48.1522 67.5306C47.7847 67.6956 46.7647 69.7581 45.8497 70.4406C44.9347 71.1306 30.9247 78.2556 28.1872 79.8906C25.4497 81.5256 24.9922 83.7306 24.9922 83.7306C24.9922 83.7306 30.7297 93.0381 33.0772 100.996C35.4247 108.953 37.8922 112.366 38.1922 113.431C38.4922 114.496 41.1172 132.923 41.2522 133.538C41.3797 134.153 39.7747 135.098 39.7747 135.998C39.7747 136.898 40.6897 138.368 40.6897 138.886C40.6897 139.403 39.9097 139.126 39.9097 139.831C39.9097 140.536 40.0822 141.391 40.2997 142.718C40.5172 144.046 39.6472 144.046 39.5647 144.758C39.4747 145.471 50.4922 147.743 59.8147 148.171C69.1372 147.743 80.1472 145.471 80.0647 144.758C79.9747 144.046 79.1122 144.046 79.3297 142.718C79.5472 141.391 79.7197 140.536 79.7197 139.831C79.7197 139.126 78.9397 139.403 78.9397 138.886C78.9397 138.368 79.8547 136.898 79.8547 135.998C79.8547 135.098 78.2497 134.153 78.3772 133.538C78.5047 132.923 81.1372 114.496 81.4372 113.431C81.7372 112.366 84.2047 108.953 86.5522 100.996C88.8997 93.0381 94.6372 83.7306 94.6372 83.7306C94.6372 83.7306 92.6797 81.5256 89.9422 79.8906H89.9122Z" fill="url(#paint34_linear_715_5872)"/>
    <g style="mix-blend-mode:multiply">
      <path d="M45.8516 70.4412C45.8516 70.4412 50.7791 81.0012 60.3566 80.5287C69.9341 80.0562 73.3916 70.1187 73.3916 70.1187L71.7941 67.9137C71.7941 67.9137 68.5841 77.1238 60.0791 77.1238C51.5741 77.1238 48.1541 67.5312 48.1541 67.5312L45.8516 70.4412Z" fill="#D68BC2"/>
    </g>
    <path d="M41.1328 93.8703C41.1328 93.8703 43.8778 107.483 44.5603 108.555C45.2428 109.628 55.2403 107.873 63.0253 107.805C70.8178 107.738 72.8128 109.073 73.7503 108.608C74.7328 108.12 76.5928 94.2003 77.0653 93.7128C77.5378 93.2253 66.2353 94.3803 57.6853 94.5678C49.5178 94.7478 41.6803 93.4053 41.1328 93.8703Z" fill="url(#paint35_linear_715_5872)"/>
    <path style="mix-blend-mode:multiply" opacity="0.88" d="M42.5391 76.5469C42.5391 76.5469 51.0741 86.6869 57.0441 91.5169L63.0141 96.3469C63.0141 96.3469 47.3616 96.1594 42.5391 76.5469Z" fill="url(#paint36_linear_715_5872)"/>
    <path style="mix-blend-mode:multiply" opacity="0.88" d="M38.2188 106.961C38.2188 106.961 48.2312 128.943 52.0262 133.863C55.8137 138.791 58.5662 139.736 58.5662 139.736C58.5662 139.736 53.2638 142.008 46.4387 134.906C39.6212 127.803 38.2262 106.961 38.2262 106.961H38.2188Z" fill="url(#paint37_linear_715_5872)"/>
    <path style="mix-blend-mode:multiply" opacity="0.88" d="M82.7884 109.422C82.7884 109.422 76.4734 125.239 70.9759 131.682C65.4784 138.124 60.2734 138.312 60.2734 138.312C60.2734 138.312 73.8559 128.172 82.7884 109.414V109.422Z" fill="url(#paint38_linear_715_5872)"/>
    <g style="mix-blend-mode:multiply" opacity="0.3">
      <path d="M33.0781 101C33.0781 101 36.8731 106.205 43.2706 107.06C49.6681 107.915 57.8056 105.215 59.7481 105.215C61.6906 105.215 70.0306 107.443 74.8156 107.233C79.6006 107.015 85.4731 104.278 85.4731 104.278C85.4731 104.278 84.5131 107.915 81.2881 111.665C76.4131 117.328 67.7356 123.995 60.2731 124.738C47.8831 125.968 37.3981 111.68 36.7456 110.517C36.0931 109.347 33.0781 101.015 33.0781 101.015V101Z" fill="#C486E8"/>
    </g>
    <path style="mix-blend-mode:multiply" opacity="0.88" d="M53.4375 82.04C53.4375 82.04 56.28 84.8825 63.345 82.04C70.41 79.1975 73.7475 70.4375 73.7475 70.4375C73.7475 70.4375 73.5375 79.6775 65.535 82.895C57.5325 86.1125 53.4375 82.04 53.4375 82.04Z" fill="url(#paint39_linear_715_5872)"/>
    <g style="mix-blend-mode:soft-light" opacity="0.3">
      <path d="M42.5423 103.788C36.3023 101.733 35.8073 90.8282 38.1848 89.6357C40.5623 88.4432 51.8123 95.4707 66.1073 96.6407C80.4023 97.8107 73.4348 103.856 65.9498 103.353C58.4648 102.851 51.0548 105.243 42.5423 103.796V103.788Z" fill="#FFBAEF"/>
    </g>
    <g style="mix-blend-mode:soft-light" opacity="0.3">
      <path d="M64.4826 84.1351C52.3701 86.0626 59.7876 92.8876 69.0801 95.0251C78.3726 97.1551 83.4051 81.6976 83.3751 80.5426C83.3451 79.3876 79.2951 81.7726 64.4826 84.1351Z" fill="#FFBAEF"/>
    </g>
    <g style="mix-blend-mode:soft-light" opacity="0.3">
      <path d="M53.4308 79.6713C51.0908 78.8088 52.8308 82.1838 57.0458 82.8888C61.2608 83.6013 63.5858 81.2763 63.5858 81.2763C63.5858 81.2763 57.2933 81.0888 53.4308 79.6638V79.6713Z" fill="#FFBAEF"/>
    </g>
    <g style="mix-blend-mode:multiply">
      <path d="M93.6178 82.7344C93.6178 82.7344 88.0078 92.9419 86.6953 100.442C86.6953 100.442 90.8878 87.0244 94.4803 83.7319L93.6178 82.7344Z" fill="#C98BC2"/>
    </g>
    <g style="mix-blend-mode:multiply">
      <path d="M25.8625 82.7344C25.8625 82.7344 31.4725 92.9419 32.785 100.442C32.785 100.442 28.5925 87.0244 25 83.7319L25.8625 82.7344Z" fill="#C98BC2"/>
    </g>
    <path d="M51.0093 106.473C49.7793 106.173 47.6943 102.288 47.1243 98.8758C46.5543 95.4633 54.1368 96.7233 55.4118 96.2208C56.6943 95.7258 56.7168 101.763 56.4918 102.401C56.2668 103.038 57.0168 98.2908 57.5418 96.8283C58.0668 95.3658 60.4818 96.2208 61.4268 96.5358C62.3718 96.8508 60.1668 102.731 59.6718 104.448C59.1768 106.166 51.0018 106.466 51.0018 106.466L51.0093 106.473Z" fill="#DDDFFF"/>
    <path d="M65.5015 97.0781C63.349 96.3806 60.799 100.491 61.1215 104.046C61.4515 107.601 69.799 105.538 71.164 103.693C72.529 101.848 68.554 99.0056 67.0615 99.4331C65.569 99.8606 66.349 101.616 65.494 101.203C64.6465 100.783 65.9965 99.0131 67.204 99.0131C68.4115 99.0131 67.129 97.6256 65.494 97.0931L65.5015 97.0781Z" fill="#DDDFFF"/>
  </g>
  <defs>
    <linearGradient id="paint0_linear_715_5872" x1="59.8041" y1="76.5513" x2="59.8041" y2="58.0938" gradientUnits="userSpaceOnUse">
      <stop offset="0.02" stop-color="#FF8D5B"/>
      <stop offset="1" stop-color="#FF6F6B"/>
    </linearGradient>
    <linearGradient id="paint1_linear_715_5872" x1="25.8686" y1="116.369" x2="25.8686" y2="83.7289" gradientUnits="userSpaceOnUse">
      <stop stop-color="#567CF0"/>
      <stop offset="1" stop-color="#567CF0"/>
    </linearGradient>
    <linearGradient id="paint2_linear_715_5872" x1="35.4891" y1="115.849" x2="35.4891" y2="100.047" gradientUnits="userSpaceOnUse">
      <stop stop-color="#AE47B8"/>
      <stop offset="1" stop-color="white"/>
    </linearGradient>
    <linearGradient id="paint3_linear_715_5872" x1="93.6244" y1="116.369" x2="93.6244" y2="83.7286" gradientUnits="userSpaceOnUse">
      <stop stop-color="#567CF0"/>
      <stop offset="1" stop-color="#567CF0"/>
    </linearGradient>
    <linearGradient id="paint4_linear_715_5872" x1="83.9969" y1="11.9444" x2="83.9969" y2="100.047" gradientUnits="userSpaceOnUse">
      <stop stop-color="#AE47B8"/>
      <stop offset="1" stop-color="white"/>
    </linearGradient>
    <radialGradient id="paint5_radial_715_5872" cx="0" cy="0" r="1" gradientUnits="userSpaceOnUse" gradientTransform="translate(60.7127 52.4005) scale(24.6606 35.6506)">
      <stop offset="0.02" stop-color="#FFA774"/>
      <stop offset="1" stop-color="#FF9B91"/>
    </radialGradient>
    <linearGradient id="paint6_linear_715_5872" x1="50.7218" y1="39.4543" x2="50.7218" y2="32.1043" gradientUnits="userSpaceOnUse">
      <stop stop-color="white"/>
      <stop offset="1" stop-color="#DC5E7E"/>
    </linearGradient>
    <linearGradient id="paint7_linear_715_5872" x1="68.8469" y1="39.4543" x2="68.8469" y2="32.1043" gradientUnits="userSpaceOnUse">
      <stop stop-color="white"/>
      <stop offset="1" stop-color="#DC5E7E"/>
    </linearGradient>
    <linearGradient id="paint8_linear_715_5872" x1="42.4271" y1="50.3554" x2="42.4271" y2="38.4304" gradientUnits="userSpaceOnUse">
      <stop offset="0.02" stop-color="#FF705B"/>
      <stop offset="0.99" stop-color="#FF9063"/>
    </linearGradient>
    <linearGradient id="paint9_linear_715_5872" x1="42.5449" y1="48.499" x2="42.5449" y2="41.359" gradientUnits="userSpaceOnUse">
      <stop stop-color="white"/>
      <stop offset="1" stop-color="#DC5E7E"/>
    </linearGradient>
    <linearGradient id="paint10_linear_715_5872" x1="76.7862" y1="50.3554" x2="76.7862" y2="38.4304" gradientUnits="userSpaceOnUse">
      <stop offset="0.02" stop-color="#FF705B"/>
      <stop offset="0.99" stop-color="#FF9063"/>
    </linearGradient>
    <linearGradient id="paint11_linear_715_5872" x1="76.6628" y1="48.499" x2="76.6628" y2="41.359" gradientUnits="userSpaceOnUse">
      <stop stop-color="white"/>
      <stop offset="1" stop-color="#DC5E7E"/>
    </linearGradient>
    <linearGradient id="paint12_linear_715_5872" x1="59.4214" y1="42.7665" x2="59.4214" y2="11.994" gradientUnits="userSpaceOnUse">
      <stop stop-color="#6B1623"/>
      <stop offset="1" stop-color="#AC2C16"/>
    </linearGradient>
    <linearGradient id="paint13_linear_715_5872" x1="63.9762" y1="31.4927" x2="73.7187" y2="31.4927" gradientUnits="userSpaceOnUse">
      <stop stop-color="#BD4016"/>
      <stop offset="0.97" stop-color="#95352A"/>
    </linearGradient>
    <linearGradient id="paint14_linear_715_5872" x1="64.4844" y1="31.4501" x2="73.5144" y2="31.4501" gradientUnits="userSpaceOnUse">
      <stop stop-color="#C1457E"/>
      <stop offset="1" stop-color="white"/>
    </linearGradient>
    <linearGradient id="paint15_linear_715_5872" x1="55.4925" y1="31.4927" x2="45.7425" y2="31.4927" gradientUnits="userSpaceOnUse">
      <stop stop-color="#BD4016"/>
      <stop offset="0.97" stop-color="#95352A"/>
    </linearGradient>
    <linearGradient id="paint16_linear_715_5872" x1="54.9828" y1="31.4501" x2="45.9528" y2="31.4501" gradientUnits="userSpaceOnUse">
      <stop stop-color="#C1457E"/>
      <stop offset="1" stop-color="white"/>
    </linearGradient>
    <linearGradient id="paint17_linear_715_5872" x1="68.6278" y1="41.4755" x2="68.6278" y2="36.1955" gradientUnits="userSpaceOnUse">
      <stop stop-color="#FFE7E3"/>
      <stop offset="1" stop-color="#FFE6E4"/>
    </linearGradient>
    <linearGradient id="paint18_linear_715_5872" x1="67.8938" y1="41.3734" x2="67.8938" y2="36.6409" gradientUnits="userSpaceOnUse">
      <stop offset="0.02" stop-color="#923D1A"/>
      <stop offset="1" stop-color="#4D2030"/>
    </linearGradient>
    <linearGradient id="paint19_linear_715_5872" x1="51.2956" y1="41.4723" x2="51.2956" y2="36.1923" gradientUnits="userSpaceOnUse">
      <stop stop-color="#FFE7E3"/>
      <stop offset="1" stop-color="#FFE6E4"/>
    </linearGradient>
    <linearGradient id="paint20_linear_715_5872" x1="52.0187" y1="41.3734" x2="52.0187" y2="36.6409" gradientUnits="userSpaceOnUse">
      <stop offset="0.02" stop-color="#923D1A"/>
      <stop offset="1" stop-color="#4D2030"/>
    </linearGradient>
    <linearGradient id="paint21_linear_715_5872" x1="60.3119" y1="48.471" x2="60.3119" y2="40.1835" gradientUnits="userSpaceOnUse">
      <stop stop-color="#DC5E7E"/>
      <stop offset="1" stop-color="white"/>
    </linearGradient>
    <linearGradient id="paint22_linear_715_5872" x1="60.4225" y1="53.8109" x2="60.385" y2="51.7034" gradientUnits="userSpaceOnUse">
      <stop offset="0.02" stop-color="#D4312E"/>
      <stop offset="1" stop-color="#AC0037"/>
    </linearGradient>
    <linearGradient id="paint23_linear_715_5872" x1="49.1369" y1="59.0581" x2="49.1369" y2="41.3356" gradientUnits="userSpaceOnUse">
      <stop stop-color="white"/>
      <stop offset="1" stop-color="#DC5E7E"/>
    </linearGradient>
    <linearGradient id="paint24_linear_715_5872" x1="70.3319" y1="59.0581" x2="70.3319" y2="41.3356" gradientUnits="userSpaceOnUse">
      <stop stop-color="white"/>
      <stop offset="1" stop-color="#DC5E7E"/>
    </linearGradient>
    <linearGradient id="paint25_linear_715_5872" x1="69.6459" y1="24.6335" x2="73.4109" y2="18.1235" gradientUnits="userSpaceOnUse">
      <stop stop-color="white"/>
      <stop offset="1" stop-color="#AC3965"/>
    </linearGradient>
    <linearGradient id="paint26_linear_715_5872" x1="53.9697" y1="20.3025" x2="56.0622" y2="16.6875" gradientUnits="userSpaceOnUse">
      <stop stop-color="white"/>
      <stop offset="1" stop-color="#AC3965"/>
    </linearGradient>
    <linearGradient id="paint27_linear_715_5872" x1="55.9522" y1="19.0621" x2="59.0797" y2="13.6471" gradientUnits="userSpaceOnUse">
      <stop stop-color="white"/>
      <stop offset="1" stop-color="#AC3965"/>
    </linearGradient>
    <linearGradient id="paint28_linear_715_5872" x1="69" y1="31.0714" x2="77.715" y2="31.0714" gradientUnits="userSpaceOnUse">
      <stop stop-color="white"/>
      <stop offset="1" stop-color="#AC3965"/>
    </linearGradient>
    <linearGradient id="paint29_linear_715_5872" x1="48.0446" y1="41.6618" x2="48.0446" y2="20.6543" gradientUnits="userSpaceOnUse">
      <stop stop-color="white"/>
      <stop offset="1" stop-color="#AC3965"/>
    </linearGradient>
    <linearGradient id="paint30_linear_715_5872" x1="54.3921" y1="27.2249" x2="54.3921" y2="18.3674" gradientUnits="userSpaceOnUse">
      <stop stop-color="#6B1623"/>
      <stop offset="1" stop-color="#AC2C16"/>
    </linearGradient>
    <linearGradient id="paint31_linear_715_5872" x1="48.0388" y1="23.9582" x2="60.7363" y2="23.9582" gradientUnits="userSpaceOnUse">
      <stop stop-color="white"/>
      <stop offset="1" stop-color="#AC3965"/>
    </linearGradient>
    <linearGradient id="paint32_linear_715_5872" x1="66.2441" y1="53.743" x2="66.2441" y2="51.688" gradientUnits="userSpaceOnUse">
      <stop stop-color="white"/>
      <stop offset="1" stop-color="#AB1A7E"/>
    </linearGradient>
    <linearGradient id="paint33_linear_715_5872" x1="54.0594" y1="53.743" x2="54.0594" y2="51.688" gradientUnits="userSpaceOnUse">
      <stop stop-color="white"/>
      <stop offset="1" stop-color="#AB1A7E"/>
    </linearGradient>
    <linearGradient id="paint34_linear_715_5872" x1="59.7997" y1="148.171" x2="59.7997" y2="67.3206" gradientUnits="userSpaceOnUse">
      <stop stop-color="#567CF0"/>
      <stop offset="1" stop-color="#567CF0"/>
    </linearGradient>
    <linearGradient id="paint35_linear_715_5872" x1="59.1028" y1="108.9" x2="59.1028" y2="93.5928" gradientUnits="userSpaceOnUse">
      <stop stop-color="#292E86"/>
      <stop offset="1" stop-color="#292E86"/>
    </linearGradient>
    <linearGradient id="paint36_linear_715_5872" x1="52.7766" y1="96.3469" x2="52.7766" y2="76.5469" gradientUnits="userSpaceOnUse">
      <stop stop-color="#BD36C9"/>
      <stop offset="1" stop-color="white"/>
    </linearGradient>
    <linearGradient id="paint37_linear_715_5872" x1="48.3887" y1="140.088" x2="48.3887" y2="106.961" gradientUnits="userSpaceOnUse">
      <stop stop-color="#BD36C9"/>
      <stop offset="1" stop-color="white"/>
    </linearGradient>
    <linearGradient id="paint38_linear_715_5872" x1="71.5309" y1="138.312" x2="71.5309" y2="109.422" gradientUnits="userSpaceOnUse">
      <stop stop-color="#BD36C9"/>
      <stop offset="1" stop-color="white"/>
    </linearGradient>
    <linearGradient id="paint39_linear_715_5872" x1="63.5925" y1="84.1325" x2="63.5925" y2="70.4375" gradientUnits="userSpaceOnUse">
      <stop stop-color="#BD36C9"/>
      <stop offset="1" stop-color="white"/>
    </linearGradient>
  </defs>
</svg>