<svg width="464" height="800" viewBox="0 0 464 800" fill="none" xmlns="http://www.w3.org/2000/svg">
<path d="M105.61 532.947L6.94425 589.944C-2.34431 595.308 -2.30873 604.019 7.01533 609.404L47.8266 632.979C57.1507 638.365 72.2341 638.386 81.5227 633.022L180.189 576.032C189.477 570.667 189.442 561.957 180.118 556.571L139.306 532.996C129.982 527.604 114.892 527.582 105.61 532.947Z" fill="#D9D7D7"/>
<path d="M172.659 326.336L23.9141 361.534V598.537L23.9353 598.53C23.9353 602.295 26.6692 606.26 32.0307 609.358L49.0882 619.205C58.9023 624.875 73.7441 625.486 82.2444 620.584L166.928 571.666C170.77 569.449 172.638 566.479 172.645 563.374L172.666 563.367V326.336H172.659Z" fill="url(#paint0_linear_710_3208)"/>
<path d="M114.337 304.284L29.653 353.202C21.1527 358.112 22.2181 366.688 32.0322 372.358L49.0894 382.212C58.9035 387.882 73.7453 388.493 82.2457 383.591L166.929 334.672C175.43 329.763 174.364 321.187 164.55 315.517L147.493 305.669C137.679 299.985 122.837 299.374 114.337 304.284Z" fill="#E5E3E9"/>
<path d="M67.8349 383.302C61.3797 383.302 54.8677 381.682 49.9749 378.855L32.9174 369.007C28.3299 366.357 25.6953 362.975 25.6953 359.728C25.6953 357.134 27.3713 354.79 30.5385 352.964L115.222 304.045C118.652 302.063 123.452 300.969 128.729 300.969C135.184 300.969 141.696 302.589 146.589 305.417L163.639 315.271C168.227 317.921 170.861 321.303 170.861 324.551C170.861 327.151 169.185 329.489 166.018 331.315L81.3345 380.233C77.9046 382.215 73.1112 383.302 67.8349 383.302Z" fill="#F5F5F5"/>
<path d="M88.2908 341.602H55.3125V359.243H55.3197C55.2912 361.688 56.8889 364.139 60.1058 366C66.5254 369.709 76.9642 369.688 83.4264 365.958C86.6433 364.096 88.2624 361.673 88.2908 359.243H88.2979V341.602H88.2908Z" fill="url(#paint1_linear_710_3208)"/>
<path d="M127.626 312.516C122.605 309.617 114.439 309.631 109.383 312.552C104.334 315.472 104.305 320.189 109.326 323.088C114.347 325.987 122.513 325.973 127.569 323.053C132.625 320.133 132.647 315.415 127.626 312.516Z" fill="#C4C7D7"/>
<path d="M125.503 313.732C121.647 311.508 115.377 311.515 111.5 313.76C107.622 315.999 107.601 319.622 111.457 321.846C115.313 324.07 121.576 324.063 125.461 321.818C129.338 319.58 129.352 315.956 125.503 313.732Z" fill="#E5E7EC"/>
<path d="M152.707 327.008C147.686 324.109 139.52 324.124 134.463 327.044C129.407 329.964 129.386 334.682 134.407 337.581C139.427 340.479 147.594 340.465 152.65 337.545C157.699 334.632 157.727 329.914 152.707 327.008Z" fill="#C4C7D7"/>
<path d="M100.662 329.246L88.8314 331.69C81.4035 328.45 71.5611 328.372 65.6599 331.782L35.5078 349.197L66.0931 366.86L96.2452 349.445C99.1852 347.747 100.627 345.481 100.655 343.101L100.669 343.094V329.246H100.662Z" fill="#E8E6EA"/>
<path d="M100.648 329.125V329.267L101.345 329.125H100.648Z" fill="#BEC7AB"/>
<path d="M96.2453 335.449L66.0931 352.863L35.5078 335.2L65.6599 317.786C72.2073 314.006 83.6405 314.482 91.1962 318.844L94.406 320.699C101.969 325.061 102.786 331.669 96.2453 335.449Z" fill="#F3F2F4"/>
<path d="M77.1838 340.484H24.4141V358.013H24.4212C24.3786 361.928 26.928 365.842 32.0836 368.827C42.3521 374.759 59.0614 374.731 69.3938 368.755C74.5422 365.786 77.1342 361.899 77.1768 358.013L77.1838 340.484Z" fill="url(#paint2_linear_710_3208)"/>
<path d="M69.5093 329.658C59.2408 323.725 42.5315 323.753 32.1991 329.721C21.8667 335.69 21.8097 345.346 32.0853 351.278C42.3538 357.211 59.0633 357.183 69.3957 351.207C79.7281 345.239 79.7777 335.59 69.5093 329.658Z" fill="#F5F5F5"/>
<path d="M69.2434 347.042C68.377 347.852 67.3331 348.612 66.1188 349.316C57.6256 354.225 43.8846 354.247 35.4411 349.373C34.2694 348.698 33.261 347.959 32.4089 347.177C27.1681 342.346 28.2191 335.88 35.5334 331.645C44.0337 326.736 57.7677 326.707 66.2111 331.589C73.4544 335.773 74.4557 342.204 69.2434 347.042Z" fill="url(#paint3_linear_710_3208)"/>
<path d="M69.192 347.04C68.3257 347.85 67.2818 348.61 66.0674 349.314C57.5743 354.224 43.8332 354.245 35.3898 349.371C34.2181 348.696 33.2097 347.957 32.3575 347.175C32.1658 344.305 33.9767 341.392 37.783 339.189C45.005 335.018 56.6723 334.997 63.8517 339.139C67.6012 341.314 69.3838 344.191 69.192 347.04Z" fill="#E5E3E9"/>
<path d="M250.412 120.562C250.313 120.619 250.221 120.69 250.093 120.726C248.658 121.124 247.259 121.543 245.782 121.735C245.221 121.806 244.859 121.564 244.66 121.202C244.021 122.133 243.418 123.099 242.864 124.122C240.286 125.721 237.644 127.646 236.068 129.629C232.162 134.531 232.141 149.324 232.141 149.324L235.102 160.642L243.744 155.647V143.988C243.744 133.742 246.62 125.799 251.868 121.102C251.74 121.102 251.598 121.117 251.477 121.117C250.973 121.117 250.625 120.882 250.412 120.562Z" fill="#CACDDD"/>
<path d="M252.153 114.289C251.904 114.431 251.699 114.615 251.457 114.765C250.846 115.084 250.541 115.305 250.541 115.305L243.852 119.085L245.556 119.063C245.634 119.042 245.691 118.999 245.776 118.992C246.998 118.836 248.176 118.41 249.355 118.083C249.994 117.905 250.484 118.161 250.783 118.573C250.974 118.459 251.194 118.374 251.478 118.374C252.615 118.374 253.843 118.253 254.944 118.552C255.214 118.623 255.398 118.758 255.555 118.921L257.209 118.9L276.482 122.317L279.649 120.491C280.58 120.96 281.51 121.415 282.454 121.962L285.124 117.33C272.804 110.203 261.094 109.123 252.153 114.289Z" fill="#CACDDD"/>
<path d="M235.105 160.671H229.758V149.012C229.758 134.972 234.644 124.421 243.513 119.291C252.454 114.126 264.164 115.199 276.491 122.325L273.821 126.958C263.219 120.833 253.405 119.76 246.19 123.931C239.046 128.059 235.105 136.969 235.105 149.019V160.671Z" fill="#E2E0E7"/>
<path d="M258.579 156.966C280.075 168.888 304.035 192.477 312.095 209.65C320.155 226.83 309.261 231.086 287.765 219.163C266.27 207.241 242.303 183.652 234.243 166.472C226.183 149.299 237.076 145.043 258.579 156.966ZM286.8 217.103C306.875 228.237 317.044 224.258 309.517 208.222C301.989 192.185 279.613 170.16 259.545 159.026C239.469 147.892 229.3 151.871 236.828 167.907C244.348 183.951 266.724 205.969 286.8 217.103Z" fill="#E1E3E8"/>
<path d="M260.118 160.286C279.305 170.93 300.702 191.989 307.895 207.322C315.089 222.655 305.367 226.456 286.172 215.813C266.978 205.169 245.589 184.11 238.395 168.777C231.201 153.444 240.923 149.643 260.118 160.286Z" fill="#FCF7A6"/>
<path d="M273.014 171.087C282.771 176.494 293.643 187.201 297.3 194.995C300.957 202.79 296.015 204.722 286.258 199.308C276.501 193.894 265.628 183.194 261.971 175.4C258.314 167.605 263.257 165.673 273.014 171.087Z" fill="#FFFCC7"/>
<path d="M273.587 172.165C281.321 176.456 289.942 184.94 292.839 191.114C295.736 197.296 291.823 198.823 284.09 194.532C276.357 190.24 267.743 181.757 264.838 175.582C261.941 169.408 265.854 167.881 273.587 172.165Z" fill="#F0ECEE"/>
<path d="M259.566 159.017C279.635 170.15 302.011 192.176 309.538 208.212C317.066 224.249 306.89 228.227 286.821 217.094C266.746 205.96 244.377 183.934 236.849 167.898C229.322 151.862 239.491 147.883 259.566 159.017ZM286.218 215.822C305.405 226.465 315.134 222.664 307.941 207.331C300.747 191.999 279.351 170.939 260.163 160.296C240.968 149.652 231.247 153.454 238.44 168.786C245.641 184.119 267.03 205.179 286.218 215.822Z" fill="#CACDDD"/>
<path d="M287.053 191.858C284.816 187.09 278.162 180.539 272.189 177.228C266.217 173.917 263.192 175.104 265.436 179.871C267.673 184.639 274.327 191.19 280.299 194.501C286.264 197.812 289.29 196.632 287.053 191.858Z" fill="#F5F5F5"/>
<path d="M329.351 190.274C321.291 173.101 297.331 149.512 275.836 137.59C262.883 130.407 253.786 129.099 250.356 132.943L233.086 152.319C236.516 148.475 245.62 149.782 258.565 156.965C280.061 168.888 304.021 192.477 312.081 209.65C315.284 216.478 315.497 221.266 313.231 223.81L330.502 204.434C332.767 201.891 332.554 197.102 329.351 190.274Z" fill="url(#paint4_linear_710_3208)"/>
<path d="M288.228 137.238L267.258 125.124V116.172L288.228 128.286V137.238Z" fill="#E2E0E7"/>
<path d="M288.228 128.297L267.258 116.182L275.907 111.188L296.87 123.302L288.228 128.297Z" fill="#E5E7EC"/>
<path d="M288.227 128.284V137.236L296.869 132.241V123.289L288.227 128.284Z" fill="#DCDBE5"/>
<path d="M334.399 196.413C334.399 182.849 329.826 167.488 321.524 153.157C314.778 141.512 306.193 131.636 296.869 124.68L288.227 129.675C288.227 129.675 307.208 150.897 313.33 163.687C319.451 176.483 323.683 196.867 323.683 196.867L325.75 213.06L334.392 208.065V196.413H334.399Z" fill="url(#paint5_linear_710_3208)"/>
<path d="M325.765 201.397V213.056H320.418V201.397C320.418 178.831 306.641 151.931 288.234 136.485V129.664C297.558 136.62 306.144 146.489 312.89 158.141C321.192 172.465 325.765 187.826 325.765 201.397Z" fill="#E2E0E7"/>
<path d="M288.446 118.938V102.397H287.111C286.984 102.312 286.856 102.227 286.707 102.142C284.406 100.813 280.678 100.806 278.391 102.127C278.242 102.213 278.1 102.305 277.972 102.397H276.68V118.938C276.687 119.805 277.269 120.672 278.412 121.332C280.72 122.661 284.441 122.668 286.728 121.347C287.885 120.686 288.454 119.812 288.446 118.938Z" fill="url(#paint6_linear_710_3208)"/>
<path d="M286.73 104.781C284.443 106.102 280.715 106.095 278.414 104.766C276.113 103.438 276.099 101.285 278.386 99.9633C280.672 98.6417 284.401 98.6489 286.701 99.9775C289.009 101.306 289.023 103.459 286.73 104.781Z" fill="#E5E3E9"/>
<path d="M286.4 104.276C284.313 105.484 280.918 105.477 278.816 104.262C276.714 103.047 276.707 101.086 278.795 99.878C280.883 98.6702 284.277 98.6773 286.379 99.8922C288.474 101.107 288.481 103.068 286.4 104.276Z" fill="#F5F5F5"/>
<path d="M284.43 103.149C283.4 103.746 281.717 103.739 280.68 103.142C279.644 102.546 279.637 101.572 280.666 100.975C281.696 100.379 283.379 100.386 284.416 100.982C285.453 101.579 285.46 102.553 284.43 103.149Z" fill="#BABDCC"/>
<path d="M128.392 317.791H108.586V81.4278C108.586 69.7613 114.878 58.9119 125.004 53.1284L210.526 4.24578C218.444 -0.280125 227.945 -1.2393 236.609 1.61692L361.458 42.748C366.493 44.4034 370.093 48.8796 370.64 54.1586C371.187 59.4306 368.573 64.5533 363.979 67.2106L320.504 92.3198C317.295 94.1742 313.651 94.9984 309.959 94.7L293.036 93.3287V112.995H273.224V88.3339C273.224 84.0993 275.006 80.021 278.117 77.1505C281.227 74.2801 285.431 72.8307 289.649 73.1646L311.031 74.8982L341.78 57.1357L230.395 20.4453C227.058 19.344 223.386 19.7134 220.333 21.4613L134.825 70.3368C130.856 72.6033 128.392 76.8521 128.392 81.4278V317.791Z" fill="#E5E7EC"/>
<path d="M290.113 108.959C286.257 106.735 279.986 106.742 276.109 108.987C272.232 111.225 272.21 114.849 276.066 117.073C279.922 119.296 286.193 119.289 290.07 117.051C293.947 114.806 293.969 111.19 290.113 108.959Z" fill="#E5E7EC"/>
<path d="M117.025 315.741H111.508V79.3849C111.508 70.2763 116.422 61.8071 124.326 57.2883L214.435 5.75545C220.599 2.23135 227.998 1.49243 234.737 3.7092L359.586 44.8331C361.986 45.6218 363.634 47.6752 363.897 50.1903C364.152 52.7055 362.959 55.0502 360.772 56.3149L316.957 81.623C315.011 82.7456 312.795 83.2501 310.551 83.0653L286.776 81.147C285.107 81.0049 280.79 84.195 280.605 85.6871V110.32H275.087V85.6587C275.087 83.1577 276.884 80.9765 278.389 79.591C280.697 77.4595 284.319 75.3848 287.223 75.6477L311.006 77.566C312.128 77.6655 313.229 77.4097 314.202 76.8484L358.017 51.5403C358.386 51.3271 358.436 51.0003 358.414 50.7658C358.393 50.5314 358.272 50.2259 357.868 50.0909L233.019 8.95982C227.764 7.22619 221.991 7.80881 217.176 10.5585L127.06 62.0913C120.867 65.6296 117.025 72.2586 117.025 79.392V315.741Z" fill="#F0F1F4"/>
<path d="M453.906 593.256L372.766 546.384C368.044 543.655 362.157 542.156 356.178 542.156C350.908 542.156 346.101 543.329 342.259 545.545L107.261 681.294C101.779 684.463 98.6328 689.564 98.6328 695.284C98.6328 701.458 102.304 707.114 108.717 710.816L155.962 738.106C143.904 754.362 149.258 773.851 172.111 787.053C202.135 804.396 250.971 804.311 281.187 786.854C311.403 769.397 311.553 741.19 281.528 723.846C281.336 723.74 281.138 723.64 280.953 723.526L455.369 622.777C460.851 619.608 463.997 614.507 463.997 608.787C463.99 602.613 460.319 596.957 453.906 593.256Z" fill="#D9D7D7"/>
<path d="M154.38 559.717L81.2079 517.442L78.9922 501.008L88.7425 505.157L100.999 524.838L112.965 529.933L127.416 521.186L141.434 527.155L153.727 547.134L247.656 588.514L233.631 582.546L202.08 575.497L187.728 574.943L189.226 563.206L179.476 559.049L154.38 559.717Z" fill="#76A2F1"/>
<path d="M448.015 603.012L444.805 603.587C444.201 603.09 443.519 602.621 442.745 602.173L356.073 552.104C349.711 548.431 340.003 548.026 334.492 551.209L153.124 655.98L145.859 657.287V663.454H145.874C145.881 665.906 147.649 668.492 151.129 670.496L237.8 720.565C244.163 724.238 253.871 724.643 259.381 721.46L444.301 614.643C446.779 613.208 447.993 611.282 448.008 609.264L448.022 609.257L448.015 603.012Z" fill="url(#paint7_linear_710_3208)"/>
<path d="M149.578 651.807L334.497 544.99C340.007 541.807 349.715 542.212 356.078 545.886L442.75 595.955C449.112 599.628 449.808 605.234 444.298 608.417L259.378 715.234C253.868 718.417 244.16 718.012 237.797 714.339L151.126 664.27C144.763 660.596 144.067 654.99 149.578 651.807Z" fill="#E5E3E9"/>
<path d="M438.681 601.89V557.433L427.979 544.303L391.294 529.297L343.914 517.531V549L438.681 601.89Z" fill="#EBE8EC"/>
<path d="M349.407 547.617L438.692 601.878L252.509 709.427L157.734 656.544L256.649 599.377L349.407 547.617Z" fill="#EBE8EC"/>
<path d="M349.407 503.156L438.692 557.417L252.509 664.966L157.734 612.084L256.649 554.916L349.407 503.156Z" fill="#F5F0F0"/>
<path d="M252.508 709.419V664.963L262.898 613.757L226.219 559.055L157.734 612.08V656.536L252.508 709.419Z" fill="#CACDDD"/>
<path d="M252.508 664.984L157.734 612.101L178.832 564.938L262.898 613.778L252.508 664.984Z" fill="#B7BACB"/>
<path d="M448.673 547.456L403.956 542.809L384.172 531.377C372.866 524.848 360.24 520.94 347.224 519.952L253.422 512.805L346.102 566.342L437.325 570.263C439.179 570.342 440.486 569.219 440.997 567.805L448.673 547.456Z" fill="#E6E4E9"/>
<path d="M261.043 513.195L186.159 554.916L185.214 550.618L164.266 553.318V569.169V569.226H164.273C164.28 570.405 164.862 571.585 166.034 572.267L248.317 619.8C253.984 623.075 260.993 622.997 266.589 619.601L353.722 566.732V557.183L261.043 513.195Z" fill="#E6E4E9"/>
<path d="M448.693 547.482L406.902 535.091L387.117 523.659C375.812 517.129 363.186 513.221 350.169 512.234L256.367 505.086L349.047 558.623L440.271 562.545C442.124 562.623 443.431 561.5 443.942 560.086L448.693 547.482Z" fill="#566CBB"/>
<path d="M444.927 550.053L353.703 546.131L261.023 492.594L354.832 499.741C367.849 500.729 380.475 504.637 391.781 511.166L446.972 543.047C450.36 545.015 448.847 550.223 444.927 550.053Z" fill="#76A2F1"/>
<path d="M349.167 543.495L261.742 492.992L354.628 500.168C367.162 501.12 379.547 504.957 390.433 511.245L445.625 543.126C446.207 543.46 446.214 543.957 446.121 544.319C446.043 544.618 445.809 545.108 445.12 545.108L349.167 543.495Z" fill="#85ADF9"/>
<path d="M261.043 502.148L186.159 543.869L185.214 539.571L164.266 542.271V558.122V558.186H164.273C164.28 559.366 164.862 560.545 166.034 561.22L248.317 608.753C253.984 612.029 260.993 611.95 266.589 608.554L353.722 555.685V546.136L261.043 502.148Z" fill="#566CBB"/>
<path d="M353.724 546.138L266.591 599.007C260.995 602.403 253.986 602.481 248.319 599.206L166.036 551.673C163.657 550.294 163.678 546.848 166.085 545.505L261.045 492.594L353.724 546.138Z" fill="#76A2F1"/>
<path d="M171.173 543.549L261.786 493.039L349.211 543.542L265.621 594.251C260.621 597.285 254.358 597.356 249.295 594.429L171.13 549.276C168.915 547.997 168.943 544.792 171.173 543.549Z" fill="#94BBFF"/>
<path d="M154.614 560.655L81.4342 518.379L79.2188 501.945L88.9688 506.095L101.233 525.776L113.192 530.87L127.643 522.124L141.661 528.092L153.953 548.071L247.883 589.452L233.865 583.483L202.306 576.435L187.962 575.881L189.46 564.143L179.71 559.987L154.614 560.655Z" fill="#76A2F1"/>
<path d="M70.3516 539.532L79.8174 521.492L152.989 563.76L143.523 581.8L70.3516 539.532Z" fill="#CACDDD"/>
<path d="M75.0625 530.604L81.4749 518.383L157.707 554.839L148.241 572.872L75.0625 530.604Z" fill="#6075C0"/>
<path d="M222.75 604.641L232.216 586.602L246.234 592.57L236.768 610.61L222.75 604.641Z" fill="#EBE8EC"/>
<path d="M68.1328 523.094L77.5989 505.055L79.8144 521.496L70.3485 539.536L68.1328 523.094Z" fill="#CCCDC7"/>
<path d="M191.242 597.587L200.708 579.547L232.259 586.595L222.793 604.635L191.242 597.587Z" fill="#E6E4E9"/>
<path d="M176.875 597.032L186.341 578.992L200.693 579.546L191.227 597.586L176.875 597.032Z" fill="#E6E4E9"/>
<path d="M178.373 585.313L187.839 567.273L186.341 579.011L176.875 597.051L178.373 585.313Z" fill="#CACDDD"/>
<path d="M143.531 581.818L152.997 563.778L178.093 563.117L168.627 581.157L143.531 581.818Z" fill="#E6E4E9"/>
<path d="M100.65 551.4L95.4871 554.036L70.3557 539.521L68.1328 523.094L77.883 527.236L90.1469 546.917L100.65 551.4Z" fill="#CCCDC7"/>
<path d="M102.118 552.003L100.648 551.385L116.555 543.242L102.118 552.003Z" fill="#CCCDC7"/>
<path d="M236.795 610.634L233.543 616.808L176.874 602.598L94.0938 554.781L95.4786 554.07L143.526 581.823L168.615 581.169L178.365 585.326L176.874 597.056L191.219 597.61L222.77 604.658L236.795 610.634Z" fill="#7E869D"/>
<path d="M178.37 585.321L176.879 597.051L143.531 581.818L168.62 581.164L178.37 585.321Z" fill="#CACDDD"/>
<path d="M236.796 610.617L233.543 616.791L176.875 597.039L191.22 597.593L222.771 604.641L236.796 610.617Z" fill="#CACDDD"/>
<path d="M168.602 581.157L178.068 563.117L187.818 567.267L178.352 585.306L168.602 581.157Z" fill="#EBE8EC"/>
<path d="M103.704 545.572L98.5416 548.208L73.4101 533.693L71.1875 517.266L80.9375 521.408L93.2013 541.089L103.704 545.572Z" fill="#CCCDC7"/>
<path d="M227.461 595.713L233.873 583.492L247.891 589.46L241.479 601.681L227.461 595.713Z" fill="#4860B5"/>
<path d="M72.8438 514.166L79.2563 501.945L81.4718 518.379L75.0594 530.6L72.8438 514.166Z" fill="#566CBB"/>
<path d="M195.953 588.657L205.419 570.617L233.924 583.484L227.511 595.705L195.953 588.657Z" fill="#566CBB"/>
<path d="M181.586 588.094L191.052 570.055L205.397 570.609L195.93 588.649L181.586 588.094Z" fill="#4860B5"/>
<path d="M183.084 576.385L189.497 564.164L191.052 570.083L181.586 588.122L183.084 576.385Z" fill="#455DB4"/>
<path d="M148.242 572.876L157.708 554.844L179.751 559.995L173.338 572.216L148.242 572.876Z" fill="#566CBB"/>
<path d="M173.312 572.229L179.725 560.008L189.475 564.164L183.063 576.385L173.312 572.229Z" fill="#4860B5"/>
<path d="M90.3129 540.841L70.7347 529.537C66.8361 527.284 64.4216 525.231 64.1447 523.945L64.1022 523.703C63.9034 522.73 64.9401 522.268 67.0705 522.396L73.7527 522.801C74.8179 522.865 76.1175 523.071 77.623 523.419C83.1549 524.705 90.4834 527.661 95.9442 530.815L116.432 542.645C121.892 545.8 124.286 548.464 122.425 549.296C121.921 549.523 121.125 549.608 120.06 549.544L113.378 549.139C111.248 549.012 108.18 548.301 104.665 547.129L103.798 546.844C99.1684 545.303 94.2115 543.093 90.3129 540.841Z" fill="#76A2F1"/>
<path d="M121.316 547.044C121.138 547.044 120.946 547.037 120.747 547.023L114.065 546.618C112.055 546.497 109.087 545.808 105.693 544.671L104.826 544.38C100.26 542.86 95.4385 540.707 91.5896 538.49L72.0112 527.179C67.793 524.742 66.3941 523.171 66.1172 522.61C66.3018 522.575 66.5859 522.539 67.012 522.539C67.1966 522.539 67.3884 522.546 67.5943 522.56L74.2765 522.958C75.2778 523.015 76.4992 523.214 77.9194 523.548C83.3235 524.798 90.5386 527.712 95.8716 530.795L116.359 542.632C120.116 544.799 121.642 546.291 122.125 546.988C121.94 547.016 121.678 547.044 121.316 547.044Z" fill="#94BBFF"/>
<path d="M119.774 556.369C119.262 556.596 118.474 556.682 117.409 556.618L110.727 556.213C109.299 556.127 107.453 555.779 105.337 555.211C104.293 554.927 103.178 554.593 102.013 554.202L101.147 553.918C100.593 553.733 100.039 553.541 99.4854 553.342C95.8212 552.014 92.0505 550.33 88.8478 548.582C88.443 548.362 88.0452 548.134 87.6617 547.914L68.0835 536.61C65.5342 535.139 63.624 533.754 62.5233 532.61C61.941 532.006 61.5858 531.466 61.4935 531.018L61.451 530.776C61.4084 530.585 61.4226 530.407 61.4794 530.258L57.5735 540.617C57.5167 540.766 57.5096 540.944 57.5451 541.136L57.5878 541.37C57.6802 541.818 58.0351 542.358 58.6174 542.962C59.7181 544.106 61.6285 545.491 64.1779 546.962L83.7561 558.266C84.1396 558.486 84.5372 558.714 84.942 558.934C88.1446 560.682 91.9084 562.373 95.5798 563.694C96.1337 563.893 96.6946 564.085 97.2414 564.27L98.1078 564.554C99.2724 564.945 100.387 565.279 101.431 565.563C103.554 566.131 105.401 566.48 106.821 566.565L113.503 566.97C114.569 567.034 115.364 566.948 115.868 566.721C116.166 566.586 116.358 566.408 116.443 566.181L120.349 555.822C120.264 556.056 120.072 556.234 119.774 556.369Z" fill="#E6E4E9"/>
<path d="M122.438 549.322C121.934 549.549 121.138 549.635 120.073 549.571L113.391 549.166C111.963 549.081 110.117 548.732 108.001 548.164C106.957 547.88 105.842 547.546 104.678 547.155L103.811 546.871C103.264 546.686 102.703 546.494 102.149 546.295C98.4851 544.974 94.7145 543.283 91.5118 541.535C91.107 541.315 90.7094 541.094 90.3259 540.867L70.7475 529.563C68.1982 528.092 66.288 526.707 65.1873 525.563C64.605 524.959 64.2498 524.419 64.1574 523.971L64.115 523.73C64.0724 523.538 64.0866 523.36 64.1434 523.211L60.2377 533.57C60.1809 533.719 60.1736 533.897 60.2091 534.089L60.2518 534.33C60.3441 534.778 60.6991 535.318 61.2814 535.922C62.375 537.066 64.2925 538.451 66.8419 539.922L86.4201 551.233C86.8035 551.454 87.2012 551.681 87.6059 551.901C90.8086 553.649 94.5724 555.34 98.2438 556.662C98.8048 556.861 99.3588 557.06 99.9056 557.237L100.772 557.521C101.936 557.912 103.051 558.246 104.095 558.53C106.211 559.106 108.058 559.447 109.485 559.532L116.167 559.937C117.233 560.001 118.028 559.916 118.532 559.688C118.83 559.553 119.022 559.369 119.107 559.148L123.013 548.789C122.928 549.002 122.743 549.187 122.438 549.322Z" fill="#566CBB"/>
<path d="M151.858 587.672L177.408 602.429L144.998 597.896L137.449 594.145L111.898 579.388L118.758 569.156L151.858 587.672Z" fill="#7E869D"/>
<path d="M177.428 602.43L170.568 612.661L137.469 594.145L144.329 583.914L177.428 602.43Z" fill="#959AB1"/>
<path d="M366.238 483.567C366.238 483.567 377.891 476.839 382.486 475.83C387.08 474.821 392.797 479.752 393.471 481.55C394.146 483.347 380.362 492.761 376.101 497.92C371.841 503.078 353.576 507.114 353.576 507.114C353.576 507.114 348.201 497.245 348.421 495.454C348.641 493.664 361.082 487.433 361.082 487.433L366.238 483.567Z" fill="#FFF4FF"/>
<path d="M372.158 484.133C372.719 484.246 375.517 488.616 370.361 491.87C365.206 495.124 356.131 496.467 350.975 495.458C345.819 494.449 349.853 490.527 349.853 490.527L369.573 484.14L372.158 484.133Z" fill="url(#paint8_linear_710_3208)"/>
<path d="M377.702 487.851C377.702 487.851 392.827 478.699 398.04 478.23C403.252 477.761 408.124 482.074 407.903 486.785C407.683 491.496 404.651 497.769 400.511 501.251C396.364 504.725 387.736 509.209 384.938 512.349C382.133 515.489 376.31 521.77 371.602 522.438C366.893 523.113 360.843 519.525 360.623 517.728C360.396 515.937 363.087 497.883 364.429 496.199C365.764 494.522 377.702 487.851 377.702 487.851Z" fill="#FFF4FF"/>
<path d="M387.205 489.369C387.205 489.369 392.134 490.044 389.449 497.554C386.758 505.064 378.13 511.232 374.771 513.029C371.412 514.827 364.055 515.21 361.066 513.058C358.076 510.905 360.746 498.194 366.47 494.627C372.193 491.06 378.4 487.472 378.4 487.472C378.4 487.472 384.436 486.897 387.205 489.369Z" fill="url(#paint9_linear_710_3208)"/>
<path d="M372.656 506.193C370.803 510.186 368.31 514.264 366.123 517.063C364.533 519.081 363.126 520.438 362.196 520.659C360.016 521.17 321.718 514.939 319.034 516.623C316.343 518.307 302.9 541.178 294.158 552.276C285.416 563.374 278.691 574.139 260.377 579.517C252.842 581.727 244.534 581.62 237.156 580.448C226.546 578.792 217.861 574.97 216.164 572.788C213.309 569.087 243.902 522.335 250.627 515.948C257.352 509.56 302.396 478.952 305.925 478.277C309.461 477.602 342.902 487.023 348.284 488.529C353.66 490.05 368.452 492.068 368.452 492.068C371.989 493.752 375.845 499.294 372.656 506.193Z" fill="#4079FF"/>
<path d="M314.844 480.782C314.844 480.782 292.489 472.206 286.602 472.369C280.722 472.54 232.313 499.426 228.947 500.953C225.588 502.474 223.734 511.561 229.955 520.137C236.176 528.713 264.41 519.299 264.41 519.299L316.854 492.555L314.844 480.782Z" fill="#4079FF"/>
<path d="M366.158 517.073C364.568 519.091 363.161 520.448 362.231 520.668C360.051 521.18 321.754 514.949 319.069 516.633C316.378 518.317 302.935 541.188 294.194 552.286C285.452 563.384 278.727 574.148 260.413 579.527C252.878 581.737 244.57 581.63 237.192 580.458C236.758 579.598 236.574 578.632 236.723 577.509C239.038 578.596 241.736 578.219 244.279 578.411C245.393 578.489 246.494 578.681 247.616 578.625C255.385 578.234 264.624 575.37 271.164 571.086C277.016 567.278 282.299 562.595 286.78 557.245C289.201 554.354 291.389 551.27 293.569 548.193C297.375 542.822 301.38 537.742 304.824 532.157C308.375 526.36 311.642 520.185 315.583 514.643C315.931 514.132 316.335 513.798 316.769 513.57C318.352 512.711 320.412 513.45 322.485 513.663C325.887 514.025 329.288 514.359 332.69 514.686C342.127 515.574 351.586 516.299 361.052 516.896C362.515 516.981 364.433 516.803 366.158 517.073Z" fill="#F2CBBC"/>
<path d="M367.896 502.147C367.584 502.915 366.703 503.327 365.879 503.355C365.048 503.384 364.246 503.107 363.451 502.879C358.948 501.558 354.191 501.472 349.504 501.394C338.021 501.202 326.538 501.011 315.055 501.252C313.259 501.288 311.419 501.33 309.715 500.776C308.039 500.229 306.591 499.121 305.383 497.842C303.643 496.002 302.316 493.707 301.953 491.198C301.591 488.69 302.273 485.983 304.048 484.172C306.86 481.308 311.412 481.344 315.41 481.678C326.552 482.608 337.659 484.314 348.375 487.497C351.506 488.428 354.624 489.486 357.869 489.87C360.674 490.204 364.303 490.36 366.092 492.961C367.356 494.829 368.706 500.165 367.896 502.147Z" fill="#457DFF"/>
<path d="M257.68 552.821C254.172 552.821 250.436 552.345 246.055 551.35L246.651 548.728C251.381 549.801 255.308 550.242 258.972 550.107C265.704 549.865 272.472 548.33 279.083 545.559C284.629 543.229 289.06 539.953 294.379 534.248C300.5 527.676 305.485 519.924 310.307 512.428C311.628 510.368 312.956 508.314 314.298 506.275C315.619 504.279 316.848 502.517 318.587 501.131C321.158 499.078 324.559 500.023 327.286 500.783C327.989 500.982 328.664 501.167 329.303 501.302C333.536 502.161 337.015 502.808 340.232 503.312C350.842 504.989 362.154 505.707 371.918 506.247L371.769 508.933C361.934 508.393 350.543 507.668 339.806 505.97C336.539 505.451 333.031 504.805 328.756 503.938C328.068 503.796 327.322 503.59 326.555 503.376C324.197 502.716 321.754 502.034 320.249 503.234C318.815 504.378 317.714 505.963 316.528 507.76C315.186 509.785 313.872 511.839 312.551 513.885C307.666 521.48 302.617 529.338 296.332 536.081C290.736 542.085 286.035 545.552 280.105 548.039C273.196 550.938 266.116 552.544 259.05 552.792C258.61 552.814 258.148 552.821 257.68 552.821Z" fill="#6696FF"/>
<path d="M282.568 492.204C280.452 494.201 278.321 496.197 275.942 497.867C274.465 498.897 272.903 499.793 271.341 500.688C266.817 503.274 262.287 505.86 257.763 508.454C254.816 510.137 251.841 511.836 248.617 512.916C245.393 513.988 241.863 514.415 238.59 513.505C236.999 513.065 235.458 512.283 234.4 511.011C232.326 508.51 232.66 504.659 234.343 501.888C236.026 499.11 238.789 497.192 241.515 495.43C252.849 488.126 265.042 482.264 277.455 477.007C279.862 475.99 282.298 474.989 284.869 474.527C287.859 473.994 298.546 475.408 295.073 480.666C293.781 482.627 291.054 484.232 289.343 485.845C287.085 487.955 284.826 490.08 282.568 492.204Z" fill="#457DFF"/>
<path d="M266.31 483.978C265.976 484.866 257.462 487.339 257.462 487.339L249.444 490.92L249.026 492.142L248.713 493.058L253.982 493.271C253.982 493.271 262.049 493.392 262.831 493.904C263.612 494.43 264.514 496.526 262.937 497.094C262.816 497.137 262.639 497.172 262.412 497.215C259.642 497.698 249.438 498.046 249.438 498.046C249.438 498.046 246.696 499.552 243.778 500.121C240.873 500.675 236.613 499.325 236.044 498.884C235.49 498.437 220.393 497.904 217.446 498.884C217.446 498.884 216.892 498.465 216.09 497.819C213.562 495.772 208.506 491.495 210.323 491.183C212.731 490.778 235.377 490.806 236.052 490.351C236.726 489.896 245.468 483.516 245.468 483.516L260.487 480.461L264.535 482.18C264.535 482.18 265.33 482.514 265.87 482.99C266.204 483.275 266.445 483.63 266.31 483.978Z" fill="url(#paint10_linear_710_3208)"/>
<path d="M253.005 496.968C256.137 497.06 259.276 497.16 262.408 497.238C259.638 497.721 249.434 498.069 249.434 498.069C249.434 498.069 246.692 499.575 243.774 500.144C240.869 500.698 236.609 499.348 236.041 498.908C235.487 498.46 220.389 497.927 217.442 498.908C217.442 498.908 216.888 498.488 216.086 497.842C219.814 497.799 223.521 497.771 227.249 497.749C229.28 497.735 231.361 498.055 233.37 497.899C234.876 497.778 236.332 497.821 237.794 498.218C239.477 498.687 241.018 499.561 242.758 499.831C245.648 500.286 247.438 498.744 249.753 497.451C250.705 496.918 251.89 496.932 253.005 496.968Z" fill="#F2CBBC"/>
<path d="M266.307 484.003C265.973 484.891 257.459 487.364 257.459 487.364L249.441 490.945L249.022 492.167C248.419 492.21 247.822 492.259 247.219 492.33C247.851 491.336 248.319 490.313 248.909 489.261C249.193 488.764 249.527 488.266 249.995 487.925C250.585 487.506 251.337 487.385 252.055 487.264C255.889 486.618 259.682 485.68 263.388 484.465C264.383 484.131 265.149 483.62 265.852 483.016C266.2 483.3 266.442 483.655 266.307 484.003Z" fill="#F2CBBC"/>
<path d="M203.416 493.226C207.392 492.239 211.376 492.302 215.445 492.096C218.932 491.919 222.419 491.741 225.913 491.564C228.831 491.414 231.75 491.258 234.668 491.123C235.357 491.095 236.92 490.803 236.515 491.812C236.259 492.452 235.017 493.013 234.449 493.333C232.517 494.427 230.408 495.052 228.206 495.301C223.69 495.805 219.117 495.329 214.579 495.585C212.591 495.699 210.602 495.947 208.607 495.926C206.611 495.905 204.581 495.585 202.834 494.626C202.684 494.541 202.528 494.448 202.443 494.292C202.173 493.802 202.869 493.361 203.416 493.226Z" fill="#FEB9B8"/>
<path d="M249.38 512.146C249.38 512.146 265.968 528.964 264.846 548.247C263.724 567.53 258.803 572.802 250.729 576.952C242.655 581.101 229.972 582.558 225.895 583.005C221.819 583.453 192.008 572.468 188.876 570.223C185.737 567.978 155.258 546.002 147.639 540.623C140.019 535.245 125.674 531.955 119.851 514.541C114.021 497.126 123.885 487.421 123.885 487.421C123.885 487.421 136.887 476.671 143.385 475.683C149.883 474.695 160.421 474.695 162.658 474.695C164.902 474.695 191.12 479.406 196.95 481.196C202.781 482.994 211.593 493.289 216.039 495.762C220.484 498.234 232.812 503.393 234.829 504.288C236.824 505.19 249.38 512.146 249.38 512.146Z" fill="#FF9729"/>
<path d="M198.392 524.029C194.77 524.363 189.65 525.621 186.81 528.001C185.255 529.301 184.133 529.607 182.023 529.976C182.379 531.184 183.472 531.987 184.445 532.79C185.624 533.756 186.533 535.092 187.697 536.023C188.628 536.762 189.615 536.911 190.751 537.387C196.581 539.852 202.084 543.284 208.362 544.542C214.398 545.75 220.633 544.812 226.719 543.874C232.492 542.986 238.266 542.091 244.039 541.202C245.921 540.911 247.852 540.606 249.507 539.653C251.666 538.403 253.079 536.215 254.677 534.296C260.443 527.369 269.49 523.141 273.339 514.992C274.312 512.924 274.958 510.608 276.598 509.023C277.891 507.78 279.638 507.155 281.285 506.459C288.394 503.474 294.7 498.6 299.387 492.476C294.934 491.794 291.355 495.78 287.662 498.366C283.714 501.13 278.949 502.465 274.795 504.903C267.878 508.967 263.056 515.83 256.537 520.505C247.228 527.184 235.042 528.875 223.694 527.291C215.243 526.111 206.885 523.241 198.392 524.029Z" fill="#F2CBBC"/>
<path d="M149.259 460.251C147.242 464.962 147.917 471.513 149.088 472.358C150.267 473.204 155.813 479.087 157.66 480.43C159.506 481.772 164.385 481.268 164.718 485.808C165.052 490.348 159.506 499.77 150.764 502.796C142.023 505.823 136.647 505.489 133.451 504.48C130.256 503.471 108.071 487.492 111.267 479.591C114.463 471.69 127.238 461.765 127.238 461.765L143.713 455.711L149.259 460.251Z" fill="url(#paint11_linear_710_3208)"/>
<path d="M146.159 442.113C147.423 443.207 149.184 444.72 149.603 445.644C150.022 446.568 151.79 458.341 150.611 461.282C149.432 464.224 148.509 468.26 143.886 470.448C139.263 472.636 132.453 480.473 132.453 480.473C132.453 480.473 97.3229 452.28 100.014 447.74C102.706 443.2 105.475 442.191 108.252 441.431C111.028 440.678 120.8 438.909 120.8 438.909L129.428 431.398C129.428 431.398 132.339 431.512 132.9 432.855C133.461 434.198 133.348 439.242 133.348 439.242C133.348 439.242 139.625 440.138 141.081 440.251C142.544 440.372 146.159 442.113 146.159 442.113Z" fill="url(#paint12_linear_710_3208)"/>
<path d="M142.025 467.504C142.025 467.504 140.122 464.697 136.983 463.355C133.844 462.012 125.216 458.083 124.883 456.967C124.549 455.844 118.946 450.466 112.668 447.098C106.391 443.737 104.076 443.219 104.076 443.219C104.076 443.219 99.8931 444.292 97.429 447.212C94.9648 450.125 86.2233 464.477 85.3285 472.662C84.4337 480.847 89.0281 488.357 98.4373 493.068C107.065 502.035 121.971 503.399 132.055 498.063C142.139 492.727 143.147 483.76 143.147 483.76C143.147 483.76 139.809 483.469 139.114 480.478C138.411 477.487 137.878 472.548 138.553 471.54C139.227 470.531 142.025 467.504 142.025 467.504Z" fill="#36231F"/>
<path d="M146.416 472.618C147.339 473.627 148.518 475.24 144.988 478.217C141.459 481.194 138.732 480.569 136.922 479.091C135.111 477.613 136.325 474.458 138.221 473.03C140.11 471.609 145.472 470.842 146.416 472.618Z" fill="url(#paint13_linear_710_3208)"/>
<path d="M297.994 522.351C292.327 529.854 286.248 537.051 279.8 543.9C277.812 546.011 275.774 548.107 273.402 549.776C272.954 550.089 272.479 550.394 271.939 550.458C271.264 550.536 270.611 550.217 270.036 549.847C266.031 547.261 264.476 542.224 263.481 537.563C262.239 531.751 261.45 525.456 263.914 520.041C266.343 514.706 271.463 511.21 275.404 506.869C277.734 504.304 279.679 501.398 282.144 498.968C285.36 495.806 289.359 493.568 292.803 490.648C295.444 488.41 297.752 485.774 300.522 483.685C303.192 481.667 305.265 480.758 308.638 480.743C310.208 480.736 311.834 480.743 313.254 481.411C314.809 482.143 315.924 483.6 316.578 485.191C318.595 490.122 317.558 495.82 314.76 500.261C313.538 502.201 311.564 503.174 310.116 504.886C305.613 510.215 302.219 516.759 297.994 522.351Z" fill="#457DFF"/>
<path d="M87.5975 512.908C87.7821 513.05 87.9597 513.192 88.1443 513.334C90.715 515.31 93.3991 517.143 96.1757 518.805C97.7522 519.75 99.3857 520.66 100.671 521.974C103.845 525.228 104.371 530.095 106.75 533.847C109.441 538.088 112.388 542.33 115.541 546.252C117.458 548.632 119.426 550.97 121.18 553.478C122.117 554.814 125.795 559.304 125.376 561.002C125.682 559.752 125.987 558.508 126.271 557.251C127.4 552.185 128.089 547.02 128.323 541.833C128.515 537.605 128.394 533.314 127.237 529.25C125.81 524.226 122.877 519.779 119.88 515.508C117.238 511.743 114.668 507.515 111.529 504.14C109.342 501.796 106.281 500.389 103.966 498.058C100.366 494.428 100.394 486.044 93.314 486.605C86.3476 487.159 82.6975 497.675 82.7188 503.487C82.7259 505.291 82.9815 507.139 83.8124 508.744C84.6858 510.421 86.1133 511.729 87.5975 512.908Z" fill="#36231F"/>
<path d="M301.343 493.477C301.279 493.612 300.547 493.931 299.518 494.336C296.521 495.509 290.854 497.335 290.854 497.335C290.854 497.335 286.039 501.264 283.348 503.566C280.656 505.868 278.022 505.974 278.022 505.974C278.022 505.974 275.558 506.536 274.784 507.658C273.988 508.774 266.489 519.993 262.683 524.476C258.863 528.959 246.208 537.258 244.191 537.933C242.174 538.608 220.537 538.04 217.405 537.933C214.274 537.827 201.037 535.468 201.037 535.468C201.037 535.468 201.023 535.39 200.994 535.212C200.526 532.334 196.3 505.825 197.671 505.236C199.134 504.603 215.715 508.561 222.106 511.019C228.498 513.477 239.249 515.836 240.598 515.282C241.94 514.721 246.421 511.46 252.805 507.09C259.189 502.72 264.465 498.855 265.19 497.846C265.914 496.837 266.589 495.495 267.824 494.308C269.06 493.136 272.355 490.606 272.355 490.606L277.624 488.482L284.576 487.757L288.773 486.023L291.862 486.357L292.196 486.386L292.303 486.4L295.775 486.578C295.775 486.578 296.542 487.224 296.634 487.8C296.677 487.963 296.649 488.119 296.556 488.254C296.116 488.873 291.181 491.089 291.181 491.089L287.992 493.555L287.815 493.69L287.978 493.619L289.569 492.958C289.569 492.958 290.108 492.837 290.953 492.66C290.968 492.66 290.968 492.66 290.982 492.66C293.737 492.084 299.589 490.898 300.1 491.111C300.782 491.402 301.612 492.908 301.343 493.477Z" fill="url(#paint14_linear_710_3208)"/>
<path d="M284.719 491.502C285.202 490.628 285.94 489.953 286.778 489.406C286.011 490.01 285.308 490.699 284.719 491.502Z" fill="#F2CBBC"/>
<path d="M288.005 493.639L289.596 492.978C289.596 492.978 290.136 492.857 290.981 492.68C290.015 493.127 289.042 493.539 288.048 493.888C288.005 493.809 287.991 493.717 288.005 493.639Z" fill="#F2CBBC"/>
<path d="M288.398 488.427C287.873 488.711 287.333 489.017 286.836 489.343C288.356 488.143 290.131 487.219 291.892 486.359L292.226 486.388C290.941 487.041 289.662 487.724 288.398 488.427Z" fill="#F2CBBC"/>
<path d="M299.523 494.344C296.527 495.516 290.86 497.342 290.86 497.342C290.86 497.342 286.045 501.271 283.354 503.573C280.662 505.875 278.028 505.982 278.028 505.982C278.028 505.982 275.564 506.543 274.789 507.666C273.994 508.781 266.495 520 262.689 524.484C258.868 528.967 246.214 537.266 244.197 537.941C242.18 538.616 220.543 538.047 217.411 537.941C214.279 537.834 201.042 535.475 201.042 535.475C201.042 535.475 201.028 535.397 201 535.219C202.172 534.949 203.216 535.042 204.615 535.098C209.6 535.312 214.535 536.107 219.527 536.427C225.79 536.846 232.097 537.031 238.367 536.669C240.085 536.562 241.811 536.413 243.48 535.98C246.732 535.134 249.608 533.237 252.193 531.084C254.238 529.372 256.134 527.517 257.924 525.556C259.522 523.78 261.34 522.409 262.888 520.576C266.751 516.014 270.607 511.467 274.463 506.906C275.216 506.032 275.983 505.129 276.977 504.54C278.646 503.545 280.712 503.559 282.53 502.87C284.618 502.074 286.201 500.447 287.884 499.033C289.347 497.825 290.576 495.751 292.415 495.104C292.955 494.912 293.53 494.891 294.098 494.862C295.674 494.763 297.613 494.663 299.523 494.344Z" fill="#F2CBBC"/>
<path d="M288.369 492.906C289.967 491.158 291.934 489.759 294.114 488.814C294.931 488.451 295.811 488.153 296.642 487.805C296.685 487.968 296.656 488.124 296.564 488.259C296.124 488.878 291.189 491.094 291.189 491.094L288 493.56C288.021 493.325 288.206 493.098 288.369 492.906Z" fill="#F2CBBC"/>
<path d="M221.407 511.848C219.376 511.493 217.323 511.237 215.356 510.612C213.567 510.05 211.785 509.176 209.924 509.361C209.526 509.404 209.114 509.496 208.788 509.731C208.44 509.972 208.212 510.349 207.999 510.718C205.287 515.443 203.938 520.935 204.136 526.378C204.158 526.911 204.2 527.472 204.477 527.927C204.882 528.595 205.691 528.893 206.451 529.078C208.873 529.675 211.401 529.675 213.901 529.66C219.624 529.639 225.348 529.603 231.064 529.383C233.699 529.284 236.348 529.142 238.918 528.531C239.607 528.367 240.31 528.161 240.857 527.699C241.951 526.776 242.057 525.156 242.079 523.728C242.1 522.484 242.121 521.219 241.809 520.012C240.864 516.274 236.973 515.94 233.805 514.96C229.736 513.716 225.611 512.58 221.407 511.848Z" fill="#FEB9B8"/>
<path d="M263.834 500.527C265.986 499.29 270.51 498.438 271.774 501.479C272.484 503.198 270.595 504.882 269.693 506.118C268.131 508.25 266.568 510.381 264.921 512.442C261.647 516.549 258.068 520.442 253.935 523.703C251.009 526.013 247.452 528.08 243.766 527.505C242.197 527.256 240.741 526.545 239.314 525.842C239.044 525.714 238.767 525.565 238.611 525.309C238.483 525.096 238.461 524.84 238.454 524.591C238.433 523.533 238.689 522.481 239.044 521.479C239.654 519.746 240.563 518.112 241.721 516.684C243.091 514.985 244.782 513.586 246.493 512.243C251.975 507.916 257.777 503.994 263.834 500.527Z" fill="#FEB9B8"/>
<path d="M212.396 505.191C212.396 505.191 212.396 516.076 210.599 522.499C208.803 528.922 205.33 537.888 203.761 538.336C202.191 538.784 171.372 529.511 167.565 523.721C163.759 517.93 164.654 505.262 168.908 501.169C173.168 497.077 178.324 493.489 186.611 493.936C194.92 494.384 212.396 505.191 212.396 505.191Z" fill="#FF8300"/>
<path d="M149.814 328.638C146.384 326.655 140.802 326.662 137.351 328.659C133.9 330.656 133.878 333.874 137.315 335.856C140.745 337.839 146.327 337.832 149.778 335.835C153.222 333.839 153.243 330.62 149.814 328.638Z" fill="#E5E7EC"/>
<path d="M371.019 400.407H353.372V374.559C353.372 369.436 356.127 364.662 360.559 362.097L397.138 340.967L221.436 239.471C217.303 237.084 212.148 237.063 207.993 239.429L159.406 267.06C155.081 269.518 152.397 274.13 152.397 279.103V332.249H134.75V279.103C134.75 267.792 140.857 257.298 150.678 251.706L199.266 224.075C208.838 218.625 220.712 218.668 230.249 224.174L414.302 330.487C418.03 332.639 420.345 336.654 420.345 340.959C420.345 345.265 418.03 349.279 414.302 351.432L371.019 376.435V400.407Z" fill="#E5E7EC"/>
<path d="M361.452 398.149H355.935V375.818C355.935 374.497 356.19 367.733 361.204 364.45L408.534 337.103C408.697 337.01 408.783 336.861 408.783 336.669C408.783 336.478 408.697 336.335 408.534 336.236L224.481 229.923C218.488 226.463 211.024 226.435 205.009 229.859L154.278 258.713C148.952 261.747 142.596 267.786 142.596 279.36V334.005H137.078V279.36C137.078 268.262 142.219 259.225 151.551 253.917L202.283 225.064C209.995 220.68 219.56 220.708 227.237 225.149L411.289 331.461C413.178 332.549 414.3 334.502 414.3 336.677C414.3 338.858 413.178 340.805 411.289 341.892L364.087 369.161C362.027 370.511 361.445 373.992 361.445 375.825L361.452 398.149Z" fill="#F0F1F4"/>
<path d="M380.946 421.047L295.531 371.382L314.826 360.234L400.24 409.899L380.946 421.047Z" fill="#E5E3E9"/>
<path d="M295.531 371.382L314.826 360.234L397.321 408.208L378.027 419.349L295.531 371.382Z" fill="#F5F5F5"/>
<path d="M357.203 446.683L271.789 397.019L295.507 371.391L380.922 421.055L357.203 446.683Z" fill="#E3E1E8"/>
<path d="M271.789 397.019L295.507 371.391L378.33 419.549L354.611 445.177L271.789 397.019Z" fill="#EBE9EE"/>
<path d="M346.382 413.762L364.263 424.121C365.037 424.569 366.159 424.448 366.77 423.851L370.044 420.604C370.647 420 370.512 419.147 369.731 418.7L351.85 408.341C351.076 407.893 349.954 408.014 349.343 408.611L346.07 411.865C345.466 412.454 345.608 413.307 346.382 413.762Z" fill="#CACDDD"/>
<path d="M327.552 409.386L327.148 406.927L323.703 406.75L323.696 406.743C323.235 406.473 322.617 406.459 322.134 406.665L319.727 406.537L320.131 409.009V409.023C320.181 409.301 320.366 409.556 320.671 409.734L323.973 411.652C324.605 412.015 325.514 411.915 326.004 411.432L327.247 410.203C327.488 409.968 327.581 409.677 327.538 409.4L327.552 409.386Z" fill="#BEBEBE"/>
<path d="M313.383 410.231L313.376 410.224C312.914 409.954 312.296 409.947 311.814 410.146L309.406 410.018L309.811 412.491V412.505C309.861 412.782 310.045 413.038 310.358 413.215L313.66 415.127C314.285 415.489 315.201 415.39 315.691 414.906L316.934 413.677C317.175 413.436 317.267 413.151 317.225 412.874L316.82 410.395L313.383 410.231Z" fill="#BEBEBE"/>
<path d="M308.788 407.932L308.383 405.466L304.946 405.296L304.939 405.288C304.47 405.018 303.853 405.004 303.363 405.217L300.977 405.097L301.381 407.555C301.424 407.839 301.609 408.102 301.928 408.287L305.23 410.205C305.855 410.568 306.771 410.468 307.261 409.985L308.504 408.756C308.745 408.514 308.838 408.23 308.795 407.953H308.802L308.788 407.932Z" fill="#BEBEBE"/>
<path d="M320.282 407.28L323.584 409.191C324.216 409.553 325.125 409.454 325.615 408.971L326.858 407.742C327.348 407.258 327.234 406.562 326.609 406.2L323.307 404.289C322.682 403.926 321.766 404.026 321.276 404.509L320.034 405.738C319.544 406.221 319.65 406.91 320.282 407.28Z" fill="#D9DBE6"/>
<path d="M309.961 410.731L313.263 412.643C313.895 413.005 314.804 412.906 315.294 412.422L316.53 411.193C317.02 410.71 316.906 410.014 316.281 409.644L312.979 407.726C312.347 407.364 311.438 407.463 310.948 407.946L309.705 409.175C309.222 409.673 309.336 410.369 309.961 410.731Z" fill="#D9DBE6"/>
<path d="M301.469 405.842L304.771 407.761C305.396 408.123 306.312 408.024 306.802 407.54L308.045 406.311C308.535 405.828 308.421 405.132 307.789 404.769L304.487 402.851C303.855 402.489 302.946 402.588 302.456 403.071L301.213 404.3C300.73 404.784 300.844 405.473 301.469 405.842Z" fill="#D9DBE6"/>
<path d="M330.352 420.125L330.345 420.118C329.883 419.848 329.265 419.834 328.782 420.04L326.375 419.912L326.78 422.384V422.398C326.83 422.676 327.014 422.931 327.319 423.109L330.622 425.027C331.246 425.39 332.163 425.29 332.653 424.807L333.895 423.578C334.137 423.343 334.229 423.052 334.186 422.775V422.768L333.782 420.302L330.352 420.125Z" fill="#BEBEBE"/>
<path d="M325.702 417.807L325.297 415.341L321.86 415.171L321.853 415.163C321.384 414.893 320.767 414.879 320.277 415.092L317.891 414.972L318.295 417.43C318.338 417.714 318.523 417.977 318.842 418.162L322.144 420.08C322.776 420.442 323.685 420.343 324.175 419.86L325.418 418.631C325.659 418.389 325.752 418.105 325.709 417.828H325.716L325.702 417.807Z" fill="#BEBEBE"/>
<path d="M326.881 420.663L330.184 422.581C330.816 422.943 331.725 422.844 332.215 422.361L333.457 421.131C333.947 420.648 333.834 419.952 333.209 419.583L329.907 417.671C329.275 417.309 328.366 417.408 327.876 417.892L326.633 419.121C326.143 419.604 326.257 420.3 326.881 420.663Z" fill="#D9DBE6"/>
<path d="M318.444 415.717L321.746 417.636C322.371 417.998 323.287 417.899 323.777 417.415L325.02 416.186C325.51 415.703 325.396 415.007 324.771 414.644L321.469 412.726C320.837 412.364 319.928 412.463 319.438 412.946L318.195 414.175C317.705 414.659 317.819 415.355 318.444 415.717Z" fill="#D9DBE6"/>
<path d="M312.244 388.94L311.853 386.531L307.578 387L307.969 389.409C308.033 389.828 308.31 390.219 308.778 390.489C309.716 391.029 311.072 390.887 311.796 390.162C312.173 389.8 312.315 389.359 312.244 388.94Z" fill="#BEBEBE"/>
<path d="M306.244 385.448L305.853 383.039L301.578 383.508L301.969 385.917C302.04 386.329 302.317 386.727 302.785 386.997C303.723 387.537 305.079 387.394 305.803 386.67C306.166 386.307 306.307 385.867 306.244 385.448Z" fill="#BEBEBE"/>
<path d="M300.251 382.002L299.861 379.594L295.586 380.063L295.976 382.471C296.047 382.89 296.317 383.281 296.793 383.551C297.73 384.091 299.08 383.949 299.811 383.224C300.18 382.862 300.322 382.422 300.251 382.002Z" fill="#BEBEBE"/>
<path d="M361.5 417.524L361.891 419.933C361.954 420.352 362.232 420.743 362.707 421.013C363.645 421.553 365.001 421.411 365.725 420.686C366.087 420.324 366.23 419.883 366.166 419.471L365.775 417.062L361.5 417.524Z" fill="#D1814A"/>
<path d="M355.508 414.017L355.898 416.426C355.962 416.838 356.239 417.236 356.708 417.506C357.645 418.046 359.002 417.904 359.733 417.179C360.095 416.817 360.237 416.376 360.173 415.964L359.783 413.562L355.508 414.017Z" fill="#BEBEBE"/>
<path d="M354.181 412.479L353.791 410.07L349.516 410.539L349.906 412.948C349.97 413.367 350.247 413.758 350.723 414.028C351.66 414.568 353.017 414.426 353.748 413.701C354.11 413.332 354.252 412.891 354.181 412.479Z" fill="#BEBEBE"/>
<path d="M311.521 394.057C311.045 394.107 310.548 394.022 310.143 393.787L292.262 383.428C291.843 383.186 291.573 382.824 291.502 382.398C291.431 381.978 291.573 381.566 291.9 381.247L295.174 378C295.806 377.374 296.984 377.239 297.801 377.715L315.675 388.075C316.094 388.316 316.364 388.686 316.435 389.105C316.506 389.524 316.364 389.936 316.03 390.263L312.757 393.51C312.444 393.816 311.997 394.007 311.521 394.057ZM292.333 383.144L310.214 393.503C310.953 393.929 312.018 393.808 312.593 393.247L315.867 390C316.122 389.744 316.243 389.439 316.193 389.133C316.144 388.835 315.938 388.558 315.604 388.366L297.723 378.007C296.985 377.573 295.912 377.694 295.337 378.27L292.063 381.517C291.808 381.772 291.687 382.078 291.737 382.376C291.793 382.675 292.006 382.945 292.333 383.144Z" fill="#BEBEBE"/>
<path d="M291.541 388.594L291.378 387.578L289.958 387.535L288.736 386.832C288.523 386.711 288.211 386.739 288.048 386.91L287.479 387.471L286.492 387.443L286.656 388.459C286.67 388.558 286.734 388.643 286.84 388.707L289.461 390.228C289.674 390.349 289.986 390.32 290.149 390.15L291.435 388.871C291.527 388.793 291.555 388.693 291.541 388.594Z" fill="#BEBEBE"/>
<path d="M297.533 392.086L297.37 391.07L295.95 391.028L294.728 390.324C294.515 390.204 294.203 390.232 294.04 390.395L293.471 390.957L292.484 390.928L292.648 391.944C292.662 392.044 292.726 392.129 292.832 392.193L295.453 393.713C295.666 393.834 295.978 393.806 296.141 393.635L297.427 392.356C297.519 392.292 297.555 392.186 297.533 392.086Z" fill="#BEBEBE"/>
<path d="M286.683 387.714L289.303 389.235C289.516 389.356 289.828 389.327 289.992 389.157L291.277 387.878C291.44 387.714 291.405 387.48 291.192 387.352L288.572 385.832C288.359 385.711 288.046 385.739 287.883 385.91L286.597 387.189C286.427 387.352 286.469 387.594 286.683 387.714Z" fill="#D9DBE6"/>
<path d="M292.675 391.152L295.295 392.672C295.508 392.793 295.821 392.765 295.984 392.594L297.269 391.315C297.433 391.152 297.397 390.918 297.184 390.79L294.564 389.269C294.351 389.148 294.038 389.177 293.875 389.347L292.59 390.626C292.419 390.79 292.462 391.031 292.675 391.152Z" fill="#D9DBE6"/>
<path d="M303.526 395.586L303.362 394.57L301.942 394.527L300.72 393.824C300.507 393.703 300.195 393.731 300.032 393.902L299.463 394.463L298.477 394.435L298.64 395.451C298.654 395.55 298.718 395.643 298.824 395.7L301.445 397.22C301.658 397.341 301.97 397.312 302.134 397.142L303.419 395.863C303.511 395.785 303.54 395.678 303.526 395.586Z" fill="#BEBEBE"/>
<path d="M298.664 394.652L301.284 396.172C301.497 396.293 301.81 396.265 301.973 396.094L303.258 394.815C303.422 394.652 303.386 394.417 303.173 394.29L300.553 392.769C300.34 392.648 300.027 392.677 299.864 392.847L298.579 394.126C298.415 394.297 298.451 394.531 298.664 394.652Z" fill="#D9DBE6"/>
<path d="M347.19 420.789L347.026 419.773L345.606 419.73L344.385 419.027C344.172 418.906 343.859 418.935 343.696 419.105L343.128 419.666L342.141 419.638L342.304 420.654C342.318 420.753 342.382 420.839 342.489 420.903L345.109 422.423C345.322 422.544 345.635 422.516 345.798 422.345L347.083 421.066C347.183 420.988 347.211 420.881 347.19 420.789Z" fill="#BEBEBE"/>
<path d="M342.331 419.855L344.951 421.376C345.164 421.496 345.477 421.468 345.64 421.297L346.926 420.019C347.089 419.855 347.053 419.621 346.84 419.493L344.22 417.972C344.007 417.851 343.694 417.88 343.531 418.05L342.246 419.329C342.075 419.5 342.118 419.734 342.331 419.855Z" fill="#D9DBE6"/>
<path d="M353.229 424.234L353.065 423.218L351.645 423.176L350.424 422.472C350.211 422.351 349.898 422.38 349.735 422.55L349.167 423.112L348.18 423.083L348.343 424.099C348.357 424.199 348.421 424.284 348.528 424.348L351.148 425.868C351.361 425.989 351.673 425.961 351.837 425.79L353.122 424.511C353.214 424.433 353.25 424.327 353.229 424.234Z" fill="#BEBEBE"/>
<path d="M359.221 427.727L359.057 426.71L357.637 426.668L356.416 425.964C356.203 425.844 355.89 425.872 355.727 426.043L355.159 426.604L354.172 426.575L354.335 427.592C354.349 427.691 354.413 427.776 354.52 427.84L357.14 429.361C357.353 429.481 357.666 429.453 357.829 429.283L359.114 428.004C359.207 427.925 359.235 427.819 359.221 427.727Z" fill="#BEBEBE"/>
<path d="M348.32 423.356L350.94 424.876C351.153 424.997 351.466 424.968 351.629 424.798L352.915 423.519C353.078 423.356 353.043 423.121 352.83 422.993L350.209 421.473C349.996 421.352 349.684 421.38 349.52 421.544L348.235 422.823C348.072 423 348.107 423.235 348.32 423.356Z" fill="#D9DBE6"/>
<path d="M354.359 426.847L356.98 428.368C357.193 428.489 357.505 428.46 357.668 428.29L358.954 427.011C359.117 426.847 359.082 426.613 358.869 426.485L356.248 424.964C356.035 424.844 355.723 424.872 355.559 425.043L354.274 426.322C354.111 426.492 354.146 426.726 354.359 426.847Z" fill="#D9DBE6"/>
<path d="M308.033 385.751C307.301 386.475 307.471 387.506 308.409 388.046C309.346 388.586 310.695 388.444 311.427 387.719C312.158 386.994 311.988 385.964 311.05 385.424C310.113 384.877 308.764 385.026 308.033 385.751Z" fill="#D9DBE6"/>
<path d="M301.978 382.305C301.246 383.03 301.417 384.06 302.354 384.6C303.291 385.14 304.648 384.998 305.372 384.273C306.104 383.549 305.933 382.519 304.996 381.979C304.066 381.431 302.709 381.581 301.978 382.305Z" fill="#D9DBE6"/>
<path d="M295.993 378.813C295.262 379.538 295.432 380.568 296.37 381.108C297.307 381.648 298.656 381.506 299.388 380.781C300.119 380.057 299.949 379.026 299.011 378.486C298.074 377.939 296.725 378.088 295.993 378.813Z" fill="#D9DBE6"/>
<path d="M361.954 416.271C361.223 416.996 361.393 418.026 362.331 418.566C363.268 419.106 364.624 418.964 365.349 418.239C366.08 417.514 365.91 416.484 364.972 415.944C364.035 415.404 362.686 415.546 361.954 416.271Z" fill="#F9BE6A"/>
<path d="M355.962 412.834C355.231 413.558 355.401 414.589 356.339 415.129C357.276 415.669 358.632 415.526 359.364 414.802C360.095 414.077 359.925 413.047 358.987 412.507C358.043 411.967 356.686 412.109 355.962 412.834Z" fill="#D9DBE6"/>
<path d="M349.97 409.334C349.239 410.058 349.409 411.089 350.346 411.629C351.284 412.169 352.633 412.026 353.371 411.302C354.103 410.577 353.933 409.547 352.995 409.007C352.058 408.467 350.701 408.609 349.97 409.334Z" fill="#D9DBE6"/>
<path d="M347.055 473.987C347.538 478.25 347.886 482.592 347.886 486.201V552.889C347.886 569.814 343.362 578.801 339.151 579.995C336.815 580.684 335.004 578.524 334.173 577.174C330.984 571.995 331.829 538.004 332.383 515.509C332.838 497.335 333.03 487.743 332.206 485.405C330.338 480.119 329.82 472.062 329.813 471.977L325.992 472.211C326.006 472.566 326.553 480.879 328.591 486.677C329.223 488.546 328.889 502.202 328.556 515.417C327.746 548.065 327.398 573.501 330.913 579.192C332.809 582.276 335.458 583.96 338.249 583.96C338.895 583.96 339.556 583.867 340.209 583.69C345.776 582.105 351.734 573.196 351.734 552.896V486.208C351.734 482.648 351.415 478.471 350.967 474.343C349.647 474.321 348.326 474.215 347.055 473.987Z" fill="#747A7A"/>
<path d="M301.137 453.432C301.293 455.549 301.386 457.588 301.386 459.428V526.124C301.386 543.034 296.862 552.029 292.651 553.222C290.244 553.912 288.504 551.752 287.673 550.409C284.484 545.229 285.33 511.231 285.884 488.744C286.338 470.569 286.53 460.977 285.706 458.64C283.838 453.353 283.32 445.296 283.313 445.211L279.492 445.453C279.506 445.808 280.046 454.121 282.091 459.918C282.723 461.787 282.39 475.443 282.056 488.644C281.246 521.292 280.898 546.728 284.414 552.427C286.31 555.503 288.958 557.194 291.749 557.194C292.395 557.194 293.056 557.102 293.709 556.917C299.276 555.34 305.234 546.423 305.234 526.131V459.435C305.234 458.398 305.199 457.297 305.149 456.167C303.672 455.591 302.373 454.845 301.137 453.432Z" fill="#555959"/>
<path d="M316.579 461.85C316.756 464.152 316.87 466.376 316.87 468.366V535.061C316.87 551.971 312.346 560.966 308.135 562.16C305.714 562.849 303.988 560.689 303.157 559.346C299.969 554.167 300.814 520.169 301.368 497.681C301.822 479.506 302.014 469.915 301.19 467.57C299.323 462.277 298.804 454.227 298.797 454.148L294.977 454.39C294.991 454.745 295.53 463.044 297.576 468.856C298.208 470.725 297.874 484.381 297.54 497.582C296.731 530.23 296.383 555.666 299.898 561.364C301.794 564.441 304.443 566.132 307.233 566.132C307.88 566.132 308.54 566.039 309.193 565.855C314.761 564.277 320.719 555.36 320.719 535.068V468.373C320.719 467.335 320.683 466.227 320.634 465.097C319.206 463.989 317.892 462.888 316.579 461.85Z" fill="#5A5E5E"/>
<path d="M332.218 472.095C332.339 473.928 332.417 475.697 332.417 477.317V544.013C332.417 560.923 327.886 569.918 323.682 571.112C321.253 571.808 319.535 569.641 318.704 568.298C315.515 563.118 316.361 529.121 316.915 506.633C317.369 488.458 317.561 478.859 316.737 476.515C314.869 471.228 314.351 463.171 314.344 463.086L310.523 463.327C310.538 463.683 311.084 471.996 313.122 477.793C313.755 479.662 313.421 493.325 313.087 506.533C312.277 539.181 311.929 564.618 315.437 570.316C317.333 573.392 319.982 575.083 322.773 575.083C323.419 575.083 324.08 574.991 324.733 574.806C330.3 573.229 336.258 564.312 336.258 544.02V477.325C336.258 476.145 336.216 474.88 336.152 473.58C334.817 473.168 333.51 472.656 332.218 472.095Z" fill="#666B6B"/>
<path d="M339.165 477.668L253.758 428.003L271.802 397.039L357.217 446.704L339.165 477.668Z" fill="#CDCFDE"/>
<path d="M289.092 453.805L286.28 446.117L286.372 446.934L280.798 443.708L280.5 442.11C279.981 439.353 280.237 436.489 281.323 433.896C281.444 433.612 281.537 433.413 281.593 433.335L278.753 425.555L267.156 428.589L277.524 456.874H277.538C277.794 457.549 278.291 458.167 279.101 458.629C281.43 459.958 285.186 459.574 287.516 457.755C289.028 456.568 289.54 455.069 289.078 453.805H289.092Z" fill="url(#paint15_linear_710_3208)"/>
<path d="M277.141 429.451C274.819 431.27 271.055 431.661 268.726 430.325C266.404 428.989 266.404 426.431 268.726 424.612C271.048 422.794 274.819 422.403 277.141 423.739C279.463 425.074 279.463 427.632 277.141 429.451Z" fill="#F5F5F5"/>
<path d="M304.584 462.742L301.772 455.054L301.864 455.871L296.29 452.646L295.992 451.047C295.473 448.29 295.729 445.427 296.815 442.834C296.936 442.549 297.028 442.35 297.085 442.272L294.245 434.492L282.648 437.526L293.016 465.811H293.031C293.286 466.486 293.783 467.105 294.593 467.566C296.922 468.895 300.679 468.511 303.001 466.692C304.513 465.506 305.025 464.007 304.563 462.742H304.584Z" fill="url(#paint16_linear_710_3208)"/>
<path d="M292.633 438.389C290.311 440.207 286.54 440.598 284.218 439.263C281.896 437.927 281.896 435.369 284.218 433.55C286.54 431.731 290.311 431.34 292.633 432.676C294.962 434.012 294.962 436.57 292.633 438.389Z" fill="#F5F5F5"/>
<path d="M320.116 471.61L317.303 463.922L317.396 464.739L311.821 461.514L311.516 459.915C310.997 457.158 311.253 454.295 312.347 451.709C312.467 451.424 312.56 451.218 312.617 451.147L309.776 443.367L298.18 446.401L308.548 474.686H308.562C308.817 475.361 309.314 475.98 310.124 476.441C312.453 477.77 316.21 477.386 318.539 475.575C320.044 474.388 320.563 472.889 320.101 471.624H320.116V471.61Z" fill="url(#paint17_linear_710_3208)"/>
<path d="M308.172 447.271C305.85 449.09 302.079 449.48 299.757 448.145C297.435 446.809 297.435 444.251 299.757 442.425C302.079 440.606 305.85 440.215 308.172 441.551C310.494 442.894 310.494 445.452 308.172 447.271Z" fill="#F5F5F5"/>
<path d="M335.592 480.554L332.78 472.867L332.872 473.684L327.298 470.458L326.992 468.86C326.474 466.103 326.73 463.239 327.823 460.646C327.944 460.362 328.036 460.163 328.093 460.085L325.253 452.305L313.656 455.339L324.024 483.624H324.038C324.294 484.306 324.791 484.917 325.601 485.379C327.93 486.707 331.686 486.324 334.016 484.505C335.528 483.318 336.04 481.819 335.578 480.554H335.592Z" fill="url(#paint18_linear_710_3208)"/>
<path d="M323.649 456.201C321.327 458.02 317.563 458.411 315.234 457.075C312.912 455.739 312.912 453.181 315.234 451.363C317.556 449.544 321.327 449.153 323.649 450.489C325.971 451.817 325.971 454.375 323.649 456.201Z" fill="#F5F5F5"/>
<path d="M400.252 409.914L400.273 418.078C400.281 420.046 399.975 422.163 399.386 424.33C397.476 431.307 392.838 437.83 387.662 440.821C382.875 443.585 378.167 447.77 373.97 452.992L369.688 458.307C367.693 460.786 365.797 463.408 364 466.144L349.194 483.054L339.195 477.647L357.24 446.683L380.958 421.055L400.252 409.914Z" fill="#F5F0F0"/>
<path d="M144.682 732.422C144.391 732.521 139.668 733.772 138.12 735.029C136.579 736.287 135.031 740.529 135.031 740.529L136.48 746.319C136.48 746.319 144.874 754.135 148.346 755.194C151.819 756.252 164.068 758.668 164.068 758.668C164.068 758.668 174.387 766.867 177.092 767.741C179.791 768.608 186.253 770.441 190.109 769.574C193.965 768.708 195.797 766.001 195.797 766.001V761.176L194.739 752.586L192.133 746.412L144.682 732.422Z" fill="#76757C"/>
<path d="M220.25 720.654C222.948 722.779 224.88 728.377 232.592 729.337C240.311 730.303 247.831 727.603 247.831 727.603L249.571 718.146L249.763 702.131L212.531 700.781L209.25 711.588L220.25 720.654Z" fill="#FFF4FF"/>
<path d="M257.905 657.078C256.748 659.103 252.409 683.715 252.409 683.715C252.409 683.715 249.966 707.751 249.803 711.503C249.646 715.261 232.731 713.236 226.944 711.503C221.156 709.769 218.578 701.008 218.578 701.008C218.578 701.008 220.29 656.786 220.581 654.761C220.872 652.736 249.803 634.789 249.803 634.789L257.905 657.078Z" fill="#6582EE"/>
<path d="M166.255 726.43L146.776 729.712C146.776 729.712 140.605 732.22 139.256 734.345C137.907 736.469 137.133 742.26 137.133 742.26C137.133 742.26 138.482 747.468 143.496 750.175C148.509 752.875 165.68 757.124 166.255 756.932C166.83 756.74 178.796 764.072 185.933 763.689C193.07 763.305 195.768 754.616 195.768 754.616L193.07 738.018L189.249 730.288L166.255 726.43Z" fill="#FFF4FF"/>
<path d="M192.118 736.29C192.118 736.29 191.308 737.413 189.64 738.962C187.744 740.759 184.718 743.118 180.543 745.015C179.187 745.641 177.709 746.223 176.097 746.706C165.296 749.982 160.475 741.69 159.516 741.115C158.557 740.539 109.367 658.703 107.634 651.555C105.894 644.422 114.188 642.489 119.592 639.789L144.092 640.556L145.64 644.77L150.639 658.319L174.365 699.031L190.336 732.546L192.118 736.29Z" fill="#6582EE"/>
<path d="M190.358 732.533C190.245 734.685 190.01 736.817 189.662 738.949C187.766 740.746 184.741 743.105 180.565 745.002C180.402 744.86 180.253 744.725 180.118 744.576C178.229 742.608 177.477 739.851 176.688 737.236C173.876 727.836 169.906 718.813 166.796 709.491C162.528 696.709 159.56 682.79 150.335 672.957C147.85 670.306 144.974 668.033 142.304 665.56C138.739 662.249 129.188 653.943 130.622 648.352C131.979 643.058 140.252 643.513 145.656 644.764L150.655 658.313L174.38 699.025L190.358 732.533Z" fill="#F2CBBC"/>
<path d="M170.419 746.139C168.104 745.088 137.185 689.81 118.956 656.956L118.85 656.679C118.232 654.264 116.918 648.445 118.04 646.619C118.374 646.079 118.821 645.88 119.141 645.809C120.902 645.418 179.281 646.341 191.829 646.547C193.626 645.56 204.278 639.556 207.104 634.234L209.15 635.321C205.741 641.737 193.193 648.452 192.66 648.729L192.398 648.871L192.099 648.864C165.022 648.423 124.523 647.862 119.95 648.047C119.737 649.141 120.22 652.608 121.058 655.955C140.054 690.194 169.127 741.834 171.577 744.143C171.577 744.143 171.506 744.079 171.378 744.022L170.419 746.139Z" fill="#7D9DFF"/>
<path d="M261.127 713.162C262.05 712.593 262.938 712.551 263.655 712.913L263.669 712.899L266.907 714.377L263.072 724.779L259.543 723.18L259.55 723.159C258.705 722.732 258.087 721.745 257.945 720.288C257.682 717.595 259.11 714.412 261.127 713.162Z" fill="#25242F"/>
<path d="M264.351 714.622C266.375 713.378 268.221 714.551 268.484 717.236C268.747 719.922 267.319 723.112 265.295 724.356C263.279 725.599 261.425 724.427 261.162 721.741C260.907 719.048 262.334 715.865 264.351 714.622Z" fill="#393842"/>
<path d="M164.203 773.542C164.203 770.885 166.078 767.652 168.386 766.316C169.551 765.641 170.601 765.585 171.361 766.025L175.16 768.455L168.997 778.509L165.425 776.228C164.672 775.802 164.203 774.871 164.203 773.542Z" fill="#25242F"/>
<path d="M167.867 775.88C167.867 778.53 169.742 779.603 172.05 778.267C174.365 776.932 176.233 773.699 176.233 771.041C176.233 768.384 174.358 767.318 172.05 768.654C169.742 769.99 167.867 773.223 167.867 775.88Z" fill="#393842"/>
<path d="M289.875 759.253C289.875 756.581 292.041 754.414 294.711 754.414C297.282 754.414 299.355 756.425 299.511 758.947H299.533V759.146C299.533 759.146 299.54 759.21 299.54 759.246C299.54 759.281 299.533 759.317 299.533 759.317V761.917H298.738C297.871 763.224 296.394 764.091 294.711 764.091C293.028 764.091 291.544 763.224 290.685 761.917H289.882V759.253H289.875Z" fill="#25242F"/>
<path d="M289.875 761.917C289.875 764.588 292.041 766.755 294.711 766.755C297.381 766.755 299.547 764.588 299.547 761.917C299.547 759.245 297.381 757.078 294.711 757.078C292.034 757.078 289.875 759.245 289.875 761.917Z" fill="#3C3B45"/>
<path d="M178.291 717.229L178.298 717.222L178.305 717.215C179.065 716.788 180.109 716.852 181.259 717.52C183.574 718.856 185.449 722.089 185.449 724.746C185.449 726.004 185.016 726.892 184.327 727.354L184.334 727.368L180.94 729.741L175.031 719.524L178.291 717.229Z" fill="#393842"/>
<path d="M173.75 722.243C173.75 724.893 175.625 728.133 177.933 729.469C180.248 730.805 182.123 729.739 182.123 727.082C182.123 724.425 180.248 721.192 177.933 719.856C175.625 718.52 173.75 719.593 173.75 722.243Z" fill="#25242F"/>
<path d="M244.096 785.297C244.238 785.219 244.402 785.425 244.586 785.965C245.076 787.436 245.481 790.775 245.488 793.433C245.495 795.28 245.304 796.282 245.02 796.239V796.26L239.609 796.879L238.664 785.894L244.096 785.297Z" fill="#2A2934"/>
<path d="M239.1 786.588C239.59 788.059 239.995 791.398 240.002 794.055C240.009 796.706 239.618 797.665 239.121 796.194C238.631 794.723 238.226 791.384 238.219 788.734C238.219 786.076 238.609 785.117 239.1 786.588Z" fill="#25242F"/>
<path d="M218.469 738.068C223.461 740.952 231.578 740.938 236.605 738.032C241.626 735.133 241.654 730.437 236.662 727.552C231.67 724.668 223.553 724.682 218.525 727.588C213.505 730.494 213.476 735.183 218.469 738.068Z" fill="#B2B7CC"/>
<path d="M232.352 728.734L240.703 756.331L240.852 756.828L240.866 756.97L243.785 785.021C243.891 786.058 243.174 786.996 242.144 787.159C241.115 787.323 240.142 786.655 239.922 785.639L233.971 758.071L234.134 758.711L222.836 732.187L232.352 728.734Z" fill="#D9DBE6"/>
<path d="M228.179 725.633L274.665 734.315L275.275 734.429L275.645 734.749L295.933 752.163C297.169 753.229 297.31 755.09 296.252 756.334C295.983 756.646 295.507 756.682 295.194 756.412L273.237 737.562L274.224 737.996L227.008 735.381L228.179 725.633Z" fill="#D9DBE6"/>
<path d="M295.768 756.61H295.719C295.534 756.61 295.364 756.546 295.222 756.425L273.747 737.988L234.484 735.806L232.361 728.787L227.617 730.506V730.492L230.216 726.016L240.243 727.891C238.724 729.632 237.268 731.614 235.876 733.81L273.825 736.489L294.682 754.471C294.682 754.471 295.144 755.821 295.768 756.61Z" fill="#B2B7CC"/>
<path d="M224.617 727.189L252.142 705.682L253.122 704.922L254.123 705.355L266.515 710.713L265.045 714.116L252.653 708.759L254.635 708.432L230.611 733.79L224.617 727.189Z" fill="#C4C8D8"/>
<path d="M224.399 735.992L192.912 712.545L194.595 712.631L179.711 719.267C178.965 719.601 178.099 719.267 177.765 718.521C177.261 717.391 177.772 716.077 178.894 715.572L193.09 709.249L193.821 708.922L194.773 709.334L230.79 724.944L224.399 735.992Z" fill="#D9DBE6"/>
<path d="M177.769 718.52C177.634 718.229 177.57 717.916 177.57 717.618C177.57 717.234 177.677 716.858 177.854 716.531C178.316 717.476 179.154 718.194 179.637 718.208C180.461 718.208 193.073 711.742 193.073 711.742L194.308 712.623L194.429 712.716L216.912 728.745L216.024 729.732L216.01 729.746L193.633 713.078L179.722 719.281C178.976 719.6 178.11 719.259 177.769 718.52Z" fill="#B2B7CC"/>
<path d="M229.52 735.771L187.658 747.125L188.453 746.564L169.734 769.378C169.301 769.911 168.513 769.982 167.987 769.549C166.936 768.682 166.78 767.133 167.647 766.081L185.592 744.205L185.847 743.892L186.387 743.637L225.664 725.234L229.52 735.771Z" fill="#D9DBE6"/>
<path d="M240.407 786.175L240.499 786.644C240.208 786.395 240.002 786.04 239.91 785.635L234.087 758.6L224.869 736.986L188.07 746.969L169.721 769.343C169.287 769.868 168.499 769.947 167.981 769.513C167.455 769.094 167.157 768.49 167.086 767.872C168.229 770.288 169.642 768.568 169.642 768.568L187.815 746.045C187.815 746.045 221.894 735.771 222.831 735.537C223.435 735.38 224.102 735.892 224.571 736.261C224.848 736.482 225.054 736.652 225.174 736.652C225.203 736.652 225.253 736.716 225.331 736.865C226.552 738.869 234.207 755.033 235.123 757.079C236.11 759.261 240.407 786.175 240.407 786.175Z" fill="#B2B7CC"/>
<path d="M218.469 733.411C223.461 736.296 231.578 736.282 236.605 733.376C241.626 730.47 241.654 725.781 236.662 722.896C231.67 720.011 223.553 720.025 218.525 722.931C213.505 725.837 213.476 730.527 218.469 733.411Z" fill="#D9DBE6"/>
<path d="M219.297 727.011V708.46H221.186C221.363 708.332 221.555 708.211 221.754 708.097C225.014 706.214 230.283 706.207 233.521 708.076C233.734 708.197 233.933 708.325 234.118 708.46H235.942V727.011C235.928 728.233 235.112 729.462 233.486 730.4C230.226 732.283 224.957 732.297 221.719 730.421C220.085 729.483 219.283 728.247 219.297 727.011Z" fill="#76757C"/>
<path d="M221.716 711.845C224.954 713.713 230.223 713.706 233.483 711.823C236.742 709.941 236.756 706.9 233.518 705.024C230.28 703.148 225.011 703.162 221.751 705.045C218.492 706.928 218.478 709.976 221.716 711.845Z" fill="#5C5B63"/>
<path d="M262.174 699.679C259.113 697.419 252.608 695.06 261.13 692.403C269.651 689.746 270.674 686.406 271.036 690.122C271.398 693.838 272.627 694.691 270.504 697.234C268.387 699.785 265.412 702.066 262.174 699.679Z" fill="#878E9A"/>
<path d="M220.625 707.365V673.537H222.216C222.365 673.431 222.521 673.331 222.692 673.232C225.44 671.647 229.878 671.64 232.612 673.218C232.79 673.317 232.96 673.431 233.109 673.537H234.65V707.365C234.636 708.395 233.947 709.432 232.584 710.221C229.836 711.805 225.397 711.812 222.67 710.242C221.293 709.446 220.611 708.409 220.625 707.365Z" fill="#C4C8D8"/>
<path d="M170.087 669.933V659.438H183.14C184.368 658.579 185.668 657.74 187.067 656.93C209.613 643.907 246.057 643.836 268.462 656.781C269.932 657.634 271.295 658.515 272.573 659.431H285.192V669.926H285.185C285.093 678.402 279.433 686.878 268.206 693.358C245.659 706.382 209.215 706.453 186.811 693.507C175.555 687.02 169.988 678.48 170.087 669.933Z" fill="#B2B7CC"/>
<path d="M170.087 663.385V652.891H183.14C184.368 652.031 185.668 651.193 187.067 650.383C209.613 637.359 246.057 637.288 268.462 650.241C269.932 651.093 271.295 651.974 272.573 652.891H285.192V663.385H285.185C285.093 671.861 279.433 680.338 268.206 686.817C245.659 699.841 209.215 699.912 186.811 686.967C175.555 680.466 169.988 671.925 170.087 663.385Z" fill="#6D534E"/>
<path d="M186.815 676.478C209.22 689.416 245.664 689.352 268.21 676.329C290.757 663.305 290.87 642.253 268.466 629.307C246.061 616.362 209.617 616.426 187.071 629.456C164.524 642.48 164.41 663.532 186.815 676.478Z" fill="#785E59"/>
<path d="M266.323 628.802C245.091 616.531 210.55 616.595 189.182 628.944C167.814 641.286 167.708 661.237 188.941 673.507C210.174 685.77 244.714 685.707 266.082 673.365C287.45 661.016 287.549 641.072 266.323 628.802Z" fill="#86716D"/>
<path d="M251.227 478.629L229.433 475.062L203.102 464.34L182.707 457.541L180.818 456.916C180.818 456.916 173.113 454.599 171.849 454.045C170.599 453.491 164.812 447.366 163.945 446.4C163.079 445.427 164.236 442.819 165.777 442.926C167.283 443.018 172.389 447.452 172.708 447.729L171.473 444.084C171.473 444.084 167.617 438.094 167.418 436.744C167.219 435.401 172.048 431.352 172.048 431.352L192.684 443.693L194.339 444.134L214.293 449.484C214.293 449.484 250.553 463.197 253.805 465.278C257.05 467.36 254.608 474.955 251.227 478.629Z" fill="url(#paint19_linear_710_3208)"/>
<path d="M194.339 444.134C190.291 445.562 186.826 445.988 185.277 449.263C183.545 452.923 182.075 454.727 182.707 457.541L180.818 456.916C180.818 456.916 173.113 454.599 171.849 454.045C170.599 453.491 164.812 447.366 163.945 446.4C163.079 445.427 164.236 442.819 165.777 442.926C167.283 443.018 172.389 447.452 172.708 447.729L171.473 444.084C171.473 444.084 167.617 438.094 167.418 436.744C167.219 435.401 172.048 431.352 172.048 431.352L192.684 443.693L194.339 444.134Z" fill="#96CAFF"/>
<path d="M161.132 520.502C161.132 520.502 157.291 527.451 152.66 528.097C150.843 528.353 147.704 527.863 144.395 527.103C139.253 525.945 133.7 524.126 132.116 523.465C129.51 522.378 127.777 520.353 126.84 515.209C125.924 510.193 126.947 502.612 127.998 499.635C128.019 499.563 128.04 499.492 128.069 499.436C128.892 497.318 134.666 484.984 137.499 478.952C137.499 478.952 137.499 478.937 137.513 478.93C138.451 476.927 139.061 475.634 139.061 475.634L137.258 471.207V467.377L141.306 458.404L143.912 455.867L149.479 454.062L150.274 454.517L152.241 455.619L152.447 455.732C152.447 455.732 154.471 455.441 154.968 455.874C155.48 456.315 155.764 459.789 155.764 459.789L156.921 463.91L156.225 469.701L156.048 471.15L150.125 478.895C150.125 478.895 149.06 481.097 148.251 483.286H148.236C147.888 484.224 147.59 485.161 147.434 485.915C147.086 487.684 146.731 494.561 146.546 498.803C146.475 500.636 146.433 501.979 146.433 502.199L154.606 505.091L161.132 520.502Z" fill="url(#paint20_linear_710_3208)"/>
<path d="M147.089 476.493C147.11 476.244 147.132 475.981 147.032 475.747C146.905 475.441 146.592 475.256 146.28 475.15C144.696 474.589 142.97 475.541 141.77 476.72C139.129 479.306 137.857 482.944 136.735 486.468C135.159 491.413 133.71 496.401 132.389 501.424C131.857 503.442 131.353 505.467 131.132 507.542C131.061 508.224 131.026 508.935 131.246 509.581C131.708 510.967 133.298 511.777 134.754 511.634C136.21 511.492 137.503 510.569 138.411 509.425C139.32 508.281 139.91 506.917 140.499 505.581C141.138 504.117 141.792 502.654 142.196 501.112C142.715 499.151 142.821 497.105 143.404 495.165C143.915 493.445 144.526 491.847 144.916 490.085C145.917 485.594 146.642 481.054 147.089 476.493Z" fill="#FEB9B8"/>
<path d="M156.919 463.896L156.223 469.687L156.046 471.136L150.123 478.881C150.123 478.881 149.058 481.083 148.248 483.271H148.234C148.476 480.564 148.064 478.092 143.789 477.445C139.748 476.834 137.703 478.731 137.49 478.93C138.427 476.927 139.038 475.634 139.038 475.634L137.234 471.207V467.377L141.282 458.404L143.888 455.867L149.456 454.062L150.251 454.517L152.218 455.619L152.424 455.732C152.424 455.732 154.448 455.441 154.945 455.874C155.456 456.315 155.74 459.789 155.74 459.789L156.919 463.896Z" fill="#96CAFF"/>
<path d="M150.94 464.106C150.94 461.896 149.875 459.786 150.081 457.356C150.166 456.468 150.174 455.466 150.259 454.5L152.226 455.601C151.53 458.386 151.104 461.236 150.94 464.106Z" fill="#F2CBBC"/>
<path d="M156.209 469.656L156.039 471.106L150.109 478.85C150.109 478.85 147.936 483.334 147.425 485.87C147.077 487.639 146.722 494.517 146.537 498.759C146.459 498.737 146.366 498.702 146.281 498.666C146.452 492.435 146.942 486.204 147.751 480.023C147.865 479.177 147.986 478.31 148.39 477.557C149.186 476.065 150.89 475.347 152.289 474.381C154 473.209 155.364 471.553 156.209 469.656Z" fill="#F2CBBC"/>
<path d="M144.693 526.277C144.615 526.554 144.508 526.831 144.395 527.101C139.253 525.943 133.7 524.124 132.116 523.463C129.51 522.376 127.777 520.351 126.84 515.207C125.924 510.191 126.947 502.61 127.998 499.633C127.415 505.736 128.679 512.003 130.611 517.872C130.81 518.461 131.03 519.079 131.456 519.541C132.94 521.104 136.157 522.22 138.273 522.17C139.729 522.135 141.511 521.161 142.939 521.531C144.856 522.021 145.147 524.65 144.693 526.277Z" fill="#F2CBBC"/>
<path d="M200.605 611.026C199.448 616.234 192.311 615.85 192.311 615.85C192.311 615.85 124.607 620.674 118.819 621.641C113.032 622.607 104.929 630.906 105.121 637.854C105.312 644.803 106.086 649.819 107.627 651.56C109.168 653.301 149.291 662.367 149.291 662.367C149.291 662.367 194.044 674.14 213.331 674.723C232.618 675.298 250.173 671.824 255.577 669.706C260.981 667.582 268.693 659.091 268.693 659.091C268.693 659.091 280.076 653.883 282.193 651.759C284.316 649.635 288.364 635.162 288.364 635.162L287.98 608.724L282.193 598.492L200.605 611.026Z" fill="#6582EE"/>
<path d="M273 636.399C276.643 634.843 280.307 631.98 282.374 628.562C284.795 624.569 286.166 620.228 286.876 615.645C287.593 610.97 287.103 605.549 283.95 602.011C283.794 601.84 283.624 601.655 283.396 601.606C282.942 601.513 282.594 601.982 282.367 602.38C280.322 606.039 277.893 611.759 274.683 614.501C271.729 617.024 265.721 617.365 261.979 617.812C240.114 620.406 218.604 619.041 198.33 610.451C196.391 613.997 195.156 617.926 194.715 621.947C194.559 623.354 194.502 624.811 194.957 626.154C195.816 628.683 198.259 630.275 200.595 631.561C220.962 642.765 247.372 646.019 269.272 637.905C270.529 637.444 271.764 636.932 273 636.399Z" fill="#36231F"/>
<path d="M199.51 642.989C197.024 642.236 195.242 640.438 193.524 638.697C192.771 637.937 192.054 637.212 191.287 636.58C190.797 636.175 190.285 635.805 189.767 635.429C188.837 634.754 187.878 634.065 187.04 633.184C185.314 631.372 184.633 629.148 185.208 627.237C185.684 625.666 186.891 624.579 188.013 623.72C190.321 621.965 192.877 620.593 195.626 619.648L196.378 621.837C193.871 622.697 191.528 623.947 189.426 625.56C188.602 626.192 187.722 626.96 187.438 627.897C187.04 629.198 187.842 630.654 188.73 631.578C189.419 632.303 190.257 632.907 191.137 633.546C191.691 633.951 192.245 634.349 192.778 634.782C193.63 635.493 194.418 636.289 195.178 637.056C196.769 638.662 198.267 640.182 200.192 640.765L199.51 642.989Z" fill="#7D9DFF"/>
<path d="M171.836 622.158C165.878 621.511 159.97 623.344 154.097 624.531C146.626 626.044 138.95 626.527 131.352 625.973L171.836 622.158Z" fill="#F2CBBC"/>
<path d="M138.156 620.556C132.603 620.442 126.894 620.35 121.695 622.311C116.497 624.272 111.874 628.805 111.519 634.347C111.384 636.478 111.945 638.759 113.479 640.251C114.608 641.352 116.135 641.928 117.641 642.375C127.057 645.175 137.134 643.946 146.948 644.45C156.499 644.947 165.993 647.107 175.53 646.411C176.077 646.369 176.645 646.312 177.114 646.027C177.767 645.622 178.087 644.862 178.364 644.145C180.189 639.469 182.049 634.567 181.531 629.572C181.325 627.611 180.629 624.968 179.23 623.483C177.874 622.034 175.949 621.977 174.018 621.728C172.576 621.543 171.383 620.911 170.006 620.648C167.726 620.208 165.518 620.492 163.281 620.812C160.667 621.188 157.99 620.968 155.341 620.911C149.611 620.797 143.887 620.677 138.156 620.556Z" fill="#6F84FC"/>
<path d="M209.863 641.774C209.529 635.827 210.637 629.802 213.073 624.359C213.264 623.926 213.697 623.429 214.322 623.322C214.77 623.251 215.217 623.4 215.53 623.734L213.832 625.311C214.053 625.546 214.386 625.66 214.699 625.61C214.876 625.581 215.104 625.482 215.182 625.311C212.902 630.413 211.858 636.061 212.171 641.646L209.863 641.774Z" fill="#6582EE"/>
<path d="M268.591 628.6L266.289 628.844L268.025 645.249L270.328 645.005L268.591 628.6Z" fill="#6582EE"/>
<path d="M236.69 466.645C237.848 466.07 244.985 464.329 244.985 464.329C244.985 464.329 256.943 464.137 260.998 468.77C265.046 473.402 267.943 481.317 268.327 484.209C268.71 487.108 268.71 496.949 265.238 501.389C261.765 505.83 255.786 506.022 255.786 506.022L233.992 482.092L236.69 466.645Z" fill="#75A5FF"/>
<path d="M263.884 509.704C263.848 502.862 264.459 486.932 262.535 478.826C260.603 470.719 257.493 467.053 251.236 465.703C244.98 464.353 242.793 464.736 239.74 465.703C236.686 466.669 227.234 469.177 227.234 469.177C227.234 469.177 188.653 478.826 187.304 479.209C185.954 479.593 165.893 490.641 164.736 491.103C163.578 491.565 161.071 501.597 162.037 509.704C163.003 517.811 171.681 534.216 173.229 538.65C174.77 543.091 178.633 557.564 181.523 565.67C184.42 573.777 195.413 613.921 197.338 616.621C199.269 619.321 207.564 627.044 234.953 631.094C262.343 635.143 275.85 625.687 275.85 625.687C275.85 625.687 285.493 620.862 284.527 606.965C283.561 593.067 270.829 564.697 269.288 557.748C267.747 550.814 263.884 509.704 263.884 509.704Z" fill="#5E8FFF"/>
<path d="M176.156 417.641C174.132 420.099 169.793 425.165 170.951 434.288C172.108 443.404 176.305 460.051 177.314 461.5C178.329 462.95 184.983 467.149 184.983 467.149L186.283 476.414L206.102 471.639L216.087 464.833C216.087 464.833 215.796 468.882 215.362 464.833C214.929 460.783 213.189 447.034 213.189 447.034L216.804 431.353L194.811 420.838L176.156 417.641Z" fill="url(#paint21_linear_710_3208)"/>
<path d="M198.628 460.904L188.963 457.7L183.794 450.978L178.432 445.11C178.432 445.11 173.589 441.557 173.795 439.703C173.994 437.841 168.469 426.899 169.868 420.903C171.267 414.906 177.246 406.415 183.353 403.694C189.46 400.98 192.109 401.726 192.109 401.726C192.109 401.726 197.35 399.317 206.546 401.385C215.742 403.453 221.849 413.442 222.055 422.743C222.261 432.043 221.8 444.079 220.678 448.058C219.556 452.037 214.578 456.712 214.578 456.712L208.769 459.299L198.628 460.904Z" fill="#36231F"/>
<path d="M195.519 466.885C190.598 468.91 184.668 473.834 184.668 473.834L183.07 481.337L195.519 478.658L214.486 472.385L224.755 469.813C224.755 469.813 217.22 461.528 216.787 460.945C216.354 460.363 213.897 461.087 213.897 461.087L195.519 466.885Z" fill="#75A5FF"/>
<path d="M181.749 485.236C178.212 486.302 174.449 487.666 172.375 490.728C170.451 493.578 170.415 497.293 170.905 500.697C171.594 505.493 173.177 510.168 175.549 514.388C178.695 519.98 183.162 524.719 187.856 529.089C189.056 530.204 190.292 531.313 191.691 532.165C196.69 535.192 203.166 534.517 208.599 532.385C214.038 530.247 218.867 526.808 224.15 524.314C233.723 519.795 244.695 518.417 253.692 512.832C256.305 511.205 258.769 509.173 260.211 506.459C261.411 504.2 261.83 501.613 262.164 499.077C262.838 493.933 263.236 488.76 263.357 483.574C263.385 482.366 263.392 481.137 263.044 479.978C262.554 478.366 261.411 477.037 260.218 475.85C258.223 473.882 255.957 472.141 253.358 471.09C250.297 469.847 246.91 469.612 243.608 469.847C235.278 470.443 227.538 473.854 219.698 476.426C212.27 478.863 204.523 479.772 196.896 481.371C191.797 482.437 186.741 483.73 181.749 485.236Z" fill="#6E9AFF"/>
<path d="M162.277 492.64C160.829 492.782 148.245 500.313 145.639 501.614C143.033 502.914 140.143 506.388 139.56 510.445C138.978 514.495 138.978 522.751 140.285 527.092C141.584 531.434 147.372 535.05 147.372 535.05C147.372 535.05 171.097 535.05 172.837 534.759C174.57 534.468 174.719 517.97 174.719 517.97L171.68 498.715L166.616 492.633L162.277 492.64Z" fill="#75A5FF"/>
<path d="M268.289 701.924L285.069 692.247C285.14 692.176 285.14 692.176 285.204 692.176C287.164 691.025 288.315 688.993 288.315 686.69V645.055H284.934L271.399 654.874L270.043 674.981L268.289 701.924Z" fill="#9CA2BD"/>
<path d="M270.055 674.974C274.862 673.347 279.393 671.315 283.455 668.949C285.216 667.933 286.842 666.917 288.326 665.837V645.055H284.946L271.411 654.874L270.055 674.974Z" fill="#878E9A"/>
<path d="M265.114 702.787C266.194 702.787 267.28 702.503 268.26 701.928C270.235 700.791 271.413 698.752 271.413 696.471V654.828H268.026V696.471C268.026 697.53 267.479 698.468 266.57 698.993C265.654 699.526 264.568 699.519 263.659 698.993L260.421 697.125L256.195 698.681L261.961 701.928C262.949 702.503 264.035 702.787 265.114 702.787Z" fill="#C4C8D8"/>
<path d="M235.015 634.148C236.144 633.921 236.889 633.899 237.159 633.892C237.18 633.892 237.202 633.885 237.223 633.885C239.226 633.793 241.079 633.601 242.848 633.366C256.858 632.066 269.783 628.386 280.094 622.432C291.754 615.696 296.15 606.104 298.117 596.356C298.571 594.09 304.898 595.887 304.898 595.887L304.991 608.747C305.935 621.338 294.694 649.516 280.079 657.986C269.797 663.947 256.872 667.734 242.798 668.956V669.02L241.378 669.091L236.421 674.611C232.7 674.682 228.453 669.041 228.453 665.382V639.775C228.453 635.91 232.373 634.553 235.015 634.148Z" fill="#86716D"/>
<path d="M238.398 639.983C239.527 639.755 240.272 639.727 240.542 639.727C240.564 639.727 240.585 639.72 240.606 639.72C242.609 639.627 244.462 639.443 246.23 639.201C260.241 637.901 273.165 634.22 283.477 628.266C297.842 619.968 305.59 608.187 304.901 595.86C304.901 595.81 304.923 595.754 304.923 595.711V630.782C305.867 643.372 298.091 655.358 283.47 663.82C273.187 669.781 260.263 673.568 246.181 674.79V674.854L244.76 674.926L238.603 675.124C234.882 675.195 231.836 672.211 231.836 668.559V645.61C231.836 641.745 235.763 640.388 238.398 639.983Z" fill="#6D534E"/>
<defs>
<linearGradient id="paint0_linear_710_3208" x1="23.9105" y1="475.122" x2="172.658" y2="475.122" gradientUnits="userSpaceOnUse">
<stop stop-color="#AFB3C4"/>
<stop offset="0.0152" stop-color="#B7BBCB"/>
<stop offset="0.0433" stop-color="#BEC1D1"/>
<stop offset="0.1176" stop-color="#C0C3D3"/>
<stop offset="0.2353" stop-color="#CACDDD"/>
<stop offset="0.2722" stop-color="#D5D6E2"/>
<stop offset="0.3702" stop-color="#ECE9EC"/>
<stop offset="0.4312" stop-color="#F5F0F0"/>
</linearGradient>
<linearGradient id="paint1_linear_710_3208" x1="55.3118" y1="355.187" x2="88.2908" y2="355.187" gradientUnits="userSpaceOnUse">
<stop offset="0.0405" stop-color="#CACDDD"/>
<stop offset="0.2622" stop-color="#CACDDD"/>
<stop offset="0.3212" stop-color="#D3D5E1"/>
<stop offset="0.5025" stop-color="#ECE9EC"/>
<stop offset="0.6135" stop-color="#F5F0F0"/>
<stop offset="0.6408" stop-color="#F5F0F0"/>
<stop offset="0.8676" stop-color="#F5F0F0"/>
</linearGradient>
<linearGradient id="paint2_linear_710_3208" x1="24.4155" y1="356.864" x2="77.1831" y2="356.864" gradientUnits="userSpaceOnUse">
<stop offset="0.0405" stop-color="#CACDDD"/>
<stop offset="0.2622" stop-color="#CACDDD"/>
<stop offset="0.3212" stop-color="#D3D5E1"/>
<stop offset="0.5025" stop-color="#ECE9EC"/>
<stop offset="0.6135" stop-color="#F5F0F0"/>
<stop offset="0.6408" stop-color="#F5F0F0"/>
<stop offset="0.8676" stop-color="#F5F0F0"/>
</linearGradient>
<linearGradient id="paint3_linear_710_3208" x1="29.1323" y1="340.48" x2="72.5192" y2="340.48" gradientUnits="userSpaceOnUse">
<stop offset="0.1324" stop-color="#F5F0F0"/>
<stop offset="0.3592" stop-color="#F5F0F0"/>
<stop offset="0.3865" stop-color="#F5F0F0"/>
<stop offset="0.4975" stop-color="#ECE9EC"/>
<stop offset="0.6788" stop-color="#D3D5E1"/>
<stop offset="0.7378" stop-color="#CACDDD"/>
<stop offset="0.9595" stop-color="#CACDDD"/>
</linearGradient>
<linearGradient id="paint4_linear_710_3208" x1="248.258" y1="135.023" x2="325.152" y2="211.877" gradientUnits="userSpaceOnUse">
<stop offset="0.0297" stop-color="#ECE9EC"/>
<stop offset="0.273" stop-color="#F5F0F0"/>
<stop offset="0.5817" stop-color="#F5F0F0"/>
<stop offset="0.6189" stop-color="#F5F0F0"/>
<stop offset="0.6975" stop-color="#ECE9EC"/>
<stop offset="0.8258" stop-color="#D3D5E1"/>
<stop offset="0.8676" stop-color="#CACDDD"/>
<stop offset="0.9595" stop-color="#CACDDD"/>
</linearGradient>
<linearGradient id="paint5_linear_710_3208" x1="337.131" y1="206.494" x2="291.623" y2="127.712" gradientUnits="userSpaceOnUse">
<stop offset="0.0405" stop-color="#EBE8EC"/>
<stop offset="0.2622" stop-color="#F5F0F0"/>
<stop offset="0.6135" stop-color="#F5F0F0"/>
<stop offset="0.6597" stop-color="#F5F2F2"/>
<stop offset="0.8676" stop-color="#F5F5F5"/>
</linearGradient>
<linearGradient id="paint6_linear_710_3208" x1="288.449" y1="111.738" x2="276.683" y2="111.738" gradientUnits="userSpaceOnUse">
<stop offset="0.1324" stop-color="#F5F0F0"/>
<stop offset="0.3592" stop-color="#F5F0F0"/>
<stop offset="0.3865" stop-color="#F5F0F0"/>
<stop offset="0.4975" stop-color="#ECE9EC"/>
<stop offset="0.6788" stop-color="#D3D5E1"/>
<stop offset="0.7378" stop-color="#CACDDD"/>
<stop offset="0.9595" stop-color="#CACDDD"/>
</linearGradient>
<linearGradient id="paint7_linear_710_3208" x1="145.864" y1="636.334" x2="448.015" y2="636.334" gradientUnits="userSpaceOnUse">
<stop offset="0.3267" stop-color="#AFB3C4"/>
<stop offset="0.3436" stop-color="#BCC0D0"/>
<stop offset="0.3666" stop-color="#CACDDD"/>
<stop offset="0.3787" stop-color="#D5D6E2"/>
<stop offset="0.4111" stop-color="#ECE9EC"/>
<stop offset="0.4312" stop-color="#F5F0F0"/>
</linearGradient>
<linearGradient id="paint8_linear_710_3208" x1="348.355" y1="489.956" x2="373.419" y2="489.956" gradientUnits="userSpaceOnUse">
<stop offset="0.0495" stop-color="#FEB9B8"/>
<stop offset="0.9922" stop-color="#FEA5A4"/>
</linearGradient>
<linearGradient id="paint9_linear_710_3208" x1="359.825" y1="500.966" x2="390.251" y2="500.966" gradientUnits="userSpaceOnUse">
<stop offset="0.0495" stop-color="#FEB9B8"/>
<stop offset="0.9922" stop-color="#FEA5A4"/>
</linearGradient>
<linearGradient id="paint10_linear_710_3208" x1="209.944" y1="490.358" x2="266.348" y2="490.358" gradientUnits="userSpaceOnUse">
<stop offset="0.0495" stop-color="#FEB9B8"/>
<stop offset="0.9922" stop-color="#FEA5A4"/>
</linearGradient>
<linearGradient id="paint11_linear_710_3208" x1="110.957" y1="480.457" x2="164.737" y2="480.457" gradientUnits="userSpaceOnUse">
<stop offset="0.0495" stop-color="#FEB9B8"/>
<stop offset="0.9922" stop-color="#FEA5A4"/>
</linearGradient>
<linearGradient id="paint12_linear_710_3208" x1="99.8723" y1="455.942" x2="151.012" y2="455.942" gradientUnits="userSpaceOnUse">
<stop offset="0.0495" stop-color="#FEB9B8"/>
<stop offset="0.9922" stop-color="#FEA5A4"/>
</linearGradient>
<linearGradient id="paint13_linear_710_3208" x1="136.025" y1="475.958" x2="147.37" y2="475.958" gradientUnits="userSpaceOnUse">
<stop offset="0.0495" stop-color="#FEB9B8"/>
<stop offset="0.9922" stop-color="#FEA5A4"/>
</linearGradient>
<linearGradient id="paint14_linear_710_3208" x1="197.409" y1="512.137" x2="301.397" y2="512.137" gradientUnits="userSpaceOnUse">
<stop offset="0.0495" stop-color="#FEB9B8"/>
<stop offset="0.9922" stop-color="#FEA5A4"/>
</linearGradient>
<linearGradient id="paint15_linear_710_3208" x1="284.912" y1="440.087" x2="272.612" y2="445.306" gradientUnits="userSpaceOnUse">
<stop offset="0.1324" stop-color="#F5F0F0"/>
<stop offset="0.3592" stop-color="#F5F0F0"/>
<stop offset="0.3865" stop-color="#F5F0F0"/>
<stop offset="0.4975" stop-color="#ECE9EC"/>
<stop offset="0.6788" stop-color="#D3D5E1"/>
<stop offset="0.7378" stop-color="#CACDDD"/>
<stop offset="0.9595" stop-color="#CACDDD"/>
</linearGradient>
<linearGradient id="paint16_linear_710_3208" x1="300.402" y1="449.024" x2="288.103" y2="454.242" gradientUnits="userSpaceOnUse">
<stop offset="0.1324" stop-color="#F5F0F0"/>
<stop offset="0.3592" stop-color="#F5F0F0"/>
<stop offset="0.3865" stop-color="#F5F0F0"/>
<stop offset="0.4975" stop-color="#ECE9EC"/>
<stop offset="0.6788" stop-color="#D3D5E1"/>
<stop offset="0.7378" stop-color="#CACDDD"/>
<stop offset="0.9595" stop-color="#CACDDD"/>
</linearGradient>
<linearGradient id="paint17_linear_710_3208" x1="315.938" y1="457.891" x2="303.639" y2="463.11" gradientUnits="userSpaceOnUse">
<stop offset="0.1324" stop-color="#F5F0F0"/>
<stop offset="0.3592" stop-color="#F5F0F0"/>
<stop offset="0.3865" stop-color="#F5F0F0"/>
<stop offset="0.4975" stop-color="#ECE9EC"/>
<stop offset="0.6788" stop-color="#D3D5E1"/>
<stop offset="0.7378" stop-color="#CACDDD"/>
<stop offset="0.9595" stop-color="#CACDDD"/>
</linearGradient>
<linearGradient id="paint18_linear_710_3208" x1="331.413" y1="466.836" x2="319.114" y2="472.054" gradientUnits="userSpaceOnUse">
<stop offset="0.1324" stop-color="#F5F0F0"/>
<stop offset="0.3592" stop-color="#F5F0F0"/>
<stop offset="0.3865" stop-color="#F5F0F0"/>
<stop offset="0.4975" stop-color="#ECE9EC"/>
<stop offset="0.6788" stop-color="#D3D5E1"/>
<stop offset="0.7378" stop-color="#CACDDD"/>
<stop offset="0.9595" stop-color="#CACDDD"/>
</linearGradient>
<linearGradient id="paint19_linear_710_3208" x1="163.652" y1="454.988" x2="255.331" y2="454.988" gradientUnits="userSpaceOnUse">
<stop offset="0.0495" stop-color="#FEB9B8"/>
<stop offset="0.9922" stop-color="#FEA5A4"/>
</linearGradient>
<linearGradient id="paint20_linear_710_3208" x1="126.486" y1="491.109" x2="161.135" y2="491.109" gradientUnits="userSpaceOnUse">
<stop offset="0.0495" stop-color="#FEB9B8"/>
<stop offset="0.9922" stop-color="#FEA5A4"/>
</linearGradient>
<linearGradient id="paint21_linear_710_3208" x1="170.754" y1="447.026" x2="216.808" y2="447.026" gradientUnits="userSpaceOnUse">
<stop offset="0.0495" stop-color="#FEB9B8"/>
<stop offset="0.9922" stop-color="#FEA5A4"/>
</linearGradient>
</defs>
</svg>
