<svg width="120" height="120" viewBox="0 0 120 120" fill="none" xmlns="http://www.w3.org/2000/svg">
  <mask id="mask0_716_252" style="mask-type:alpha" maskUnits="userSpaceOnUse" x="0" y="0" width="120" height="120">
    <circle cx="60" cy="60" r="60" fill="#D9D9D9"/>
  </mask>
  <g mask="url(#mask0_716_252)">
    <circle cx="60" cy="60" r="60" fill="#E9F0FD"/>
    <path d="M56.6759 63.0284C56.9084 64.6409 57.0359 66.1709 56.9534 66.9809C56.7734 68.7509 53.6536 71.8409 53.4136 72.0884C53.961 71.9384 71.6151 66.8684 73.25 62.6684C73.25 62.6684 71.0001 55.8584 69.5677 50.5559C69.0352 48.5909 68.6152 46.8359 68.4578 45.7109C67.8878 41.5484 66.3279 40.8359 66.3279 40.8359L51.5237 55.3784C53.7361 54.9959 54.726 55.8509 55.4835 57.6959C55.9109 58.7384 56.3759 60.9584 56.6759 63.0284Z" fill="url(#paint0_linear_716_252)"/>
    <g style="mix-blend-mode:multiply">
      <path d="M51.526 55.3784C53.7384 54.9959 54.7283 55.8509 55.4858 57.6959C55.9132 58.7384 56.3782 60.9584 56.6782 63.0284C59.2506 61.7684 67.7551 49.6934 69.5625 50.5634C69.03 48.5909 68.6101 46.8359 68.4526 45.7109C67.8826 41.5484 66.3227 40.8359 66.3227 40.8359L51.5185 55.3784H51.526Z" fill="#C98BC2"/>
    </g>
    <g style="mix-blend-mode:soft-light" opacity="0.5">
      <path d="M61.5301 67.6295C64.2225 65.6045 58.5528 65.372 57.7653 65.987C56.9779 66.602 56.7604 68.3045 55.2005 70.442C55.2005 70.442 57.9528 70.322 61.5301 67.637V67.6295Z" fill="#FFC7AC"/>
    </g>
    <path d="M36.3837 161.69C36.5337 162.283 37.8386 162.515 38.4611 162.553C39.076 162.598 40.5985 161.39 41.1384 160.205C41.6709 159.02 41.5209 157.093 42.2334 156.155C42.9458 155.21 44.6257 154.468 44.6257 154.468C44.6257 154.468 44.6257 155.638 44.4908 157.025C44.4908 157.1 44.4758 157.175 44.4683 157.25C44.4158 157.708 44.3633 158.18 44.2733 158.638C44.2433 158.803 44.2208 158.953 44.1833 159.11C44.1008 159.47 44.0108 159.808 43.9058 160.115C43.7933 160.438 43.6508 160.715 43.5008 160.97C42.6833 162.29 41.3859 162.815 40.6885 165.193C39.856 168.013 40.081 169.483 40.081 169.483C39.961 171.328 40.366 172.58 41.0784 172.633C41.7909 172.685 43.3808 171.568 43.3808 171.568C43.3808 171.568 44.2583 172.513 44.9257 172.505C45.5932 172.505 48.683 171.14 48.683 171.14C48.683 171.14 49.598 172.258 50.4904 172.025C51.3004 171.815 55.0877 170.33 56.0851 168.658C56.1976 168.478 56.2726 168.29 56.3101 168.103C56.6776 166.22 58.8075 161.93 58.4925 160.093C58.1775 158.263 58.8675 149.975 59.4224 146.038C59.9774 142.093 67.8295 121.01 67.807 119.135C67.7395 113.39 69.3819 103.28 69.3819 103.28C72.2392 92.1877 69.8544 84.6952 65.7296 82.3552C61.6123 80.0077 55.0802 86.6377 54.5927 94.1752C54.1052 101.713 55.0352 107.293 52.5678 116.645C50.1079 125.99 49.7105 142.7 48.818 143.938C47.9256 145.175 44.3558 145.858 42.6308 146.983C41.2284 147.89 38.6336 152.128 37.7636 154.52H37.7561C37.5611 155.075 37.4561 155.533 37.4786 155.818C37.5986 157.363 36.2562 161.098 36.4137 161.698L36.3837 161.69Z" fill="url(#paint1_linear_716_252)"/>
    <g style="mix-blend-mode:multiply">
      <path d="M54.3368 103.365C59.6615 115.852 68.481 109.53 68.481 109.53L69.351 103.282C69.351 103.282 71.1434 94.5075 65.2862 90.33C59.429 86.1525 54.3068 95.5875 54.1793 97.4175C54.0518 99.2475 54.3368 103.357 54.3368 103.357V103.365Z" fill="#DB8BC2"/>
    </g>
    <path d="M49.8227 102.018C49.8227 102.018 56.3099 107.23 61.7621 108.58C67.2218 109.93 70.9041 107.2 70.9041 107.2C70.9041 107.2 70.9041 107.178 70.9041 107.125C70.9491 106.51 71.324 102.393 74.8864 95.2301C78.7561 87.4526 77.6312 76.4051 70.1691 72.4376C62.6995 68.4851 55.7999 72.5351 54.03 83.7701C52.4101 93.9401 50.2727 100.668 49.8902 101.838C49.8827 101.853 49.8827 101.86 49.8752 101.868C49.8602 101.898 49.8602 101.92 49.8527 101.943C49.8377 101.995 49.8227 102.025 49.8227 102.025V102.018Z" fill="url(#paint2_linear_716_252)"/>
    <g style="mix-blend-mode:multiply" opacity="0.3">
      <path d="M67.5445 74.3365C67.7245 74.884 57.4876 91.8115 54.8402 94.9765C52.1929 98.1415 54.7952 88.9465 57.2476 81.5365C59.7 74.134 67.5445 74.3365 67.5445 74.3365Z" fill="#C486E8"/>
    </g>
    <g style="mix-blend-mode:soft-light">
      <path d="M54.7925 111.144C57.7474 106.201 60.9797 107.956 63.2521 114.646C66.9119 125.386 55.64 130.734 53.1876 132.466C50.7352 134.199 49.8878 122.409 54.7925 111.144Z" fill="#FF9C7C"/>
    </g>
    <path d="M45.6724 138.416C45.1474 141.401 45.2899 141.311 45.6724 142.211C46.0473 143.111 46.9023 143.201 52.107 143.501C57.3192 143.809 75.3258 139.796 76.0307 138.469C76.7432 137.141 76.1282 136.811 75.7982 136.759C75.4683 136.714 75.4682 135.911 75.4682 135.011C75.4682 134.111 74.5683 134.771 74.6133 134.396C74.6583 134.014 75.1833 132.259 74.4708 131.974C73.7584 131.696 71.8159 130.129 71.8159 126.814C71.8159 123.499 79.3005 99.5285 80.1555 90.2435C81.0105 80.9585 75.7982 65.426 75.2283 63.716C75.1533 63.4835 75.0933 63.2585 75.0558 63.0335C74.8833 62.066 75.0183 61.241 74.8458 60.7235C74.7708 60.491 74.6358 60.3185 74.3808 60.2135C73.4359 59.8385 72.3109 60.2135 72.3109 60.2135C72.3109 60.2135 66.7537 61.871 62.0215 67.1285C59.4566 69.971 55.4368 70.4435 54.6419 70.781C54.0194 71.0435 52.992 71.4785 52.4445 72.0935C52.4295 72.1085 52.3995 72.1385 52.3695 72.176C52.257 72.3185 52.1745 72.4685 52.122 72.626C52.032 72.896 51.1546 73.9835 49.9246 75.611C49.9096 75.6335 49.8946 75.6485 49.8871 75.671C49.8646 75.701 49.8496 75.7235 49.8271 75.7535C47.0223 79.4885 42.575 85.9085 41.7951 91.7585C40.0402 104.921 46.1973 135.431 45.6799 138.416H45.6724Z" fill="url(#paint3_linear_716_252)"/>
    <path style="mix-blend-mode:multiply" opacity="0.88" d="M51.7894 96.5C51.7894 96.5 51.1594 114.785 49.5545 123.312C47.9421 131.84 45.9547 134.607 45.9547 134.607C45.9547 134.607 45.0097 129.47 45.0097 126.53C45.0097 123.59 49.292 118.287 51.7969 96.5H51.7894Z" fill="url(#paint4_linear_716_252)"/>
    <g style="mix-blend-mode:multiply">
      <path d="M49.8185 75.7482C49.8185 75.7482 55.3307 75.6507 60.5355 71.5782C65.7402 67.5057 72.7673 62.6682 75.0547 63.0282C74.8822 62.0607 75.0172 61.2357 74.8447 60.7182C71.3799 60.3732 68.7475 62.9532 63.4378 67.5057C58.1356 72.0507 52.7209 71.8182 52.4434 72.0882C52.4284 72.1032 52.3984 72.1332 52.3684 72.1707C51.9409 72.6882 50.3435 74.9982 49.9235 75.6057C49.9085 75.6282 49.8935 75.6432 49.886 75.6657C49.8485 75.7182 49.826 75.7482 49.826 75.7482H49.8185Z" fill="#D68BC2"/>
    </g>
    <path style="mix-blend-mode:multiply" d="M52.8136 101.788C52.8136 101.788 52.4611 99.0134 52.1161 93.7559C51.7712 88.4984 53.796 81.3359 53.796 81.3359C53.796 81.3359 53.9385 86.0534 53.796 91.0334C53.6536 96.0059 52.8061 101.788 52.8061 101.788H52.8136Z" fill="url(#paint5_linear_716_252)"/>
    <g style="mix-blend-mode:multiply" opacity="0.3">
      <path d="M51.6875 95.5547C48.6127 100.91 42.058 98.2097 41.788 99.2072C41.5255 100.205 42.913 116.135 42.913 116.135C42.913 116.135 48.7552 111.14 51.68 95.5547H51.6875Z" fill="#C486E8"/>
    </g>
    <g style="mix-blend-mode:soft-light" opacity="0.3">
      <path d="M54.927 75.7525C56.1344 77.7775 52.9246 87.325 49.8198 92.3875C46.7149 97.45 41.7877 97.45 41.7877 97.45C41.7877 97.45 40.7753 92.8 42.5152 88.6375C44.2551 84.475 49.8198 75.76 49.8198 75.76C49.8198 75.76 53.5771 73.4875 54.927 75.76V75.7525Z" fill="#FFBAEF"/>
    </g>
    <path d="M42.237 89.5483C42.237 89.5483 46.9843 88.2133 47.4042 88.2508C47.8242 88.2883 47.3442 101.316 46.7143 102.463C46.0843 103.611 41.5696 103.363 41.5696 103.363C41.5696 103.363 41.2621 94.1383 42.237 89.5483Z" fill="url(#paint6_linear_716_252)"/>
    <path d="M73.7129 107.118C74.2154 111.401 65.7783 112.946 61.8935 111.881C56.6888 110.448 52.279 107.688 52.114 104.943C51.9491 102.198 57.6637 94.9759 64.5709 95.9584C71.4855 96.9409 73.5179 105.513 73.7054 107.118H73.7129Z" fill="#68004A"/>
    <path d="M47.1461 165.899C47.3786 166.461 48.706 166.514 49.321 166.461C49.9359 166.416 51.2784 165.014 51.6459 163.761C52.0058 162.516 51.5934 160.626 52.1633 159.599C52.7333 158.564 54.2932 157.596 54.2932 157.596C54.2932 157.596 54.4582 158.751 54.5182 160.146C54.5182 160.221 54.5182 160.296 54.5182 160.371C54.5332 160.829 54.5407 161.309 54.5182 161.774C54.5182 161.939 54.5182 162.096 54.4957 162.254C54.4657 162.621 54.4207 162.966 54.3607 163.289C53.9332 165.419 52.2983 165.846 51.8708 168.764C51.4434 171.674 51.8708 173.099 51.8708 173.099C52.0133 174.944 52.5833 176.129 53.2958 176.076C54.0082 176.031 55.4257 174.704 55.4257 174.704C55.4257 174.704 56.4231 175.514 57.0831 175.416C57.743 175.319 60.6154 173.541 60.6154 173.541C60.6154 173.541 61.6803 174.516 62.5278 174.164C63.3002 173.841 66.84 171.846 67.5975 170.046C67.68 169.851 67.7325 169.656 67.74 169.469C67.8375 167.556 69.3524 163.004 68.7824 161.234C68.2125 159.464 67.74 151.161 67.74 147.186C67.74 143.211 72.5697 121.229 72.2847 119.376C71.4148 113.699 71.6248 103.454 71.6248 103.454C72.9072 92.0685 69.4949 84.9886 65.0851 83.2411C60.6829 81.4936 55.1407 88.9711 55.7106 96.5011C56.2806 104.031 57.983 109.431 56.8431 119.031C55.7106 128.631 57.653 145.229 56.9406 146.579C56.2281 147.929 52.7933 149.106 51.2409 150.456C49.9809 151.551 48.0011 156.111 47.4761 158.601C47.3561 159.179 47.3186 159.644 47.3786 159.929C47.7161 161.444 46.9061 165.329 47.1461 165.899Z" fill="url(#paint7_linear_716_252)"/>
    <g style="mix-blend-mode:multiply">
      <path d="M56.7689 105.634C60.3537 99.8218 71.6406 109.767 71.6406 109.767L71.6256 103.459C71.6256 103.459 72.1731 94.5193 65.7909 91.2043C59.4088 87.8893 55.659 97.9468 55.779 99.7768C55.9065 101.607 56.7689 105.634 56.7689 105.634Z" fill="#DB8BC2"/>
    </g>
    <path d="M52.1121 104.935C52.1121 104.935 58.4568 98.0198 64.044 98.5898C69.6387 99.1598 73.711 107.117 73.711 107.117C73.711 107.117 73.711 107.095 73.711 107.042C73.666 106.427 73.4635 102.295 75.9909 94.7048C78.7357 86.4623 76.0808 75.6773 68.1313 72.7973C60.1817 69.9248 53.9195 74.9048 53.732 86.2748C53.5521 96.5723 52.3746 103.532 52.1571 104.747C52.1571 104.762 52.1571 104.77 52.1571 104.777C52.1496 104.807 52.1496 104.83 52.1421 104.852C52.1421 104.905 52.1271 104.935 52.1271 104.935H52.1121Z" fill="url(#paint8_linear_716_252)"/>
    <g style="mix-blend-mode:multiply" opacity="0.3">
      <path d="M65.7829 75.0547C66.0379 75.5722 58.2683 93.7597 56.0859 97.2697C53.9036 100.772 55.201 91.2997 56.5884 83.6272C57.9758 75.9547 65.7754 75.0547 65.7754 75.0547H65.7829Z" fill="#C486E8"/>
    </g>
    <path style="mix-blend-mode:multiply" d="M52.1121 104.935C52.1121 104.935 58.4568 98.0201 64.044 98.5901C69.6387 99.1601 73.7109 107.118 73.7109 107.118C73.7109 107.118 73.7109 107.095 73.7109 107.043C73.6134 106.3 72.5935 100.293 65.3789 97.3601C58.1118 94.3976 52.6371 103.248 52.1571 104.748C52.1571 104.763 52.1571 104.77 52.1571 104.778C52.1421 104.808 52.1346 104.83 52.1421 104.853C52.1271 104.89 52.1271 104.92 52.1271 104.935H52.1121Z" fill="url(#paint9_linear_716_252)"/>
    <g style="mix-blend-mode:soft-light">
      <path d="M58.3059 113.273C60.5408 107.971 63.9831 109.253 67.1779 115.561C72.3001 125.686 61.8832 132.556 59.7008 134.611C57.5184 136.673 55.0285 125.116 58.3059 113.273Z" fill="#FF9C7C"/>
    </g>
    <path d="M42.9152 56.7396C44.8501 57.7446 59.2943 53.4321 62.0692 52.0821C64.8441 50.7321 66.6889 42.7371 70.6637 36.5046C74.646 30.2721 74.781 18.7596 63.8466 13.5021C52.9047 8.24458 45.6676 15.3621 43.9577 17.7021C42.2553 20.0421 40.9953 27.0021 41.2128 28.1421C41.4303 29.2821 41.9928 32.1921 41.7828 33.3996C41.5728 34.6071 37.4105 38.0871 36.5256 39.7596C35.6406 41.4321 37.553 43.3821 39.2629 43.7046C39.2629 43.7046 39.0154 46.4346 38.588 47.2221C38.588 47.2221 39.6529 48.1446 40.0429 48.2871C40.0429 48.2871 39.6154 48.6096 39.4729 49.8171C39.4729 49.8171 40.3579 50.6496 40.6954 51.4971C41.0253 52.3521 40.1779 55.3146 42.9227 56.7471L42.9152 56.7396Z" fill="url(#paint10_radial_716_252)"/>
    <path d="M42.994 19.5835L43.819 18.0085L44.4339 18.301C44.4339 18.301 44.164 15.841 51.0636 16.9135C57.9632 17.9935 59.5381 23.6335 59.6806 24.9535C59.6956 25.0735 59.7256 25.2085 59.7856 25.3735C60.3181 27.031 62.6355 30.931 61.818 37.171L65.6878 38.641C65.6878 38.641 70.0001 33.556 75.1298 34.5085C75.1298 34.5085 76.8022 32.2435 77.5822 30.181C78.1296 28.7335 78.2571 28.051 78.2871 27.7735C78.3021 27.6535 78.2946 27.6085 78.2946 27.6085C78.2946 27.6085 78.4821 27.0085 79.1196 28.0735C79.757 29.1385 79.8545 24.6085 78.7671 20.7535C76.6297 13.231 68.7176 11.191 62.9355 10.321C62.9355 10.321 66.4603 10.5385 67.2177 10.696C67.9752 10.8535 61.9305 7.57603 53.7185 7.50103C45.5139 7.41853 42.8215 12.301 42.4391 14.5585C42.0641 16.8235 42.994 19.5835 42.994 19.5835Z" fill="url(#paint11_linear_716_252)"/>
    <path d="M44.4373 18.3019C44.4373 18.3019 46.4922 13.8544 51.1645 14.0119C55.8292 14.1694 56.0917 20.9194 55.6417 21.4294C55.1918 21.9394 50.647 18.3319 48.3446 17.4169C46.0423 16.5019 44.4373 18.3019 44.4373 18.3019Z" fill="url(#paint12_linear_716_252)"/>
    <path style="mix-blend-mode:multiply" opacity="0.8" d="M45.0039 37.069C45.0039 37.069 43.4815 31.7965 43.8415 28.564C44.1939 25.3315 50.7786 26.6665 53.3359 29.8465C55.8933 33.0265 55.2408 36.439 54.9034 36.6265C54.5659 36.814 45.0039 37.0765 45.0039 37.0765V37.069Z" fill="url(#paint13_linear_716_252)"/>
    <g style="mix-blend-mode:multiply" opacity="0.5">
      <path d="M52.5234 34.5C52.5234 34.5 52.4259 35.7525 52.141 36.2625C51.856 36.765 48.3837 36.5175 48.3837 36.5175C48.3837 36.5175 51.091 36.2325 52.5234 34.5075V34.5Z" fill="#EA8BC2"/>
    </g>
    <path d="M44.621 32.015C44.621 32.0825 44.666 32.105 44.7335 32.39C44.801 32.6975 45.0335 33.2525 45.1535 33.6875C45.3185 34.28 45.371 34.94 45.551 35.465C45.5735 35.51 45.5885 35.54 45.596 35.585C45.7985 36.11 45.9785 36.5 46.091 36.5225C46.1435 36.5375 46.196 36.5525 46.2485 36.56C46.2785 36.56 46.3085 36.575 46.3385 36.575C48.5283 36.9575 52.3906 35.33 52.3906 34.9025C52.3906 34.475 51.8657 33.125 50.3507 32.2325C48.8358 31.3475 44.666 31.655 44.621 32.015Z" fill="url(#paint14_linear_716_252)"/>
    <path d="M45.7876 36.0234C45.7876 36.0234 45.7351 36.4134 45.7876 36.6309C45.8401 36.8484 46.875 36.6309 46.875 36.6309C46.875 36.6309 46.1775 36.5484 45.7876 36.0234Z" fill="#E24C5B"/>
    <path d="M52.2634 34.375C52.2634 34.375 52.3384 35.41 49.6086 36.2125C49.6086 36.2125 51.596 35.9125 52.3909 35.1925C52.7509 34.87 52.2634 34.375 52.2634 34.375Z" fill="#E24C5B"/>
    <path d="M44.714 32.3017C44.7815 32.6317 44.8865 33.0517 45.0064 33.5092C45.1714 34.1392 45.3739 34.8292 45.5539 35.3842C45.5764 35.4292 45.5914 35.4667 45.5989 35.5117C45.8014 36.0742 45.9814 36.4867 46.0939 36.5167C46.1464 36.5317 46.1989 36.5467 46.2514 36.5542C46.1239 36.5767 45.9889 36.5842 45.8389 36.5692C46.0039 36.6067 46.1764 36.6067 46.3414 36.5692H46.3564C47.2563 36.3667 47.7513 35.1742 47.4663 33.8992C47.1813 32.6242 46.2214 31.7542 45.3289 31.9492C45.0965 32.0017 44.8865 32.1217 44.714 32.3017Z" fill="url(#paint15_linear_716_252)"/>
    <g style="mix-blend-mode:multiply" opacity="0.79">
      <path d="M45.0064 33.5077C45.1714 34.1377 45.3739 34.8277 45.5539 35.3827C45.6964 35.4502 45.8539 35.4652 46.0039 35.4352C46.4839 35.3227 46.7613 34.7227 46.6189 34.0852C46.4764 33.4477 45.9739 33.0202 45.4939 33.1252C45.2839 33.1702 45.1114 33.3127 45.0064 33.5077Z" fill="#975995"/>
    </g>
    <g style="mix-blend-mode:soft-light" opacity="0.5">
      <path d="M45.5947 35.5072C45.7972 36.0697 45.9772 36.4822 46.0897 36.5122C46.1422 36.5272 46.1946 36.5422 46.2471 36.5497C47.2071 36.3997 47.4321 35.3197 47.3946 35.2072C47.3421 35.0647 46.7796 34.6597 46.7046 34.7797C46.6221 34.8922 46.5471 35.3272 46.1271 35.4772C45.8872 35.5597 45.7147 35.5297 45.5947 35.5072Z" fill="#FFC7AC"/>
    </g>
    <path d="M47.5443 34.3757C49.2392 34.4507 47.9268 34.9832 47.4018 34.7882C46.8693 34.5932 47.1318 34.3607 47.5443 34.3757Z" fill="white"/>
    <g style="mix-blend-mode:multiply">
      <path d="M45.0034 31.5184C45.0034 31.5184 45.3334 30.4234 45.8284 30.2884C46.3233 30.1534 48.8957 30.6034 50.3281 32.0209C50.3281 32.0209 48.1607 30.7309 46.8783 30.7534C45.5959 30.7759 45.0034 31.5184 45.0034 31.5184Z" fill="#EA8BC2"/>
    </g>
    <path d="M44.7573 32.7657C44.7573 32.7657 43.8423 31.9332 43.6548 31.6632C43.4673 31.4007 46.1972 30.8832 48.6495 31.3782C51.1019 31.8657 51.8594 33.6282 51.8594 33.6282C51.8594 33.6282 51.2294 32.4657 48.672 32.0232C45.5447 31.4907 44.7573 32.7657 44.7573 32.7657Z" fill="#560A35"/>
    <g style="mix-blend-mode:multiply">
      <path d="M43.6453 40.25C43.6453 40.25 43.8328 42.7175 43.0228 43.4225C42.2129 44.135 41.5979 43.355 40.698 43.4225C39.798 43.49 39.2655 43.7075 39.2655 43.7075C39.2655 43.7075 36.6257 42.6875 36.6257 41.6675C36.6257 41.6675 38.6281 42.0725 40.368 42.32C42.1079 42.5675 42.0479 42.8075 42.7453 42.7475C43.4503 42.6875 43.6453 40.25 43.6453 40.25Z" fill="#EA8BC2"/>
    </g>
    <g style="mix-blend-mode:multiply" opacity="0.5">
      <path d="M43.6484 40.2458C43.206 38.5208 40.3636 42.3233 40.3636 42.3233C40.3636 42.3233 41.4061 43.3958 42.3585 43.2083C43.311 43.0283 43.6484 40.2458 43.6484 40.2458Z" fill="#EA8BC2"/>
    </g>
    <g style="mix-blend-mode:multiply">
      <path d="M43.1956 43.2319C42.4982 44.4394 38.9283 46.1269 38.9283 46.1269C38.9283 46.1269 39.2583 44.0869 39.2733 43.7119C39.2733 43.7119 37.1509 43.0744 36.6335 41.6719C36.6335 41.6719 38.2759 41.9869 40.1883 42.2944C42.1007 42.5944 43.2031 43.2319 43.2031 43.2319H43.1956Z" fill="#C977C2"/>
    </g>
    <g style="mix-blend-mode:multiply" opacity="0.2">
      <path d="M37.87 38.0325C40.6898 36.105 42.8122 38.625 43.1797 39.3225C43.5472 40.0275 42.3547 35.4225 42.3472 34.3425C42.3472 33.2625 40.1349 35.655 40.1349 35.655L37.87 38.0325Z" fill="#EA8BC2"/>
    </g>
    <path d="M38.5803 47.2177C40.9952 46.8277 42.4576 48.2152 43.2526 48.1402C44.0476 48.0727 45 47.2177 45 47.2177C45 47.2177 43.6951 48.7102 43.2526 48.8152C42.8101 48.9202 41.2802 48.3202 40.0353 48.2827C40.0353 48.2827 38.6853 47.5702 38.5803 47.2177Z" fill="url(#paint16_linear_716_252)"/>
    <path d="M39.4627 49.8177C39.4627 49.8177 41.6001 49.6752 43.25 48.8202C43.25 48.8202 40.8876 48.2127 40.0327 48.2877C40.0327 48.2877 39.3202 49.0302 39.4627 49.8177Z" fill="#FA7763"/>
    <g style="mix-blend-mode:multiply">
      <path d="M40.7894 52.2154C40.7894 52.2154 42.2819 50.7454 42.5668 50.2054C42.8518 49.6729 39.852 50.2054 39.852 50.2054C39.852 50.2054 40.7369 50.9854 40.7969 52.2154H40.7894Z" fill="#C977C2"/>
    </g>
    <g style="mix-blend-mode:multiply">
      <path d="M48.1719 56.2331L41.4597 55.4531C41.4597 55.4531 42.2772 56.6156 43.6346 56.9006C44.992 57.1856 48.1719 56.2331 48.1719 56.2331Z" fill="#EEB4C9"/>
    </g>
    <path d="M65.1352 37.815C65.1352 37.815 66.7326 35.13 69.2225 34.1175C71.7124 33.105 75.4547 33.9975 76.4971 35.28C77.5396 36.57 76.6846 41.0025 74.7497 43.335C72.8148 45.6675 68.93 46.32 67.0476 46.065C65.1652 45.8175 63.6353 39.6975 65.1427 37.8075L65.1352 37.815Z" fill="url(#paint17_linear_716_252)"/>
    <path style="mix-blend-mode:multiply" opacity="0.88" d="M65.7804 39.7915C65.7804 39.7915 65.8554 37.279 70.9326 36.064C76.0173 34.849 75.2074 38.614 75.0799 40.834C74.9524 43.0615 72.2375 44.389 72.2375 44.389C72.2375 44.389 74.8399 42.889 74.5549 40.1065C74.2699 37.3315 72.47 37.4215 72.14 37.6615C71.8101 37.9015 72.8 39.4315 71.3826 41.509C69.9652 43.5865 69.2527 43.249 67.9703 42.589C66.6878 41.929 67.3103 41.0965 67.5428 39.8965C67.7753 38.6965 65.7729 39.7915 65.7729 39.7915H65.7804Z" fill="url(#paint18_linear_716_252)"/>
    <g style="mix-blend-mode:multiply">
      <path d="M67.794 37.2778C69.9614 36.1153 72.4888 40.3378 70.4939 41.9878C68.499 43.6378 67.8015 41.8378 67.794 40.2478C67.7865 38.6653 66.4366 38.6503 66.4366 38.6503C66.4366 38.6503 67.1116 37.6453 67.794 37.2853V37.2778Z" fill="#C98BC2"/>
    </g>
    <path d="M43.8411 28.5737C43.8411 28.5737 43.0237 27.7937 43.0237 25.5212C43.0237 25.5212 42.9562 24.5012 43.3762 25.2137C43.8036 25.9262 43.8411 27.3362 43.8411 27.3362C43.8411 27.3362 43.7361 25.7012 44.1936 25.3487C44.6586 24.9962 47.4634 25.4537 49.2108 25.6412C50.9657 25.8287 51.2957 25.6412 51.9557 26.7812C52.6157 27.9212 53.3281 29.8637 53.3281 29.8637C53.3281 29.8637 52.5107 29.1287 51.7907 28.7987C51.0632 28.4687 46.7435 29.5787 43.8336 28.5887L43.8411 28.5737Z" fill="url(#paint19_linear_716_252)"/>
    <path style="mix-blend-mode:multiply" opacity="0.88" d="M64.135 36.0686C63.28 35.1161 57.5728 37.0061 54.1905 41.5136C50.0432 47.0336 48.1758 55.5386 48.1758 55.7861C48.1758 56.2361 60.1827 53.8136 62.5376 51.6011C66.9023 47.5061 64.135 36.0686 64.135 36.0686Z" fill="url(#paint20_linear_716_252)"/>
    <g style="mix-blend-mode:multiply" opacity="0.5">
      <path d="M53.3365 28.6471C54.6114 31.9921 61.3086 31.2871 62.366 29.8546C63.4235 28.4221 58.6462 24.5146 55.2339 23.0896C51.8216 21.6646 51.6116 24.1396 51.8591 24.9796C52.1066 25.8271 53.3365 28.6471 53.3365 28.6471Z" fill="#EEB4C9"/>
    </g>
    <g style="mix-blend-mode:multiply" opacity="0.2">
      <path d="M57.162 37.1719C58.1819 37.1644 54.4846 40.2469 52.1147 42.4144C49.7449 44.5819 45.8826 40.9294 45.7776 40.5319C45.6726 40.1344 45.7251 37.2694 57.162 37.1719Z" fill="#EA8BC2"/>
    </g>
    <path style="mix-blend-mode:multiply" opacity="0.8" d="M55.7888 20.8427C55.7888 20.8427 55.0239 16.6052 52.399 14.8277C49.7741 13.0502 47.5542 14.9402 47.5542 14.9402C47.5542 14.9402 49.0992 13.0577 52.534 13.8377C55.9688 14.6177 55.9313 19.9352 55.7888 20.8502V20.8427Z" fill="url(#paint21_linear_716_252)"/>
    <path style="mix-blend-mode:multiply" opacity="0.8" d="M79.1172 28.0744C79.1172 28.0744 77.8723 23.3644 73.7025 18.9094C69.5327 14.4544 61.1482 12.6094 61.1482 12.6094C61.1482 12.6094 68.0328 14.5519 73.605 21.0769C76.6123 24.6019 78.5322 27.4819 78.5322 27.4819C78.5322 27.4819 78.9447 27.5794 79.1172 28.0744Z" fill="url(#paint22_linear_716_252)"/>
    <path style="mix-blend-mode:multiply" opacity="0.8" d="M67.2188 10.6959C67.2188 10.6959 59.5167 7.36586 51.7921 9.43586C44.06 11.4984 43.19 16.7784 43.19 16.7784C43.19 16.7784 48.5148 6.69086 67.2188 10.7034V10.6959Z" fill="url(#paint23_linear_716_252)"/>
    <g style="mix-blend-mode:multiply">
      <path d="M59.7876 25.3825C60.32 27.0325 62.6374 30.9325 61.82 37.1725L65.6897 38.6425C65.6897 38.6425 70.002 33.5575 75.1317 34.51C75.1317 34.51 76.8041 32.245 77.5841 30.1825C78.1316 28.735 78.2591 28.0525 78.2891 27.775L78.2066 27.4C78.2066 27.4 77.5691 28.3375 73.8268 28.9975C70.0845 29.6575 59.7876 25.375 59.7876 25.375V25.3825Z" fill="#C95BC2"/>
    </g>
    <path style="mix-blend-mode:multiply" opacity="0.8" d="M73.8438 14.0223C73.8438 14.0223 70.2439 12.2748 64.2368 11.9673C61.9344 11.8473 60.4045 14.3148 57.9821 13.8873C49.5151 12.3798 45.0078 16.4898 45.0078 16.4898C45.0078 16.4898 47.5727 12.6948 58.0196 11.8773C68.4665 11.0598 73.8438 14.0148 73.8438 14.0148V14.0223Z" fill="url(#paint24_linear_716_252)"/>
    <path style="mix-blend-mode:multiply" opacity="0.8" d="M55.2308 14.0078C55.2308 14.0078 59.3481 16.2053 63.6603 20.1353C67.9726 24.0653 65.4602 16.0703 63.1429 14.4803C63.1429 14.4803 64.9878 14.5478 66.9302 19.2803C68.8726 24.0128 66.1052 23.8028 62.5129 20.3378C58.9206 16.8728 55.2308 14.0078 55.2308 14.0078Z" fill="url(#paint25_linear_716_252)"/>
    <g style="mix-blend-mode:soft-light" opacity="0.3">
      <path d="M59.4167 11.6207C62.6865 10.8707 57.6468 9.30318 54.3545 10.1357C51.0621 10.9682 49.8247 11.9957 49.8247 11.9957C49.8247 11.9957 54.662 12.7082 59.4092 11.6207H59.4167Z" fill="#FF868D"/>
    </g>
    <g style="mix-blend-mode:soft-light" opacity="0.3">
      <path d="M52.8208 15.1611C55.5807 17.0586 51.9959 17.7561 50.106 17.2461C48.2161 16.7361 47.3911 16.3236 47.3911 16.3236C47.3911 16.3236 48.9435 12.4986 52.8133 15.1611H52.8208Z" fill="#FF868D"/>
    </g>
    <g style="mix-blend-mode:soft-light" opacity="0.3">
      <path d="M56.0312 8.49212C56.0312 8.49212 52.8739 7.07462 50.1066 7.83212C47.3392 8.58962 46.1543 10.4796 46.1093 10.5771C46.0643 10.6746 50.5415 9.48212 52.2889 9.09212C54.0439 8.70212 56.0312 8.49212 56.0312 8.49212Z" fill="#FF868D"/>
    </g>
    <g style="mix-blend-mode:soft-light" opacity="0.3">
      <path d="M61.4065 13.6328C63.8663 13.6703 66.1537 18.6428 65.5837 19.8728C65.0138 21.1028 59.3816 16.0853 58.0991 15.2528C56.8167 14.4203 61.4065 13.6328 61.4065 13.6328Z" fill="#FF868D"/>
    </g>
    <g style="mix-blend-mode:soft-light" opacity="0.5">
      <path d="M56.7335 11.9792C57.9034 11.4092 56.7035 10.5617 55.1511 10.2392C53.5012 9.89417 52.0912 10.6442 52.0912 10.6442C52.0912 10.6442 54.5436 11.8742 55.1886 11.9792C55.8335 12.0842 56.726 11.9792 56.726 11.9792H56.7335Z" fill="#FFE2C5"/>
    </g>
    <g style="mix-blend-mode:soft-light" opacity="0.5">
      <path d="M53.9186 7.83565C55.2685 8.24065 54.5261 8.69815 52.2987 9.09565C50.0713 9.48565 48.9839 8.76565 48.9839 8.76565C48.9839 8.76565 50.8512 6.91315 53.9186 7.83565Z" fill="#FFE2C5"/>
    </g>
    <path style="mix-blend-mode:multiply" opacity="0.88" d="M44.1185 46.773C44.1185 46.773 44.8085 46.6005 45.3034 47.2005C45.7984 47.808 45.3034 48.8055 45.3034 48.8055C45.3034 48.8055 45.4459 47.913 44.1185 46.773Z" fill="url(#paint26_linear_716_252)"/>
    <path style="mix-blend-mode:multiply" opacity="0.3" d="M42.7783 43.7252C43.4833 43.5302 44.1507 41.8577 43.6407 39.1577C43.1308 36.4577 42.7483 34.7852 42.3508 34.3427C41.9533 33.9002 37.5061 38.4602 36.8386 39.2702C36.1712 40.0802 36.1937 41.3852 36.9811 42.2777C37.7686 43.1702 39.261 43.7027 39.261 43.7027C39.261 43.7027 40.7984 43.3127 42.7858 43.7177L42.7783 43.7252Z" fill="url(#paint27_linear_716_252)"/>
    <g style="mix-blend-mode:soft-light" opacity="0.5">
      <path d="M51.7824 19.3804C54.9772 21.4354 50.9199 25.0354 47.6651 24.9604C44.4103 24.8779 41.5379 24.9604 41.5379 24.9604C41.5379 24.9604 41.9579 20.7754 43.8253 19.3804C45.6927 17.9854 50.3424 18.4504 51.7899 19.3804H51.7824Z" fill="#FFC7AC"/>
    </g>
    <path d="M41.6819 92.4587C44.5168 89.5112 44.8542 101.474 43.0843 101.984C42.1169 102.261 41.5394 102.156 41.5394 102.156C41.5394 102.156 41.3144 98.4737 41.6819 92.4587Z" fill="#E1E2F7"/>
  </g>
  <defs>
    <linearGradient id="paint0_linear_716_252" x1="62.3906" y1="72.0884" x2="62.3906" y2="40.8359" gradientUnits="userSpaceOnUse">
      <stop offset="0.02" stop-color="#FF8D5B"/>
      <stop offset="1" stop-color="#FF6F6B"/>
    </linearGradient>
    <linearGradient id="paint1_linear_716_252" x1="47.382" y1="173.515" x2="60.4026" y2="81.3403" gradientUnits="userSpaceOnUse">
      <stop stop-color="#FF6F6B"/>
      <stop offset="0.98" stop-color="#FF8D5B"/>
    </linearGradient>
    <linearGradient id="paint2_linear_716_252" x1="61.4737" y1="108.598" x2="66.7651" y2="71.1399" gradientUnits="userSpaceOnUse">
      <stop stop-color="#B30039"/>
      <stop offset="1" stop-color="#C70018"/>
    </linearGradient>
    <linearGradient id="paint3_linear_716_252" x1="60.859" y1="143.524" x2="60.859" y2="60.0485" gradientUnits="userSpaceOnUse">
      <stop stop-color="#567CF0"/>
      <stop offset="1" stop-color="#567CF0"/>
    </linearGradient>
    <linearGradient id="paint4_linear_716_252" x1="48.3996" y1="134.607" x2="48.3996" y2="96.5" gradientUnits="userSpaceOnUse">
      <stop stop-color="#BD36C9"/>
      <stop offset="1" stop-color="white"/>
    </linearGradient>
    <linearGradient id="paint5_linear_716_252" x1="52.9711" y1="101.788" x2="52.9711" y2="81.3359" gradientUnits="userSpaceOnUse">
      <stop stop-color="#AE47B8"/>
      <stop offset="1" stop-color="white"/>
    </linearGradient>
    <linearGradient id="paint6_linear_716_252" x1="44.5469" y1="103.386" x2="44.5469" y2="88.2508" gradientUnits="userSpaceOnUse">
      <stop stop-color="#292E86"/>
      <stop offset="1" stop-color="#292E86"/>
    </linearGradient>
    <linearGradient id="paint7_linear_716_252" x1="59.7079" y1="176.084" x2="59.7079" y2="82.9861" gradientUnits="userSpaceOnUse">
      <stop offset="0.02" stop-color="#FF8D5B"/>
      <stop offset="1" stop-color="#FF6F6B"/>
    </linearGradient>
    <linearGradient id="paint8_linear_716_252" x1="64.5765" y1="107.117" x2="64.5765" y2="72.0023" gradientUnits="userSpaceOnUse">
      <stop stop-color="#567CF0"/>
      <stop offset="1" stop-color="#567CF0"/>
    </linearGradient>
    <linearGradient id="paint9_linear_716_252" x1="62.9115" y1="107.118" x2="62.9115" y2="96.7601" gradientUnits="userSpaceOnUse">
      <stop stop-color="#AE47B8"/>
      <stop offset="1" stop-color="white"/>
    </linearGradient>
    <radialGradient id="paint10_radial_716_252" cx="0" cy="0" r="1" gradientUnits="userSpaceOnUse" gradientTransform="translate(53.7971 47.7874) rotate(180) scale(28.4835 37.8851)">
      <stop offset="0.02" stop-color="#FFA774"/>
      <stop offset="1" stop-color="#FF9B91"/>
    </radialGradient>
    <linearGradient id="paint11_linear_716_252" x1="60.9706" y1="38.641" x2="60.9706" y2="7.50103" gradientUnits="userSpaceOnUse">
      <stop stop-color="#6B1623"/>
      <stop offset="1" stop-color="#AC2C16"/>
    </linearGradient>
    <linearGradient id="paint12_linear_716_252" x1="50.1145" y1="21.4819" x2="50.1145" y2="14.0119" gradientUnits="userSpaceOnUse">
      <stop stop-color="#6B1623"/>
      <stop offset="1" stop-color="#AC2C16"/>
    </linearGradient>
    <linearGradient id="paint13_linear_716_252" x1="49.5111" y1="37.069" x2="49.5111" y2="26.704" gradientUnits="userSpaceOnUse">
      <stop stop-color="white"/>
      <stop offset="1" stop-color="#DC5E7E"/>
    </linearGradient>
    <linearGradient id="paint14_linear_716_252" x1="48.5058" y1="36.635" x2="48.5058" y2="31.6625" gradientUnits="userSpaceOnUse">
      <stop stop-color="#FFE7E3"/>
      <stop offset="1" stop-color="#FFE6E4"/>
    </linearGradient>
    <linearGradient id="paint15_linear_716_252" x1="46.1314" y1="36.5992" x2="46.1314" y2="31.9267" gradientUnits="userSpaceOnUse">
      <stop offset="0.02" stop-color="#923D1A"/>
      <stop offset="1" stop-color="#4D2030"/>
    </linearGradient>
    <linearGradient id="paint16_linear_716_252" x1="41.7677" y1="48.8152" x2="41.7902" y2="47.1727" gradientUnits="userSpaceOnUse">
      <stop offset="0.02" stop-color="#D4312E"/>
      <stop offset="1" stop-color="#AC0037"/>
    </linearGradient>
    <linearGradient id="paint17_linear_716_252" x1="67.9176" y1="46.164" x2="67.9176" y2="33.7064" gradientUnits="userSpaceOnUse">
      <stop stop-color="#FFA986"/>
      <stop offset="0.98" stop-color="#FF705B"/>
    </linearGradient>
    <linearGradient id="paint18_linear_716_252" x1="70.4901" y1="44.389" x2="70.4901" y2="35.8315" gradientUnits="userSpaceOnUse">
      <stop stop-color="white"/>
      <stop offset="1" stop-color="#DC5E7E"/>
    </linearGradient>
    <linearGradient id="paint19_linear_716_252" x1="53.3356" y1="27.4037" x2="43.0162" y2="27.4037" gradientUnits="userSpaceOnUse">
      <stop stop-color="#BD4016"/>
      <stop offset="0.97" stop-color="#95352A"/>
    </linearGradient>
    <linearGradient id="paint20_linear_716_252" x1="56.5904" y1="55.8386" x2="56.5904" y2="35.8286" gradientUnits="userSpaceOnUse">
      <stop stop-color="white"/>
      <stop offset="1" stop-color="#DC5E7E"/>
    </linearGradient>
    <linearGradient id="paint21_linear_716_252" x1="55.8338" y1="17.2352" x2="47.5542" y2="17.2352" gradientUnits="userSpaceOnUse">
      <stop stop-color="#AC3965"/>
      <stop offset="1" stop-color="white"/>
    </linearGradient>
    <linearGradient id="paint22_linear_716_252" x1="79.1172" y1="20.3419" x2="61.1482" y2="20.3419" gradientUnits="userSpaceOnUse">
      <stop stop-color="#AC3965"/>
      <stop offset="1" stop-color="white"/>
    </linearGradient>
    <linearGradient id="paint23_linear_716_252" x1="67.2188" y1="12.7659" x2="43.19" y2="12.7659" gradientUnits="userSpaceOnUse">
      <stop stop-color="white"/>
      <stop offset="1" stop-color="#AC3965"/>
    </linearGradient>
    <linearGradient id="paint24_linear_716_252" x1="73.8438" y1="14.1123" x2="45.0078" y2="14.1123" gradientUnits="userSpaceOnUse">
      <stop stop-color="white"/>
      <stop offset="1" stop-color="#AC3965"/>
    </linearGradient>
    <linearGradient id="paint25_linear_716_252" x1="67.5676" y1="18.4553" x2="55.2308" y2="18.4553" gradientUnits="userSpaceOnUse">
      <stop stop-color="#AC3965"/>
      <stop offset="1" stop-color="white"/>
    </linearGradient>
    <linearGradient id="paint26_linear_716_252" x1="44.8235" y1="48.8055" x2="44.8235" y2="46.7505" gradientUnits="userSpaceOnUse">
      <stop stop-color="white"/>
      <stop offset="1" stop-color="#AB1A7E"/>
    </linearGradient>
    <linearGradient id="paint27_linear_716_252" x1="40.0859" y1="43.7252" x2="40.0859" y2="34.3127" gradientUnits="userSpaceOnUse">
      <stop stop-color="#DC5E7E"/>
      <stop offset="1" stop-color="white"/>
    </linearGradient>
  </defs>
</svg>