<svg width="120" height="120" viewBox="0 0 120 120" fill="none" xmlns="http://www.w3.org/2000/svg">
  <mask id="mask0_716_251" style="mask-type:alpha" maskUnits="userSpaceOnUse" x="0" y="0" width="120" height="120">
    <circle cx="60" cy="60" r="60" fill="#D9D9D9"/>
  </mask>
  <g mask="url(#mask0_716_251)">
    <circle cx="60" cy="60" r="60" fill="#E9F0FD"/>
    <path d="M61.0828 63.0284C60.8503 64.6409 60.7228 66.1709 60.8053 66.9809C60.9853 68.7509 64.1053 71.8409 64.3453 72.0884C63.7978 71.9384 46.1428 66.8684 44.5078 62.6684C44.5078 62.6684 46.7578 55.8584 48.1903 50.5559C48.7228 48.5909 49.1428 46.8359 49.3003 45.7109C49.8703 41.5484 51.4303 40.8359 51.4303 40.8359L66.2353 55.3784C64.0228 54.9959 63.0328 55.8509 62.2753 57.6959C61.8478 58.7384 61.3828 60.9584 61.0828 63.0284Z" fill="url(#paint0_linear_716_251)"/>
    <g style="mix-blend-mode:multiply">
      <path d="M66.2406 55.3784C64.0281 54.9959 63.0381 55.8509 62.2806 57.6959C61.8531 58.7384 61.3881 60.9584 61.0881 63.0284C58.5156 61.7684 50.0106 49.6934 48.2031 50.5634C48.7356 48.5909 49.1556 46.8359 49.3131 45.7109C49.8831 41.5484 51.4431 40.8359 51.4431 40.8359L66.2481 55.3784H66.2406Z" fill="#C98BC2"/>
    </g>
    <g style="mix-blend-mode:soft-light" opacity="0.5">
      <path d="M56.2355 67.6295C53.543 65.6045 59.213 65.372 60.0005 65.987C60.788 66.602 61.0055 68.3045 62.5655 70.442C62.5655 70.442 59.813 70.322 56.2355 67.637V67.6295Z" fill="#FFC7AC"/>
    </g>
    <path d="M81.3682 161.69C81.2182 162.283 79.9132 162.515 79.2907 162.553C78.6757 162.598 77.1532 161.39 76.6132 160.205C76.0807 159.02 76.2307 157.093 75.5182 156.155C74.8057 155.21 73.1257 154.468 73.1257 154.468C73.1257 154.468 73.1257 155.638 73.2607 157.025C73.2607 157.1 73.2757 157.175 73.2832 157.25C73.3357 157.708 73.3882 158.18 73.4782 158.638C73.5082 158.803 73.5307 158.953 73.5682 159.11C73.6507 159.47 73.7407 159.808 73.8457 160.115C73.9582 160.438 74.1007 160.715 74.2507 160.97C75.0682 162.29 76.3657 162.815 77.0632 165.193C77.8957 168.013 77.6707 169.483 77.6707 169.483C77.7907 171.328 77.3857 172.58 76.6732 172.633C75.9607 172.685 74.3707 171.568 74.3707 171.568C74.3707 171.568 73.4932 172.513 72.8257 172.505C72.1582 172.505 69.0682 171.14 69.0682 171.14C69.0682 171.14 68.1532 172.258 67.2607 172.025C66.4507 171.815 62.6632 170.33 61.6657 168.658C61.5532 168.478 61.4782 168.29 61.4407 168.103C61.0732 166.22 58.9432 161.93 59.2582 160.093C59.5732 158.263 58.8832 149.975 58.3282 146.038C57.7732 142.093 49.9207 121.01 49.9432 119.135C50.0107 113.39 48.3682 103.28 48.3682 103.28C45.5107 92.1877 47.8957 84.6952 52.0207 82.3552C56.1382 80.0077 62.6707 86.6377 63.1582 94.1752C63.6457 101.713 62.7157 107.293 65.1832 116.645C67.6432 125.99 68.0407 142.7 68.9332 143.938C69.8257 145.175 73.3957 145.858 75.1207 146.983C76.5232 147.89 79.1182 152.128 79.9882 154.52H79.9957C80.1907 155.075 80.2957 155.533 80.2732 155.818C80.1532 157.363 81.4957 161.098 81.3382 161.698L81.3682 161.69Z" fill="url(#paint1_linear_716_251)"/>
    <g style="mix-blend-mode:multiply">
      <path d="M63.414 103.365C58.089 115.852 49.269 109.53 49.269 109.53L48.399 103.282C48.399 103.282 46.6065 94.5075 52.464 90.33C58.3215 86.1525 63.444 95.5875 63.5715 97.4175C63.699 99.2475 63.414 103.357 63.414 103.357V103.365Z" fill="#DB8BC2"/>
    </g>
    <path d="M67.9288 102.018C67.9288 102.018 61.4413 107.23 55.9888 108.58C50.5288 109.93 46.8463 107.2 46.8463 107.2C46.8463 107.2 46.8463 107.178 46.8463 107.125C46.8013 106.51 46.4263 102.393 42.8638 95.2301C38.9938 87.4526 40.1188 76.4051 47.5813 72.4376C55.0513 68.4851 61.9513 72.5351 63.7213 83.7701C65.3413 93.9401 67.4788 100.668 67.8613 101.838C67.8688 101.853 67.8688 101.86 67.8763 101.868C67.8913 101.898 67.8913 101.92 67.8988 101.943C67.9138 101.995 67.9288 102.025 67.9288 102.025V102.018Z" fill="url(#paint2_linear_716_251)"/>
    <g style="mix-blend-mode:multiply" opacity="0.3">
      <path d="M50.2055 74.3365C50.0255 74.884 60.263 91.8115 62.9105 94.9765C65.558 98.1415 62.9555 88.9465 60.503 81.5365C58.0505 74.134 50.2055 74.3365 50.2055 74.3365Z" fill="#C486E8"/>
    </g>
    <g style="mix-blend-mode:soft-light">
      <path d="M62.958 111.144C60.003 106.201 56.7705 107.956 54.498 114.646C50.838 125.386 62.1105 130.734 64.563 132.466C67.0155 134.199 67.863 122.409 62.958 111.144Z" fill="#FF9C7C"/>
    </g>
    <path d="M72.0795 138.416C72.6045 141.401 72.462 141.311 72.0795 142.211C71.7045 143.111 70.8495 143.201 65.6445 143.501C60.432 143.809 42.4245 139.796 41.7195 138.469C41.007 137.141 41.622 136.811 41.952 136.759C42.282 136.714 42.282 135.911 42.282 135.011C42.282 134.111 43.182 134.771 43.137 134.396C43.092 134.014 42.567 132.259 43.2795 131.974C43.992 131.696 45.9345 130.129 45.9345 126.814C45.9345 123.499 38.4495 99.5285 37.5945 90.2435C36.7395 80.9585 41.952 65.426 42.522 63.716C42.597 63.4835 42.657 63.2585 42.6945 63.0335C42.867 62.066 42.732 61.241 42.9045 60.7235C42.9795 60.491 43.1145 60.3185 43.3695 60.2135C44.3145 59.8385 45.4395 60.2135 45.4395 60.2135C45.4395 60.2135 50.997 61.871 55.7295 67.1285C58.2945 69.971 62.3145 70.4435 63.1095 70.781C63.732 71.0435 64.7595 71.4785 65.307 72.0935C65.322 72.1085 65.352 72.1385 65.382 72.176C65.4945 72.3185 65.577 72.4685 65.6295 72.626C65.7195 72.896 66.597 73.9835 67.827 75.611C67.842 75.6335 67.857 75.6485 67.8645 75.671C67.887 75.701 67.902 75.7235 67.9245 75.7535C70.7295 79.4885 75.177 85.9085 75.957 91.7585C77.712 104.921 71.5545 135.431 72.072 138.416H72.0795Z" fill="url(#paint3_linear_716_251)"/>
    <path style="mix-blend-mode:multiply" opacity="0.88" d="M65.9606 96.5C65.9606 96.5 66.5906 114.785 68.1956 123.312C69.8081 131.84 71.7956 134.607 71.7956 134.607C71.7956 134.607 72.7406 129.47 72.7406 126.53C72.7406 123.59 68.4581 118.287 65.9531 96.5H65.9606Z" fill="url(#paint4_linear_716_251)"/>
    <g style="mix-blend-mode:multiply">
      <path d="M67.9328 75.7482C67.9328 75.7482 62.4203 75.6507 57.2153 71.5782C52.0103 67.5057 44.9828 62.6682 42.6953 63.0282C42.8678 62.0607 42.7328 61.2357 42.9053 60.7182C46.3703 60.3732 49.0028 62.9532 54.3128 67.5057C59.6153 72.0507 65.0303 71.8182 65.3078 72.0882C65.3228 72.1032 65.3528 72.1332 65.3828 72.1707C65.8103 72.6882 67.4078 74.9982 67.8278 75.6057C67.8428 75.6282 67.8578 75.6432 67.8653 75.6657C67.9028 75.7182 67.9253 75.7482 67.9253 75.7482H67.9328Z" fill="#D68BC2"/>
    </g>
    <path style="mix-blend-mode:multiply" d="M64.9443 101.788C64.9443 101.788 65.2968 99.0134 65.6418 93.7559C65.9868 88.4984 63.9618 81.3359 63.9618 81.3359C63.9618 81.3359 63.8193 86.0534 63.9618 91.0334C64.1043 96.0059 64.9518 101.788 64.9518 101.788H64.9443Z" fill="url(#paint5_linear_716_251)"/>
    <g style="mix-blend-mode:multiply" opacity="0.3">
      <path d="M66.0625 95.5547C69.1375 100.91 75.6925 98.2097 75.9625 99.2072C76.225 100.205 74.8375 116.135 74.8375 116.135C74.8375 116.135 68.995 111.14 66.07 95.5547H66.0625Z" fill="#C486E8"/>
    </g>
    <g style="mix-blend-mode:soft-light" opacity="0.3">
      <path d="M62.823 75.7525C61.6155 77.7775 64.8255 87.325 67.9305 92.3875C71.0355 97.45 75.963 97.45 75.963 97.45C75.963 97.45 76.9755 92.8 75.2355 88.6375C73.4955 84.475 67.9305 75.76 67.9305 75.76C67.9305 75.76 64.173 73.4875 62.823 75.76V75.7525Z" fill="#FFBAEF"/>
    </g>
    <path d="M75.5133 89.5483C75.5133 89.5483 70.7658 88.2133 70.3458 88.2508C69.9258 88.2883 70.4058 101.316 71.0358 102.463C71.6658 103.611 76.1808 103.363 76.1808 103.363C76.1808 103.363 76.4883 94.1383 75.5133 89.5483Z" fill="url(#paint6_linear_716_251)"/>
    <path d="M44.0371 107.118C43.5346 111.401 51.9721 112.946 55.8571 111.881C61.0621 110.448 65.4721 107.688 65.6371 104.943C65.8021 102.198 60.0871 94.9759 53.1796 95.9584C46.2646 96.9409 44.2321 105.513 44.0446 107.118H44.0371Z" fill="#68004A"/>
    <path d="M70.6053 165.899C70.3728 166.461 69.0453 166.514 68.4303 166.461C67.8153 166.416 66.4727 165.014 66.1053 163.761C65.7453 162.516 66.1577 160.626 65.5877 159.599C65.0177 158.564 63.4578 157.596 63.4578 157.596C63.4578 157.596 63.2927 158.751 63.2327 160.146C63.2327 160.221 63.2327 160.296 63.2327 160.371C63.2177 160.829 63.2102 161.309 63.2327 161.774C63.2327 161.939 63.2328 162.096 63.2553 162.254C63.2853 162.621 63.3303 162.966 63.3903 163.289C63.8178 165.419 65.4528 165.846 65.8803 168.764C66.3078 171.674 65.8803 173.099 65.8803 173.099C65.7378 174.944 65.1678 176.129 64.4553 176.076C63.7428 176.031 62.3253 174.704 62.3253 174.704C62.3253 174.704 61.3278 175.514 60.6678 175.416C60.0078 175.319 57.1353 173.541 57.1353 173.541C57.1353 173.541 56.0703 174.516 55.2228 174.164C54.4503 173.841 50.9103 171.846 50.1528 170.046C50.0703 169.851 50.0178 169.656 50.0103 169.469C49.9128 167.556 48.3978 163.004 48.9678 161.234C49.5378 159.464 50.0103 151.161 50.0103 147.186C50.0103 143.211 45.1803 121.229 45.4653 119.376C46.3353 113.699 46.1253 103.454 46.1253 103.454C44.8428 92.0685 48.2553 84.9886 52.6653 83.2411C57.0678 81.4936 62.6103 88.9711 62.0403 96.5011C61.4703 104.031 59.7678 109.431 60.9078 119.031C62.0403 128.631 60.0978 145.229 60.8103 146.579C61.5228 147.929 64.9578 149.106 66.5103 150.456C67.7703 151.551 69.7502 156.111 70.2752 158.601C70.3952 159.179 70.4328 159.644 70.3728 159.929C70.0353 161.444 70.8453 165.329 70.6053 165.899Z" fill="url(#paint7_linear_716_251)"/>
    <g style="mix-blend-mode:multiply">
      <path d="M60.9819 105.634C57.3969 99.8218 46.1094 109.767 46.1094 109.767L46.1244 103.459C46.1244 103.459 45.5769 94.5193 51.9594 91.2043C58.3419 87.8893 62.0919 97.9468 61.9719 99.7768C61.8444 101.607 60.9819 105.634 60.9819 105.634Z" fill="#DB8BC2"/>
    </g>
    <path d="M65.6392 104.935C65.6392 104.935 59.2942 98.0198 53.7067 98.5898C48.1117 99.1598 44.0392 107.117 44.0392 107.117C44.0392 107.117 44.0392 107.095 44.0392 107.042C44.0842 106.427 44.2867 102.295 41.7592 94.7048C39.0142 86.4623 41.6692 75.6773 49.6192 72.7973C57.5692 69.9248 63.8317 74.9048 64.0192 86.2748C64.1992 96.5723 65.3767 103.532 65.5942 104.747C65.5942 104.762 65.5942 104.77 65.5942 104.777C65.6017 104.807 65.6017 104.83 65.6092 104.852C65.6092 104.905 65.6242 104.935 65.6242 104.935H65.6392Z" fill="url(#paint8_linear_716_251)"/>
    <g style="mix-blend-mode:multiply" opacity="0.3">
      <path d="M51.9671 75.0547C51.7121 75.5722 59.4821 93.7597 61.6646 97.2697C63.8471 100.772 62.5496 91.2997 61.1621 83.6272C59.7746 75.9547 51.9746 75.0547 51.9746 75.0547H51.9671Z" fill="#C486E8"/>
    </g>
    <path style="mix-blend-mode:multiply" d="M65.6391 104.935C65.6391 104.935 59.2941 98.0201 53.7066 98.5901C48.1116 99.1601 44.0391 107.118 44.0391 107.118C44.0391 107.118 44.0391 107.095 44.0391 107.043C44.1366 106.3 45.1566 100.293 52.3716 97.3601C59.6391 94.3976 65.1141 103.248 65.5941 104.748C65.5941 104.763 65.5941 104.77 65.5941 104.778C65.6091 104.808 65.6166 104.83 65.6091 104.853C65.6241 104.89 65.6241 104.92 65.6241 104.935H65.6391Z" fill="url(#paint9_linear_716_251)"/>
    <g style="mix-blend-mode:soft-light">
      <path d="M59.4447 113.273C57.2097 107.971 53.7672 109.253 50.5722 115.561C45.4497 125.686 55.8672 132.556 58.0497 134.611C60.2322 136.673 62.7222 125.116 59.4447 113.273Z" fill="#FF9C7C"/>
    </g>
    <path d="M74.8364 56.7396C72.9014 57.7446 58.4564 53.4321 55.6814 52.0821C52.9064 50.7321 51.0614 42.7371 47.0864 36.5046C43.1039 30.2721 42.9689 18.7596 53.9039 13.5021C64.8464 8.24458 72.0839 15.3621 73.7939 17.7021C75.4964 20.0421 76.7564 27.0021 76.5389 28.1421C76.3214 29.2821 75.7589 32.1921 75.9689 33.3996C76.1789 34.6071 80.3414 38.0871 81.2264 39.7596C82.1114 41.4321 80.1989 43.3821 78.4889 43.7046C78.4889 43.7046 78.7364 46.4346 79.1639 47.2221C79.1639 47.2221 78.0989 48.1446 77.7089 48.2871C77.7089 48.2871 78.1364 48.6096 78.2789 49.8171C78.2789 49.8171 77.3939 50.6496 77.0564 51.4971C76.7264 52.3521 77.5739 55.3146 74.8289 56.7471L74.8364 56.7396Z" fill="url(#paint10_radial_716_251)"/>
    <path d="M74.7579 19.5835L73.9329 18.0085L73.3179 18.301C73.3179 18.301 73.5879 15.841 66.6879 16.9135C59.7879 17.9935 58.2129 23.6335 58.0704 24.9535C58.0554 25.0735 58.0254 25.2085 57.9654 25.3735C57.4329 27.031 55.1154 30.931 55.9329 37.171L52.0629 38.641C52.0629 38.641 47.7504 33.556 42.6204 34.5085C42.6204 34.5085 40.9479 32.2435 40.1679 30.181C39.6204 28.7335 39.4929 28.051 39.4629 27.7735C39.4479 27.6535 39.4554 27.6085 39.4554 27.6085C39.4554 27.6085 39.2679 27.0085 38.6304 28.0735C37.9929 29.1385 37.8954 24.6085 38.9829 20.7535C41.1204 13.231 49.0329 11.191 54.8154 10.321C54.8154 10.321 51.2904 10.5385 50.5329 10.696C49.7754 10.8535 55.8204 7.57603 64.0329 7.50103C72.2379 7.41853 74.9304 12.301 75.3129 14.5585C75.6879 16.8235 74.7579 19.5835 74.7579 19.5835Z" fill="url(#paint11_linear_716_251)"/>
    <path d="M73.3133 18.3019C73.3133 18.3019 71.2583 13.8544 66.5858 14.0119C61.9208 14.1694 61.6583 20.9194 62.1083 21.4294C62.5583 21.9394 67.1033 18.3319 69.4058 17.4169C71.7083 16.5019 73.3133 18.3019 73.3133 18.3019Z" fill="url(#paint12_linear_716_251)"/>
    <path style="mix-blend-mode:multiply" opacity="0.8" d="M72.7467 37.069C72.7467 37.069 74.2692 31.7965 73.9092 28.564C73.5567 25.3315 66.9717 26.6665 64.4142 29.8465C61.8567 33.0265 62.5092 36.439 62.8467 36.6265C63.1842 36.814 72.7467 37.0765 72.7467 37.0765V37.069Z" fill="url(#paint13_linear_716_251)"/>
    <g style="mix-blend-mode:multiply" opacity="0.5">
      <path d="M65.2266 34.5C65.2266 34.5 65.3241 35.7525 65.6091 36.2625C65.8941 36.765 69.3666 36.5175 69.3666 36.5175C69.3666 36.5175 66.6591 36.2325 65.2266 34.5075V34.5Z" fill="#EA8BC2"/>
    </g>
    <path d="M73.1294 32.015C73.1294 32.0825 73.0844 32.105 73.0169 32.39C72.9494 32.6975 72.7169 33.2525 72.5969 33.6875C72.4319 34.28 72.3794 34.94 72.1994 35.465C72.1769 35.51 72.1619 35.54 72.1544 35.585C71.9519 36.11 71.7719 36.5 71.6594 36.5225C71.6069 36.5375 71.5544 36.5525 71.5019 36.56C71.4719 36.56 71.4419 36.575 71.4119 36.575C69.2219 36.9575 65.3594 35.33 65.3594 34.9025C65.3594 34.475 65.8844 33.125 67.3994 32.2325C68.9144 31.3475 73.0844 31.655 73.1294 32.015Z" fill="url(#paint14_linear_716_251)"/>
    <path d="M71.9625 36.0234C71.9625 36.0234 72.015 36.4134 71.9625 36.6309C71.91 36.8484 70.875 36.6309 70.875 36.6309C70.875 36.6309 71.5725 36.5484 71.9625 36.0234Z" fill="#E24C5B"/>
    <path d="M65.4866 34.375C65.4866 34.375 65.4116 35.41 68.1416 36.2125C68.1416 36.2125 66.1541 35.9125 65.3591 35.1925C64.9991 34.87 65.4866 34.375 65.4866 34.375Z" fill="#E24C5B"/>
    <path d="M73.0362 32.3017C72.9687 32.6317 72.8637 33.0517 72.7437 33.5092C72.5787 34.1392 72.3762 34.8292 72.1962 35.3842C72.1737 35.4292 72.1587 35.4667 72.1512 35.5117C71.9487 36.0742 71.7687 36.4867 71.6562 36.5167C71.6037 36.5317 71.5512 36.5467 71.4987 36.5542C71.6262 36.5767 71.7612 36.5842 71.9112 36.5692C71.7462 36.6067 71.5737 36.6067 71.4087 36.5692H71.3937C70.4937 36.3667 69.9987 35.1742 70.2837 33.8992C70.5687 32.6242 71.5287 31.7542 72.4212 31.9492C72.6537 32.0017 72.8637 32.1217 73.0362 32.3017Z" fill="url(#paint15_linear_716_251)"/>
    <g style="mix-blend-mode:multiply" opacity="0.79">
      <path d="M72.7437 33.5077C72.5787 34.1377 72.3761 34.8277 72.1961 35.3827C72.0536 35.4502 71.8962 35.4652 71.7462 35.4352C71.2662 35.3227 70.9886 34.7227 71.1311 34.0852C71.2736 33.4477 71.7761 33.0202 72.2561 33.1252C72.4661 33.1702 72.6387 33.3127 72.7437 33.5077Z" fill="#975995"/>
    </g>
    <g style="mix-blend-mode:soft-light" opacity="0.5">
      <path d="M72.1554 35.5072C71.9529 36.0697 71.7729 36.4822 71.6604 36.5122C71.6079 36.5272 71.5554 36.5422 71.5029 36.5497C70.5429 36.3997 70.3179 35.3197 70.3554 35.2072C70.4079 35.0647 70.9704 34.6597 71.0454 34.7797C71.1279 34.8922 71.2029 35.3272 71.6229 35.4772C71.8629 35.5597 72.0354 35.5297 72.1554 35.5072Z" fill="#FFC7AC"/>
    </g>
    <path d="M70.2057 34.3757C68.5107 34.4507 69.8232 34.9832 70.3482 34.7882C70.8807 34.5932 70.6182 34.3607 70.2057 34.3757Z" fill="white"/>
    <g style="mix-blend-mode:multiply">
      <path d="M72.7469 31.5184C72.7469 31.5184 72.4169 30.4234 71.9219 30.2884C71.4269 30.1534 68.8544 30.6034 67.4219 32.0209C67.4219 32.0209 69.5894 30.7309 70.8719 30.7534C72.1544 30.7759 72.7469 31.5184 72.7469 31.5184Z" fill="#EA8BC2"/>
    </g>
    <path d="M72.9931 32.7657C72.9931 32.7657 73.9081 31.9332 74.0956 31.6632C74.2831 31.4007 71.5531 30.8832 69.1006 31.3782C66.6481 31.8657 65.8906 33.6282 65.8906 33.6282C65.8906 33.6282 66.5206 32.4657 69.0781 32.0232C72.2056 31.4907 72.9931 32.7657 72.9931 32.7657Z" fill="#560A35"/>
    <g style="mix-blend-mode:multiply">
      <path d="M74.1047 40.25C74.1047 40.25 73.9172 42.7175 74.7272 43.4225C75.5372 44.135 76.1522 43.355 77.0522 43.4225C77.9522 43.49 78.4847 43.7075 78.4847 43.7075C78.4847 43.7075 81.1247 42.6875 81.1247 41.6675C81.1247 41.6675 79.1222 42.0725 77.3822 42.32C75.6422 42.5675 75.7022 42.8075 75.0047 42.7475C74.2997 42.6875 74.1047 40.25 74.1047 40.25Z" fill="#EA8BC2"/>
    </g>
    <g style="mix-blend-mode:multiply" opacity="0.5">
      <path d="M74.1016 40.2458C74.5441 38.5208 77.3866 42.3233 77.3866 42.3233C77.3866 42.3233 76.3441 43.3958 75.3916 43.2083C74.4391 43.0283 74.1016 40.2458 74.1016 40.2458Z" fill="#EA8BC2"/>
    </g>
    <g style="mix-blend-mode:multiply">
      <path d="M74.5622 43.2319C75.2597 44.4394 78.8297 46.1269 78.8297 46.1269C78.8297 46.1269 78.4997 44.0869 78.4847 43.7119C78.4847 43.7119 80.6072 43.0744 81.1247 41.6719C81.1247 41.6719 79.4822 41.9869 77.5697 42.2944C75.6572 42.5944 74.5547 43.2319 74.5547 43.2319H74.5622Z" fill="#C977C2"/>
    </g>
    <g style="mix-blend-mode:multiply" opacity="0.2">
      <path d="M79.8803 38.0325C77.0603 36.105 74.9378 38.625 74.5703 39.3225C74.2028 40.0275 75.3953 35.4225 75.4028 34.3425C75.4028 33.2625 77.6153 35.655 77.6153 35.655L79.8803 38.0325Z" fill="#EA8BC2"/>
    </g>
    <path d="M79.17 47.2177C76.755 46.8277 75.2925 48.2152 74.4975 48.1402C73.7025 48.0727 72.75 47.2177 72.75 47.2177C72.75 47.2177 74.055 48.7102 74.4975 48.8152C74.94 48.9202 76.47 48.3202 77.715 48.2827C77.715 48.2827 79.065 47.5702 79.17 47.2177Z" fill="url(#paint16_linear_716_251)"/>
    <path d="M78.2875 49.8177C78.2875 49.8177 76.15 49.6752 74.5 48.8202C74.5 48.8202 76.8625 48.2127 77.7175 48.2877C77.7175 48.2877 78.43 49.0302 78.2875 49.8177Z" fill="#FA7763"/>
    <g style="mix-blend-mode:multiply">
      <path d="M76.9607 52.2154C76.9607 52.2154 75.4682 50.7454 75.1832 50.2054C74.8982 49.6729 77.8982 50.2054 77.8982 50.2054C77.8982 50.2054 77.0132 50.9854 76.9532 52.2154H76.9607Z" fill="#C977C2"/>
    </g>
    <g style="mix-blend-mode:multiply">
      <path d="M69.5781 56.2331L76.2906 55.4531C76.2906 55.4531 75.4731 56.6156 74.1156 56.9006C72.7581 57.1856 69.5781 56.2331 69.5781 56.2331Z" fill="#EEB4C9"/>
    </g>
    <path d="M52.6154 37.815C52.6154 37.815 51.0179 35.13 48.5279 34.1175C46.0379 33.105 42.2954 33.9975 41.2529 35.28C40.2104 36.57 41.0654 41.0025 43.0004 43.335C44.9354 45.6675 48.8204 46.32 50.7029 46.065C52.5854 45.8175 54.1154 39.6975 52.6079 37.8075L52.6154 37.815Z" fill="url(#paint17_linear_716_251)"/>
    <path style="mix-blend-mode:multiply" opacity="0.88" d="M51.9701 39.7915C51.9701 39.7915 51.8951 37.279 46.8176 36.064C41.7326 34.849 42.5426 38.614 42.6701 40.834C42.7976 43.0615 45.5126 44.389 45.5126 44.389C45.5126 44.389 42.9101 42.889 43.1951 40.1065C43.4801 37.3315 45.2801 37.4215 45.6101 37.6615C45.9401 37.9015 44.9501 39.4315 46.3676 41.509C47.7851 43.5865 48.4976 43.249 49.7801 42.589C51.0626 41.929 50.4401 41.0965 50.2076 39.8965C49.9751 38.6965 51.9776 39.7915 51.9776 39.7915H51.9701Z" fill="url(#paint18_linear_716_251)"/>
    <g style="mix-blend-mode:multiply">
      <path d="M49.9562 37.2778C47.7887 36.1153 45.2612 40.3378 47.2562 41.9878C49.2512 43.6378 49.9487 41.8378 49.9562 40.2478C49.9637 38.6653 51.3137 38.6503 51.3137 38.6503C51.3137 38.6503 50.6387 37.6453 49.9562 37.2853V37.2778Z" fill="#C98BC2"/>
    </g>
    <path d="M73.9094 28.5737C73.9094 28.5737 74.7269 27.7937 74.7269 25.5212C74.7269 25.5212 74.7944 24.5012 74.3744 25.2137C73.9469 25.9262 73.9094 27.3362 73.9094 27.3362C73.9094 27.3362 74.0144 25.7012 73.5569 25.3487C73.0919 24.9962 70.2869 25.4537 68.5394 25.6412C66.7844 25.8287 66.4544 25.6412 65.7944 26.7812C65.1344 27.9212 64.4219 29.8637 64.4219 29.8637C64.4219 29.8637 65.2394 29.1287 65.9594 28.7987C66.6869 28.4687 71.0069 29.5787 73.9169 28.5887L73.9094 28.5737Z" fill="url(#paint19_linear_716_251)"/>
    <path style="mix-blend-mode:multiply" opacity="0.88" d="M53.6151 36.0686C54.4701 35.1161 60.1776 37.0061 63.5601 41.5136C67.7076 47.0336 69.5751 55.5386 69.5751 55.7861C69.5751 56.2361 57.5676 53.8136 55.2126 51.6011C50.8476 47.5061 53.6151 36.0686 53.6151 36.0686Z" fill="url(#paint20_linear_716_251)"/>
    <g style="mix-blend-mode:multiply" opacity="0.5">
      <path d="M64.414 28.6471C63.139 31.9921 56.4415 31.2871 55.384 29.8546C54.3265 28.4221 59.104 24.5146 62.5165 23.0896C65.929 21.6646 66.139 24.1396 65.8915 24.9796C65.644 25.8271 64.414 28.6471 64.414 28.6471Z" fill="#EEB4C9"/>
    </g>
    <g style="mix-blend-mode:multiply" opacity="0.2">
      <path d="M60.5958 37.1719C59.5758 37.1644 63.2734 40.2469 65.6434 42.4144C68.0134 44.5819 71.8758 40.9294 71.9808 40.5319C72.0858 40.1344 72.0333 37.2694 60.5958 37.1719Z" fill="#EA8BC2"/>
    </g>
    <path style="mix-blend-mode:multiply" opacity="0.8" d="M61.969 20.8427C61.969 20.8427 62.734 16.6052 65.359 14.8277C67.984 13.0502 70.204 14.9402 70.204 14.9402C70.204 14.9402 68.659 13.0577 65.224 13.8377C61.789 14.6177 61.8265 19.9352 61.969 20.8502V20.8427Z" fill="url(#paint21_linear_716_251)"/>
    <path style="mix-blend-mode:multiply" opacity="0.8" d="M38.6328 28.0744C38.6328 28.0744 39.8778 23.3644 44.0478 18.9094C48.2178 14.4544 56.6028 12.6094 56.6028 12.6094C56.6028 12.6094 49.7178 14.5519 44.1453 21.0769C41.1378 24.6019 39.2178 27.4819 39.2178 27.4819C39.2178 27.4819 38.8053 27.5794 38.6328 28.0744Z" fill="url(#paint22_linear_716_251)"/>
    <path style="mix-blend-mode:multiply" opacity="0.8" d="M50.5312 10.6959C50.5312 10.6959 58.2338 7.36586 65.9588 9.43586C73.6913 11.4984 74.5613 16.7784 74.5613 16.7784C74.5613 16.7784 69.2362 6.69086 50.5312 10.7034V10.6959Z" fill="url(#paint23_linear_716_251)"/>
    <g style="mix-blend-mode:multiply">
      <path d="M57.9634 25.3825C57.4309 27.0325 55.1134 30.9325 55.9309 37.1725L52.0609 38.6425C52.0609 38.6425 47.7484 33.5575 42.6184 34.51C42.6184 34.51 40.9459 32.245 40.1659 30.1825C39.6184 28.735 39.4909 28.0525 39.4609 27.775L39.5434 27.4C39.5434 27.4 40.1809 28.3375 43.9234 28.9975C47.6659 29.6575 57.9634 25.375 57.9634 25.375V25.3825Z" fill="#C95BC2"/>
    </g>
    <path style="mix-blend-mode:multiply" opacity="0.8" d="M43.9062 14.0223C43.9062 14.0223 47.5063 12.2748 53.5138 11.9673C55.8163 11.8473 57.3463 14.3148 59.7688 13.8873C68.2363 12.3798 72.7438 16.4898 72.7438 16.4898C72.7438 16.4898 70.1788 12.6948 59.7313 11.8773C49.2838 11.0598 43.9062 14.0148 43.9062 14.0148V14.0223Z" fill="url(#paint24_linear_716_251)"/>
    <path style="mix-blend-mode:multiply" opacity="0.8" d="M62.5199 14.0078C62.5199 14.0078 58.4024 16.2053 54.0899 20.1353C49.7774 24.0653 52.2899 16.0703 54.6074 14.4803C54.6074 14.4803 52.7624 14.5478 50.8199 19.2803C48.8774 24.0128 51.6449 23.8028 55.2374 20.3378C58.8299 16.8728 62.5199 14.0078 62.5199 14.0078Z" fill="url(#paint25_linear_716_251)"/>
    <g style="mix-blend-mode:soft-light" opacity="0.3">
      <path d="M58.3334 11.6207C55.0634 10.8707 60.1034 9.30318 63.3959 10.1357C66.6884 10.9682 67.9259 11.9957 67.9259 11.9957C67.9259 11.9957 63.0884 12.7082 58.3409 11.6207H58.3334Z" fill="#FF868D"/>
    </g>
    <g style="mix-blend-mode:soft-light" opacity="0.3">
      <path d="M64.9292 15.1611C62.1692 17.0586 65.7542 17.7561 67.6442 17.2461C69.5342 16.7361 70.3592 16.3236 70.3592 16.3236C70.3592 16.3236 68.8067 12.4986 64.9367 15.1611H64.9292Z" fill="#FF868D"/>
    </g>
    <g style="mix-blend-mode:soft-light" opacity="0.3">
      <path d="M61.7188 8.49212C61.7188 8.49212 64.8762 7.07462 67.6437 7.83212C70.4112 8.58962 71.5962 10.4796 71.6412 10.5771C71.6862 10.6746 67.2088 9.48212 65.4613 9.09212C63.7063 8.70212 61.7188 8.49212 61.7188 8.49212Z" fill="#FF868D"/>
    </g>
    <g style="mix-blend-mode:soft-light" opacity="0.3">
      <path d="M56.3438 13.6328C53.8838 13.6703 51.5963 18.6428 52.1663 19.8728C52.7363 21.1028 58.3688 16.0853 59.6513 15.2528C60.9338 14.4203 56.3438 13.6328 56.3438 13.6328Z" fill="#FF868D"/>
    </g>
    <g style="mix-blend-mode:soft-light" opacity="0.5">
      <path d="M61.0165 11.9792C59.8465 11.4092 61.0465 10.5617 62.599 10.2392C64.249 9.89417 65.659 10.6442 65.659 10.6442C65.659 10.6442 63.2065 11.8742 62.5615 11.9792C61.9165 12.0842 61.024 11.9792 61.024 11.9792H61.0165Z" fill="#FFE2C5"/>
    </g>
    <g style="mix-blend-mode:soft-light" opacity="0.5">
      <path d="M63.8315 7.83565C62.4815 8.24065 63.2239 8.69815 65.4514 9.09565C67.6789 9.48565 68.7664 8.76565 68.7664 8.76565C68.7664 8.76565 66.899 6.91315 63.8315 7.83565Z" fill="#FFE2C5"/>
    </g>
    <path style="mix-blend-mode:multiply" opacity="0.88" d="M73.6316 46.773C73.6316 46.773 72.9416 46.6005 72.4466 47.2005C71.9516 47.808 72.4466 48.8055 72.4466 48.8055C72.4466 48.8055 72.3041 47.913 73.6316 46.773Z" fill="url(#paint26_linear_716_251)"/>
    <path style="mix-blend-mode:multiply" opacity="0.3" d="M74.9718 43.7252C74.2668 43.5302 73.5993 41.8577 74.1093 39.1577C74.6193 36.4577 75.0018 34.7852 75.3993 34.3427C75.7968 33.9002 80.2443 38.4602 80.9118 39.2702C81.5793 40.0802 81.5568 41.3852 80.7693 42.2777C79.9818 43.1702 78.4893 43.7027 78.4893 43.7027C78.4893 43.7027 76.9518 43.3127 74.9643 43.7177L74.9718 43.7252Z" fill="url(#paint27_linear_716_251)"/>
    <g style="mix-blend-mode:soft-light" opacity="0.5">
      <path d="M65.9677 19.3804C62.7727 21.4354 66.8302 25.0354 70.0852 24.9604C73.3402 24.8779 76.2127 24.9604 76.2127 24.9604C76.2127 24.9604 75.7927 20.7754 73.9252 19.3804C72.0577 17.9854 67.4077 18.4504 65.9602 19.3804H65.9677Z" fill="#FFC7AC"/>
    </g>
    <path d="M76.0682 92.4587C73.2332 89.5112 72.8957 101.474 74.6657 101.984C75.6332 102.261 76.2107 102.156 76.2107 102.156C76.2107 102.156 76.4357 98.4737 76.0682 92.4587Z" fill="#E1E2F7"/>
  </g>
  <defs>
    <linearGradient id="paint0_linear_716_251" x1="55.3678" y1="72.0884" x2="55.3678" y2="40.8359" gradientUnits="userSpaceOnUse">
      <stop offset="0.02" stop-color="#FF8D5B"/>
      <stop offset="1" stop-color="#FF6F6B"/>
    </linearGradient>
    <linearGradient id="paint1_linear_716_251" x1="70.3693" y1="173.515" x2="57.3493" y2="81.3401" gradientUnits="userSpaceOnUse">
      <stop stop-color="#FF6F6B"/>
      <stop offset="0.98" stop-color="#FF8D5B"/>
    </linearGradient>
    <linearGradient id="paint2_linear_716_251" x1="56.2771" y1="108.598" x2="50.9861" y2="71.1398" gradientUnits="userSpaceOnUse">
      <stop stop-color="#B30039"/>
      <stop offset="1" stop-color="#C70018"/>
    </linearGradient>
    <linearGradient id="paint3_linear_716_251" x1="56.892" y1="143.524" x2="56.892" y2="60.0485" gradientUnits="userSpaceOnUse">
      <stop stop-color="#567CF0"/>
      <stop offset="1" stop-color="#567CF0"/>
    </linearGradient>
    <linearGradient id="paint4_linear_716_251" x1="69.3506" y1="134.607" x2="69.3506" y2="96.5" gradientUnits="userSpaceOnUse">
      <stop stop-color="#BD36C9"/>
      <stop offset="1" stop-color="white"/>
    </linearGradient>
    <linearGradient id="paint5_linear_716_251" x1="64.7868" y1="101.788" x2="64.7868" y2="81.3359" gradientUnits="userSpaceOnUse">
      <stop stop-color="#AE47B8"/>
      <stop offset="1" stop-color="white"/>
    </linearGradient>
    <linearGradient id="paint6_linear_716_251" x1="73.2033" y1="103.386" x2="73.2033" y2="88.2508" gradientUnits="userSpaceOnUse">
      <stop stop-color="#292E86"/>
      <stop offset="1" stop-color="#292E86"/>
    </linearGradient>
    <linearGradient id="paint7_linear_716_251" x1="58.0428" y1="176.084" x2="58.0428" y2="82.9861" gradientUnits="userSpaceOnUse">
      <stop offset="0.02" stop-color="#FF8D5B"/>
      <stop offset="1" stop-color="#FF6F6B"/>
    </linearGradient>
    <linearGradient id="paint8_linear_716_251" x1="53.1742" y1="107.117" x2="53.1742" y2="72.0023" gradientUnits="userSpaceOnUse">
      <stop stop-color="#567CF0"/>
      <stop offset="1" stop-color="#567CF0"/>
    </linearGradient>
    <linearGradient id="paint9_linear_716_251" x1="54.8391" y1="107.118" x2="54.8391" y2="96.7601" gradientUnits="userSpaceOnUse">
      <stop stop-color="#AE47B8"/>
      <stop offset="1" stop-color="white"/>
    </linearGradient>
    <radialGradient id="paint10_radial_716_251" cx="0" cy="0" r="1" gradientUnits="userSpaceOnUse" gradientTransform="translate(63.9539 47.7874) scale(28.485 37.8851)">
      <stop offset="0.02" stop-color="#FFA774"/>
      <stop offset="1" stop-color="#FF9B91"/>
    </radialGradient>
    <linearGradient id="paint11_linear_716_251" x1="56.7804" y1="38.641" x2="56.7804" y2="7.50103" gradientUnits="userSpaceOnUse">
      <stop stop-color="#6B1623"/>
      <stop offset="1" stop-color="#AC2C16"/>
    </linearGradient>
    <linearGradient id="paint12_linear_716_251" x1="67.6358" y1="21.4819" x2="67.6358" y2="14.0119" gradientUnits="userSpaceOnUse">
      <stop stop-color="#6B1623"/>
      <stop offset="1" stop-color="#AC2C16"/>
    </linearGradient>
    <linearGradient id="paint13_linear_716_251" x1="68.2392" y1="37.069" x2="68.2392" y2="26.704" gradientUnits="userSpaceOnUse">
      <stop stop-color="white"/>
      <stop offset="1" stop-color="#DC5E7E"/>
    </linearGradient>
    <linearGradient id="paint14_linear_716_251" x1="69.2444" y1="36.635" x2="69.2444" y2="31.6625" gradientUnits="userSpaceOnUse">
      <stop stop-color="#FFE7E3"/>
      <stop offset="1" stop-color="#FFE6E4"/>
    </linearGradient>
    <linearGradient id="paint15_linear_716_251" x1="71.6187" y1="36.5992" x2="71.6187" y2="31.9267" gradientUnits="userSpaceOnUse">
      <stop offset="0.02" stop-color="#923D1A"/>
      <stop offset="1" stop-color="#4D2030"/>
    </linearGradient>
    <linearGradient id="paint16_linear_716_251" x1="75.9825" y1="48.8152" x2="75.96" y2="47.1727" gradientUnits="userSpaceOnUse">
      <stop offset="0.02" stop-color="#D4312E"/>
      <stop offset="1" stop-color="#AC0037"/>
    </linearGradient>
    <linearGradient id="paint17_linear_716_251" x1="49.8329" y1="46.164" x2="49.8329" y2="33.7064" gradientUnits="userSpaceOnUse">
      <stop stop-color="#FFA986"/>
      <stop offset="0.98" stop-color="#FF705B"/>
    </linearGradient>
    <linearGradient id="paint18_linear_716_251" x1="47.2601" y1="44.389" x2="47.2601" y2="35.8315" gradientUnits="userSpaceOnUse">
      <stop stop-color="white"/>
      <stop offset="1" stop-color="#DC5E7E"/>
    </linearGradient>
    <linearGradient id="paint19_linear_716_251" x1="64.4144" y1="27.4037" x2="74.7344" y2="27.4037" gradientUnits="userSpaceOnUse">
      <stop stop-color="#BD4016"/>
      <stop offset="0.97" stop-color="#95352A"/>
    </linearGradient>
    <linearGradient id="paint20_linear_716_251" x1="61.1601" y1="55.8386" x2="61.1601" y2="35.8286" gradientUnits="userSpaceOnUse">
      <stop stop-color="white"/>
      <stop offset="1" stop-color="#DC5E7E"/>
    </linearGradient>
    <linearGradient id="paint21_linear_716_251" x1="61.924" y1="17.2352" x2="70.204" y2="17.2352" gradientUnits="userSpaceOnUse">
      <stop stop-color="#AC3965"/>
      <stop offset="1" stop-color="white"/>
    </linearGradient>
    <linearGradient id="paint22_linear_716_251" x1="38.6328" y1="20.3419" x2="56.6028" y2="20.3419" gradientUnits="userSpaceOnUse">
      <stop stop-color="#AC3965"/>
      <stop offset="1" stop-color="white"/>
    </linearGradient>
    <linearGradient id="paint23_linear_716_251" x1="50.5312" y1="12.7659" x2="74.5613" y2="12.7659" gradientUnits="userSpaceOnUse">
      <stop stop-color="white"/>
      <stop offset="1" stop-color="#AC3965"/>
    </linearGradient>
    <linearGradient id="paint24_linear_716_251" x1="43.9062" y1="14.1123" x2="72.7438" y2="14.1123" gradientUnits="userSpaceOnUse">
      <stop stop-color="white"/>
      <stop offset="1" stop-color="#AC3965"/>
    </linearGradient>
    <linearGradient id="paint25_linear_716_251" x1="50.1824" y1="18.4553" x2="62.5199" y2="18.4553" gradientUnits="userSpaceOnUse">
      <stop stop-color="#AC3965"/>
      <stop offset="1" stop-color="white"/>
    </linearGradient>
    <linearGradient id="paint26_linear_716_251" x1="72.9266" y1="48.8055" x2="72.9266" y2="46.7505" gradientUnits="userSpaceOnUse">
      <stop stop-color="white"/>
      <stop offset="1" stop-color="#AB1A7E"/>
    </linearGradient>
    <linearGradient id="paint27_linear_716_251" x1="77.6643" y1="43.7252" x2="77.6643" y2="34.3127" gradientUnits="userSpaceOnUse">
      <stop stop-color="#DC5E7E"/>
      <stop offset="1" stop-color="white"/>
    </linearGradient>
  </defs>
</svg>